<svg width="150" height="150" viewBox="0 0 150 150" fill="none" xmlns="http://www.w3.org/2000/svg">
<g clip-path="url(#clip0_1251_1163)">
<path d="M75 150C116.421 150 150 116.421 150 75C150 33.5786 116.421 0 75 0C33.5786 0 0 33.5786 0 75C0 116.421 33.5786 150 75 150Z" fill="#FDBA74"/>
<path d="M149.926 78.2496C148.651 108.19 129.819 133.586 103.463 144.407L75 115.944L112.099 40.4232L149.926 78.2496Z" fill="#FB923C"/>
<path d="M75.0005 55.7892C75.0005 43.788 65.2716 34.0559 53.2704 34.0559C41.2657 34.0559 31.5371 43.788 31.5371 55.7892C31.5371 84.7389 64.4973 97.6937 75.0005 115.947C85.5069 97.6937 118.467 84.7389 118.467 55.7892C118.467 43.788 108.735 34.0559 96.7341 34.0559C84.7329 34.0559 75.0005 43.788 75.0005 55.7892Z" fill="#FF8C8A"/>
<path d="M73.2148 113.181C73.8641 114.091 74.4626 115.011 75.0002 115.948C85.5066 97.694 118.467 84.7392 118.467 55.7895C118.467 49.5742 115.856 43.9708 111.673 40.0076C114.622 43.7171 116.384 48.4108 116.384 53.5169C116.384 82.2062 84.0257 95.1879 73.2148 113.181Z" fill="#FA7876"/>
</g>
<defs>
<clipPath id="clip0_1251_1163">
<rect width="150" height="150" fill="white"/>
</clipPath>
</defs>
</svg>
