<svg width="150" height="150" viewBox="0 0 150 150" fill="none" xmlns="http://www.w3.org/2000/svg">
<g clip-path="url(#clip0_1251_1183)">
<path d="M74.9997 149.999C116.421 149.999 149.999 116.421 149.999 74.9997C149.999 33.5785 116.421 0 74.9997 0C33.5785 0 0 33.5785 0 74.9997C0 116.421 33.5785 149.999 74.9997 149.999Z" fill="#FDBA74"/>
<path d="M147.499 94.2591L75.0004 21.7599L75.0786 90.6837L45.96 125.209L70.6199 149.869C72.0698 149.952 73.5294 149.999 75.0001 149.999C109.763 149.999 138.997 126.348 147.499 94.2591Z" fill="#FB923C"/>
<path d="M95.2933 109.698H54.707V62.0438C54.707 49.2443 59.7918 36.9693 68.8424 27.9181L75 21.7599L81.1582 27.9181C90.2086 36.9684 95.2936 49.2443 95.2936 62.0438L95.2933 109.698Z" fill="#E6F3FF"/>
<path d="M95.2932 62.0438C95.2932 49.2443 90.2084 36.9693 81.1578 27.9181L74.9996 21.7599L74.832 21.9275V109.697H95.2932V62.0438Z" fill="#CFDBE6"/>
<path d="M81.1575 27.9181L74.9994 21.7599L68.8412 27.9181C65.7726 30.9866 63.162 34.4266 61.0488 38.1312H88.9502C86.837 34.4266 84.2258 30.9869 81.1575 27.9181Z" fill="#FFD15D"/>
<path d="M81.1578 27.9181L74.9996 21.7599L74.832 21.9275V38.1309H88.9501C86.8373 34.4266 84.226 30.9869 81.1578 27.9181Z" fill="#F9B54C"/>
<path d="M88.6455 86.7219L94.8626 89.8306C100.487 92.6428 104.04 98.3917 104.04 104.681V125.209L88.6455 117.512V86.7219Z" fill="#2B3B4E"/>
<path d="M61.3548 86.7219L55.1378 89.8306C49.5131 92.6428 45.96 98.3917 45.96 104.681V125.209L61.3548 117.512V86.7219Z" fill="#324A5E"/>
<path d="M75 71.3285C81.3766 71.3285 86.5458 66.1593 86.5458 59.7827C86.5458 53.4061 81.3766 48.2368 75 48.2368C68.6234 48.2368 63.4541 53.4061 63.4541 59.7827C63.4541 66.1593 68.6234 71.3285 75 71.3285Z" fill="#324A5E"/>
<path d="M74.9996 48.2347C74.9437 48.2347 74.888 48.2383 74.832 48.2388V71.3226C74.888 71.3235 74.9437 71.3267 74.9996 71.3267C81.3763 71.3267 86.5455 66.1576 86.5455 59.7809C86.5455 53.4042 81.3763 48.2347 74.9996 48.2347Z" fill="#2B3B4E"/>
<path d="M75.0005 68.6464C79.8958 68.6464 83.8642 64.678 83.8642 59.7827C83.8642 54.8874 79.8958 50.9189 75.0005 50.9189C70.1051 50.9189 66.1367 54.8874 66.1367 59.7827C66.1367 64.678 70.1051 68.6464 75.0005 68.6464Z" fill="#B5F1F4"/>
<path d="M74.9996 50.9169C74.9431 50.9169 74.8886 50.9245 74.832 50.9254V68.6358C74.8886 68.6367 74.9431 68.6443 74.9996 68.6443C79.8951 68.6443 83.8633 64.6761 83.8633 59.7806C83.8633 54.8851 79.8951 50.9169 74.9996 50.9169Z" fill="#84DBFF"/>
</g>
<defs>
<clipPath id="clip0_1251_1183">
<rect width="150" height="150" fill="white"/>
</clipPath>
</defs>
</svg>
