<svg width="150" height="150" viewBox="0 0 150 150" fill="none" xmlns="http://www.w3.org/2000/svg">
<g clip-path="url(#clip0_1251_1127)">
<path d="M75 150C116.421 150 150 116.421 150 75C150 33.5786 116.421 0 75 0C33.5786 0 0 33.5786 0 75C0 116.421 33.5786 150 75 150Z" fill="#FDBA74"/>
<path d="M147.13 95.615L126.515 75L47.4005 79.3034L31.6807 85.164L94.5538 147.419C119.903 140.591 139.941 120.814 147.13 95.615Z" fill="#FB923C"/>
<path d="M75.0004 47.5505C52.9873 47.5505 33.7686 58.5911 23.4854 75C33.7686 91.4085 52.9873 102.449 75.0004 102.449C97.0135 102.449 116.232 91.4091 126.515 75C116.232 58.5914 97.0135 47.5505 75.0004 47.5505Z" fill="#324A5E"/>
<path d="M75.0002 47.5505C74.9437 47.5505 74.888 47.5532 74.832 47.5532V102.447C74.8886 102.447 74.9442 102.449 75.0002 102.449C97.0133 102.449 116.232 91.4088 126.515 75C116.232 58.5914 97.0133 47.5505 75.0002 47.5505Z" fill="#2B3B4E"/>
<path d="M75 53.9253C57.3029 53.9253 41.8529 62.4021 33.5859 75C41.8532 87.5979 57.3032 96.0747 75 96.0747C92.6968 96.0747 108.147 87.5979 116.414 75C108.147 62.4021 92.6971 53.9253 75 53.9253Z" fill="#E6F3FF"/>
<path d="M75.0002 53.9253C74.9437 53.9253 74.888 53.9279 74.832 53.9279V96.0724C74.8886 96.0724 74.9442 96.075 75.0002 96.075C92.6973 96.075 108.147 87.5982 116.414 75.0003C108.147 62.4021 92.6973 53.9253 75.0002 53.9253Z" fill="#CFDBE6"/>
<path d="M75.0004 94.1918C85.5997 94.1918 94.1922 85.5994 94.1922 75C94.1922 64.4007 85.5997 55.8082 75.0004 55.8082C64.4011 55.8082 55.8086 64.4007 55.8086 75C55.8086 85.5994 64.4011 94.1918 75.0004 94.1918Z" fill="#84DBFF"/>
<path d="M74.9998 55.8082C74.9433 55.8082 74.8876 55.8117 74.8311 55.8123V94.1877C74.8876 94.1883 74.9433 94.1918 74.9998 94.1918C85.5994 94.1918 94.1916 85.5993 94.1916 75C94.1916 64.4007 85.5994 55.8082 74.9998 55.8082Z" fill="#31BAFD"/>
<path d="M74.9997 81.3131C78.4864 81.3131 81.3129 78.4866 81.3129 74.9999C81.3129 71.5133 78.4864 68.6868 74.9997 68.6868C71.513 68.6868 68.6865 71.5133 68.6865 74.9999C68.6865 78.4866 71.513 81.3131 74.9997 81.3131Z" fill="#324A5E"/>
<path d="M74.9998 68.6868C74.9427 68.6868 74.8876 68.6938 74.8311 68.6953V81.3043C74.8876 81.3058 74.9427 81.3128 74.9998 81.3128C78.4867 81.3128 81.313 78.4866 81.313 74.9997C81.313 71.5127 78.4867 68.6868 74.9998 68.6868Z" fill="#2B3B4E"/>
<path d="M71.4651 72.222C72.9992 72.222 74.2428 70.9784 74.2428 69.4444C74.2428 67.9103 72.9992 66.6667 71.4651 66.6667C69.9311 66.6667 68.6875 67.9103 68.6875 69.4444C68.6875 70.9784 69.9311 72.222 71.4651 72.222Z" fill="white"/>
</g>
<defs>
<clipPath id="clip0_1251_1127">
<rect width="150" height="150" fill="white"/>
</clipPath>
</defs>
</svg>
