<svg width="506" height="265" viewBox="0 0 506 265" fill="none" xmlns="http://www.w3.org/2000/svg">
<g clip-path="url(#clip0_54_1057)">
<path d="M154.51 14.8754C156.419 8.78728 160.763 3.20346 166.77 1.14534C172.777 -0.912781 181.573 2.22241 186.089 6.72395C194.349 14.9582 196.365 43.2457 190.69 52.1848C189.561 52.125 185.666 52.0809 184.523 52.038L182.907 46.6502V51.9849C173.989 51.7093 164.705 51.8819 155.416 52.0604C154.583 45.7313 152.6 20.9635 154.51 14.8754Z" fill="#2F2E41"/>
<path d="M242.792 109.073C241.99 108.965 241.221 108.683 240.539 108.246C239.857 107.809 239.28 107.228 238.847 106.544C238.414 105.86 238.137 105.089 238.034 104.286C237.931 103.483 238.006 102.667 238.253 101.896L222.512 90.0861L232.138 86.635L245.609 98.379C246.877 98.8793 247.917 99.8273 248.533 101.043C249.149 102.26 249.297 103.659 248.95 104.977C248.602 106.296 247.784 107.441 246.649 108.195C245.514 108.95 244.141 109.262 242.792 109.073Z" fill="#9E616A"/>
<path d="M180.263 47.1711L181.769 41.8421C181.769 41.8421 185.525 40.6174 191.933 45.2661C198.342 49.9147 237.9 91.4096 237.9 91.4096L226.123 93.0565L190.128 67.3382L180.263 47.1711Z" fill="#E6E6E6"/>
<path d="M426.703 250.711C450.793 238.407 469.973 213.738 469.444 186.689C446.922 205.614 418.433 215.961 389.017 215.899C377.673 215.835 365.062 214.581 356.246 221.721C350.76 226.164 347.884 233.202 347.032 240.21C346.181 247.219 347.137 254.307 348.091 261.302L347.499 262.962C374.485 264.814 402.612 263.015 426.703 250.711Z" fill="#F0F0F0"/>
<path d="M468.88 186.623C458.387 206.138 441.592 222.426 421.571 231.989C417.243 234.056 412.672 235.777 407.893 236.403C403.23 236.977 398.498 236.291 394.189 234.418C390.136 232.752 386.184 230.578 381.797 229.926C377.172 229.239 372.752 230.754 369.167 233.677C364.78 237.253 361.94 242.192 359.33 247.119C356.432 252.59 353.509 258.318 348.391 262.055C347.771 262.508 348.509 263.444 349.129 262.991C358.033 256.489 360.177 244.772 367.468 236.907C370.87 233.237 375.399 230.571 380.546 230.983C385.048 231.343 389.126 233.581 393.214 235.303C397.508 237.112 401.861 238.113 406.541 237.743C411.329 237.365 415.977 235.82 420.339 233.872C430.198 229.381 439.29 223.368 447.282 216.053C456.449 207.754 464.129 197.948 469.99 187.06C470.352 186.385 469.24 185.954 468.88 186.623Z" fill="white"/>
<path d="M428.243 229.224C430.341 232.381 433.493 234.69 437.137 235.738C440.78 236.786 444.677 236.504 448.132 234.944C448.83 234.625 448.368 233.526 447.669 233.844C444.455 235.304 440.825 235.566 437.434 234.583C434.043 233.6 431.116 231.438 429.179 228.486C428.758 227.845 427.824 228.586 428.243 229.224Z" fill="white"/>
<path d="M396.132 235.533C397.595 227.922 401.872 221.141 408.111 216.544C408.73 216.089 407.991 215.153 407.373 215.607C400.89 220.404 396.453 227.469 394.949 235.393C394.806 236.148 395.99 236.285 396.132 235.533Z" fill="white"/>
<path d="M455.01 207.1C453.943 206.047 453.155 204.746 452.715 203.314C452.276 201.881 452.199 200.362 452.492 198.892C452.644 198.139 451.459 198.003 451.308 198.751C450.992 200.377 451.079 202.055 451.561 203.639C452.043 205.222 452.905 206.664 454.073 207.838C454.174 207.958 454.317 208.035 454.472 208.053C454.628 208.072 454.784 208.03 454.91 207.937C455.034 207.839 455.113 207.696 455.132 207.539C455.151 207.382 455.107 207.224 455.01 207.1Z" fill="white"/>
<path d="M397.74 129.702C397.632 130.17 397.523 130.637 397.405 131.109C395.914 137.388 393.915 143.535 391.428 149.49C391.243 149.954 391.048 150.421 390.85 150.878C384.705 165.161 375.963 178.179 365.067 189.27C360.727 193.68 356.058 197.753 351.1 201.454C344.253 206.564 336.422 211.561 331.799 218.433C331.309 219.145 330.863 219.886 330.464 220.653L345.52 262.111C345.601 262.188 345.674 262.269 345.755 262.347L346.281 264.03C346.55 263.857 346.825 263.671 347.094 263.498C347.25 263.399 347.404 263.29 347.56 263.19C347.663 263.121 347.766 263.051 347.864 262.994C347.898 262.971 347.932 262.948 347.957 262.928C348.055 262.871 348.139 262.808 348.226 262.755C349.768 261.724 351.305 260.68 352.838 259.624C352.847 259.62 352.847 259.62 352.853 259.608C364.51 251.529 375.595 242.406 384.943 231.89C385.225 231.573 385.515 231.254 385.79 230.919C389.977 226.155 393.768 221.057 397.125 215.676C398.954 212.724 400.632 209.68 402.153 206.558C406.068 198.483 408.688 189.843 409.918 180.953C412.368 163.232 409.124 144.925 398.558 130.775C398.288 130.413 398.02 130.06 397.74 129.702Z" fill="#F0F0F0"/>
<path d="M397.248 129.986C400.617 151.887 397.012 175.005 386.783 194.697C384.571 198.954 381.958 203.08 378.518 206.458C375.141 209.724 370.95 212.026 366.382 213.125C362.143 214.235 357.679 214.88 353.783 217.001C349.678 219.237 347.06 223.108 345.957 227.601C344.607 233.098 345.313 238.752 346.195 244.258C347.174 250.371 348.288 256.704 346.451 262.77C346.228 263.505 347.382 263.808 347.604 263.074C350.8 252.52 345.459 241.873 346.546 231.203C347.053 226.225 349.063 221.368 353.421 218.597C357.232 216.174 361.835 215.506 366.137 214.419C370.654 213.278 374.732 211.456 378.247 208.342C381.842 205.157 384.622 201.124 386.933 196.942C392.101 187.42 395.741 177.143 397.718 166.49C400.042 154.344 400.272 141.89 398.397 129.667C398.28 128.91 397.133 129.235 397.248 129.986Z" fill="white"/>
<path d="M390.445 188.471C394.021 189.729 397.928 189.674 401.468 188.317C405.008 186.96 407.95 184.388 409.769 181.062C410.134 180.387 409.104 179.787 408.738 180.463C407.05 183.563 404.309 185.959 401.01 187.216C397.711 188.473 394.072 188.509 390.749 187.318C390.026 187.06 389.727 188.215 390.445 188.471Z" fill="white"/>
<path d="M368.605 212.845C365.191 205.887 364.525 197.898 366.739 190.47C366.959 189.734 365.806 189.432 365.586 190.167C363.296 197.9 364.007 206.213 367.575 213.446C367.916 214.135 368.944 213.531 368.605 212.845Z" fill="white"/>
<path d="M398.499 154.689C397.014 154.49 395.602 153.926 394.388 153.047C393.175 152.168 392.199 151.001 391.548 149.651C391.217 148.958 390.189 149.563 390.518 150.252C391.245 151.74 392.324 153.027 393.662 154.001C395.001 154.976 396.557 155.608 398.196 155.842C398.349 155.877 398.509 155.852 398.644 155.773C398.779 155.694 398.879 155.567 398.924 155.417C398.964 155.264 398.941 155.102 398.861 154.965C398.782 154.829 398.652 154.73 398.499 154.689Z" fill="white"/>
<path d="M136.953 55.0645C116.316 37.5738 86.1642 29.3817 61.4137 40.2958C87.5542 53.787 108.081 76.0913 119.362 103.262C123.675 113.757 127.38 125.879 137.365 131.263C143.578 134.614 151.18 134.555 157.974 132.639C164.768 130.723 170.938 127.11 177.024 123.533L178.784 123.439C170.091 97.8203 157.589 72.5551 136.953 55.0645Z" fill="#F0F0F0"/>
<path d="M61.5706 40.8414C83.6186 43.0042 105.118 52.2259 121.658 67.0169C125.234 70.2146 128.583 73.7698 131.002 77.9394C133.329 82.0218 134.521 86.653 134.453 91.3517C134.478 95.7341 133.996 100.22 135.086 104.52C136.234 109.052 139.336 112.548 143.414 114.73C148.404 117.4 154.056 118.118 159.608 118.627C165.771 119.193 172.182 119.683 177.603 122.966C178.26 123.364 178.838 122.321 178.183 121.924C168.752 116.212 157.116 118.75 147.049 115.052C142.352 113.327 138.147 110.176 136.543 105.266C135.14 100.973 135.633 96.3472 135.646 91.9097C135.66 87.2503 134.905 82.8465 132.76 78.6696C130.566 74.3968 127.349 70.7032 123.87 67.428C115.927 60.06 106.875 53.9869 97.046 49.4312C85.8567 44.1696 73.8501 40.8612 61.5454 39.6491C60.7838 39.5744 60.8139 40.7673 61.5706 40.8414Z" fill="white"/>
<path d="M116.536 61.9255C118.64 58.7719 119.555 54.9727 119.118 51.2065C118.68 47.4402 116.918 43.9522 114.147 41.3653C113.584 40.8438 112.747 41.6937 113.311 42.2159C115.896 44.6201 117.537 47.8693 117.937 51.3773C118.337 54.8852 117.471 58.4207 115.494 61.3457C115.065 61.9819 116.109 62.558 116.536 61.9255Z" fill="white"/>
<path d="M134.733 89.1279C127.148 90.7118 119.244 89.3778 112.597 85.392C111.939 84.9965 111.36 86.0389 112.018 86.4339C118.942 90.5688 127.17 91.9403 135.06 90.2746C135.812 90.1154 135.481 88.9695 134.733 89.1279Z" fill="white"/>
<path d="M85.8079 45.7498C85.2478 47.1397 84.3514 48.3688 83.199 49.3265C82.0467 50.2843 80.6746 50.9408 79.2059 51.2371C78.4523 51.3868 78.7839 52.5325 79.5326 52.3839C81.1537 52.0489 82.6682 51.322 83.9437 50.2667C85.2192 49.2113 86.2169 47.8596 86.8496 46.3296C86.9213 46.1904 86.9374 46.0291 86.8945 45.8785C86.8516 45.7279 86.7529 45.5992 86.6186 45.5187C86.4803 45.4427 86.3176 45.4243 86.1657 45.4675C86.0139 45.5108 85.8853 45.6122 85.8079 45.7498Z" fill="white"/>
<path d="M36.4776 128.436C36.9508 128.356 37.4241 128.276 37.9045 128.203C44.2721 127.159 50.714 126.635 57.1666 126.635C57.6655 126.627 58.1712 126.626 58.6693 126.633C74.215 126.798 89.5948 129.849 104.027 135.63C109.768 137.936 115.325 140.675 120.65 143.824C128.004 148.173 135.632 153.474 143.754 155.092C144.6 155.27 145.456 155.396 146.317 155.468L178.762 125.594C178.801 125.489 178.848 125.391 178.888 125.286L180.238 124.152C179.975 123.971 179.698 123.788 179.435 123.606C179.282 123.5 179.123 123.401 178.97 123.295C178.867 123.227 178.762 123.158 178.673 123.091C178.638 123.068 178.603 123.045 178.576 123.029C178.486 122.962 178.395 122.908 178.312 122.848C176.767 121.822 175.211 120.806 173.646 119.799C173.639 119.791 173.639 119.791 173.625 119.791C161.679 112.146 148.99 105.433 135.685 100.858C135.285 100.721 134.878 100.576 134.463 100.452C128.454 98.4234 122.29 96.8895 116.031 95.8654C112.602 95.3157 109.148 94.94 105.681 94.7396C96.7229 94.2392 87.7414 95.1512 79.0662 97.4423C61.7731 102.012 46.1337 112.063 37.1524 127.267C36.923 127.657 36.7003 128.039 36.4776 128.436Z" fill="#F0F0F0"/>
<path d="M36.9297 128.781C55.8356 117.231 78.5532 111.647 100.663 113.497C105.443 113.897 110.257 114.719 114.699 116.591C119.014 118.449 122.753 121.429 125.528 125.222C128.186 128.706 130.501 132.578 133.959 135.355C137.605 138.282 142.185 139.206 146.755 138.492C152.347 137.619 157.291 134.789 162.031 131.853C167.293 128.593 172.706 125.123 179.011 124.481C179.775 124.403 179.609 123.222 178.846 123.3C167.878 124.418 160.115 133.451 149.852 136.56C145.063 138.011 139.808 138.028 135.572 135.074C131.868 132.491 129.477 128.5 126.816 124.949C124.022 121.221 120.769 118.159 116.542 116.116C112.218 114.025 107.425 113.014 102.677 112.493C91.8991 111.393 81.0159 111.995 70.4254 114.277C58.3242 116.813 46.746 121.402 36.1918 127.844C35.5387 128.243 36.2809 129.177 36.9297 128.781Z" fill="white"/>
<path d="M93.5078 112.516C93.2898 108.731 91.7335 105.147 89.117 102.403C86.5005 99.6594 82.9941 97.9354 79.224 97.5388C78.4609 97.4612 78.3044 98.6436 79.0685 98.7213C82.5799 99.0841 85.846 100.69 88.2773 103.25C90.7086 105.81 92.1449 109.155 92.327 112.681C92.3675 113.447 93.5481 113.278 93.5078 112.516Z" fill="white"/>
<path d="M124.413 123.278C119.309 129.111 112.195 132.805 104.489 133.625C103.726 133.705 103.891 134.886 104.654 134.806C112.671 133.938 120.066 130.078 125.364 123.997C125.868 123.417 124.914 122.701 124.413 123.278Z" fill="white"/>
<path d="M59.2365 118.105C59.626 119.552 59.6501 121.073 59.3066 122.531C58.963 123.99 58.2626 125.34 57.2683 126.461C56.7567 127.035 57.7112 127.75 58.2195 127.18C59.3123 125.937 60.0839 124.444 60.4671 122.834C60.8502 121.223 60.8331 119.543 60.4173 117.94C60.3908 117.786 60.3065 117.647 60.1815 117.553C60.0566 117.459 59.9004 117.415 59.7447 117.432C59.5885 117.454 59.4475 117.538 59.3523 117.664C59.2572 117.79 59.2155 117.948 59.2365 118.105Z" fill="white"/>
<path d="M356.201 159.755C356.115 158.249 355.499 156.822 354.462 155.727C353.425 154.632 352.033 153.939 350.534 153.772L258.304 143.364C257.42 143.263 256.524 143.348 255.674 143.614L234.517 150.239L222.377 154.045L199.974 161.059C198.622 161.484 197.449 162.346 196.639 163.509C195.829 164.673 195.428 166.073 195.5 167.489L199.281 257.395C199.362 258.856 199.938 260.246 200.915 261.336C201.892 262.425 203.211 263.148 204.655 263.387L298.826 263.592C299.268 263.664 299.717 263.688 300.164 263.663C300.816 263.632 301.459 263.5 302.071 263.274L357.255 262.892C358.541 262.419 359.64 261.543 360.389 260.395C361.138 259.248 361.497 257.889 361.413 256.521L356.201 159.755Z" fill="white"/>
<path d="M205.543 257.858L299.714 258.062C299.851 258.085 299.993 258.072 300.124 258.024L355.301 257.645C355.462 257.587 355.601 257.478 355.695 257.334C355.789 257.189 355.834 257.019 355.822 256.847L350.617 160.079C350.604 159.891 350.526 159.714 350.397 159.578C350.268 159.441 350.096 159.354 349.91 159.331L349.289 159.258L257.675 148.929C257.633 148.924 257.591 148.923 257.549 148.926C257.48 148.928 257.412 148.939 257.345 148.958L205.741 165.121L201.646 166.401C201.478 166.455 201.333 166.563 201.232 166.708C201.132 166.853 201.081 167.027 201.089 167.203L204.872 257.106C204.881 257.29 204.953 257.464 205.075 257.601C205.197 257.738 205.362 257.828 205.543 257.858Z" fill="#EA580C"/>
<path d="M205.741 165.121L257.345 148.958C257.412 148.939 257.48 148.928 257.549 148.926C257.591 148.923 257.633 148.924 257.675 148.929L349.289 159.258L327.225 166.439L318.967 169.122L295.47 176.764C295.4 176.783 295.33 176.797 295.258 176.806C295.213 176.803 295.167 176.799 295.113 176.796L205.741 165.121Z" fill="#2F2E41"/>
<path d="M204.654 263.392L298.825 263.595C299.268 263.666 299.717 263.687 300.165 263.658C300.817 263.629 301.462 263.5 302.076 263.277L357.252 262.899C358.539 262.424 359.638 261.547 360.387 260.399C361.137 259.25 361.496 257.891 361.414 256.522L356.2 159.755C356.134 158.622 355.769 157.526 355.143 156.579C355.057 156.454 354.97 156.329 354.876 156.213C354.228 155.365 353.373 154.697 352.393 154.272C351.803 154.013 351.176 153.845 350.535 153.773L350.425 153.759L258.309 143.362C257.933 143.325 257.556 143.314 257.179 143.329C256.667 143.364 256.161 143.461 255.672 143.619L234.516 150.236L222.38 154.048L199.972 161.061C199.055 161.347 198.215 161.837 197.515 162.495C197.46 162.539 197.408 162.587 197.361 162.639C197.326 162.674 197.295 162.71 197.265 162.749C196.665 163.377 196.2 164.12 195.896 164.934C195.593 165.748 195.458 166.615 195.501 167.482L199.276 257.395C199.357 258.857 199.934 260.248 200.912 261.339C201.889 262.429 203.209 263.153 204.654 263.392ZM197.095 167.408C197.052 166.508 197.266 165.615 197.711 164.833C197.843 164.584 198 164.348 198.18 164.131C198.669 163.528 199.298 163.054 200.012 162.75C200.153 162.689 200.297 162.636 200.445 162.593L238.172 150.782L256.152 145.14C256.274 145.099 256.388 145.077 256.502 145.046C256.778 144.981 257.06 144.943 257.344 144.932C257.603 144.911 257.863 144.917 258.121 144.951L350.347 155.362C350.421 155.372 350.485 155.382 350.558 155.392C351.403 155.517 352.197 155.872 352.855 156.417C353.371 156.832 353.794 157.352 354.095 157.941C354.397 158.531 354.571 159.177 354.606 159.838L359.812 256.616C359.875 257.64 359.606 258.658 359.046 259.519C358.486 260.379 357.664 261.037 356.702 261.394L301.516 261.774C300.736 262.06 299.896 262.141 299.075 262.008L204.906 261.814C203.825 261.632 202.837 261.089 202.106 260.272C201.374 259.456 200.942 258.414 200.88 257.32L197.095 167.408Z" fill="#3F3D56"/>
<path d="M300.45 263.836C300.24 263.847 300.033 263.774 299.876 263.633C299.719 263.492 299.624 263.295 299.612 263.085L294.421 176.051C294.409 175.839 294.481 175.631 294.622 175.472C294.763 175.314 294.961 175.217 295.172 175.205L295.18 175.204C295.39 175.194 295.596 175.267 295.753 175.407C295.91 175.548 296.006 175.745 296.018 175.956L301.208 262.99C301.221 263.201 301.149 263.409 301.008 263.568C300.867 263.727 300.669 263.823 300.457 263.836L300.45 263.836Z" fill="#3F3D56"/>
<path d="M333.007 257.949L323.972 257.887L315.399 168.599C315.399 168.599 326.252 164.16 326.727 164.915C327.017 165.365 332.974 257.395 333.007 257.949Z" fill="#3F3D56"/>
<path d="M353.324 157.179L352.672 156.645C352 156.093 351.182 155.748 350.318 155.654L258.093 145.243C257.584 145.187 257.069 145.216 256.57 145.327L256.224 145.413L256.155 144.033L271.449 127.11C272.36 126.107 273.49 125.328 274.751 124.833C276.013 124.338 277.371 124.141 278.721 124.257L341.068 129.774C342.931 129.933 344.693 130.686 346.096 131.922C347.498 133.158 348.466 134.812 348.858 136.641L353.324 157.179Z" fill="#3F3D56"/>
<path d="M213.928 225.274C214.026 225.259 214.126 225.254 214.226 225.26L242.611 226.98C242.966 227.002 243.298 227.163 243.535 227.43C243.771 227.696 243.891 228.046 243.87 228.401C243.848 228.757 243.687 229.089 243.42 229.325C243.154 229.561 242.804 229.682 242.449 229.66L214.064 227.94C213.734 227.92 213.424 227.779 213.192 227.544C212.959 227.31 212.821 226.998 212.805 226.668C212.788 226.338 212.893 226.014 213.1 225.757C213.308 225.5 213.602 225.328 213.928 225.274Z" fill="white"/>
<path d="M214.404 235.248C214.502 235.232 214.602 235.227 214.701 235.233L243.087 236.954C243.442 236.975 243.774 237.137 244.01 237.403C244.246 237.67 244.367 238.019 244.346 238.375C244.324 238.73 244.162 239.062 243.896 239.299C243.629 239.535 243.28 239.655 242.925 239.634L214.54 237.913C214.21 237.893 213.9 237.752 213.667 237.518C213.435 237.283 213.297 236.971 213.28 236.641C213.264 236.312 213.369 235.987 213.576 235.73C213.783 235.473 214.078 235.301 214.404 235.248Z" fill="white"/>
<path d="M350.17 116.16L295.417 145.977L272.922 104.653L327.675 74.8364L350.17 116.16Z" fill="white"/>
<path d="M350.17 116.16L295.417 145.977L272.922 104.653L327.675 74.8364L350.17 116.16ZM295.876 144.421L348.614 115.702L327.216 76.3921L274.477 105.112L295.876 144.421Z" fill="#E6E6E6"/>
<path d="M326.579 90.0242L286.27 111.975L287.733 114.663L328.042 92.712L326.579 90.0242Z" fill="#EA580C"/>
<path d="M330.968 98.0872L290.659 120.038L292.122 122.726L332.432 100.775L330.968 98.0872Z" fill="#EA580C"/>
<path d="M335.358 106.151L295.048 128.102L296.512 130.789L336.821 108.838L335.358 106.151Z" fill="#EA580C"/>
<path d="M225.4 79.7446C224.834 79.1107 224.641 79.0461 224.441 79.1846L193.282 100.686C193.084 100.823 193.072 101.026 193.458 101.771C194.476 103.348 195.721 105.209 197.083 107.184L237.172 165.299C240.93 170.746 244.195 175.035 244.449 174.859L275.607 153.358C275.862 153.182 273.012 148.607 269.254 143.16L229.165 85.0451C227.806 83.0747 226.511 81.2543 225.4 79.7446Z" fill="white"/>
<path d="M229.551 85.1841C228.842 84.1907 228.168 83.2697 227.565 82.4671C226.839 81.5056 226.244 80.7435 225.792 80.1987C225.643 80.0213 225.516 79.8692 225.4 79.7446C224.834 79.1107 224.641 79.0461 224.441 79.1846L193.282 100.686C193.084 100.823 193.072 101.026 193.458 101.771C193.537 101.924 193.634 102.104 193.75 102.31C194.098 102.923 194.599 103.75 195.242 104.772C196.317 106.474 197.731 108.601 199.223 110.764L237.292 165.95C239.021 168.456 240.697 170.781 242.011 172.5C244.199 175.361 244.36 175.25 244.603 175.082L275.761 153.581C276.004 153.413 276.165 153.302 274.267 150.241C273.127 148.402 271.549 146.009 269.821 143.503L231.751 88.3166C231.005 87.2343 230.26 86.1738 229.551 85.1841ZM199.669 110.456C198.182 108.3 196.771 106.178 195.702 104.485C195.061 103.471 194.566 102.647 194.224 102.042C194.031 101.722 193.863 101.389 193.72 101.043L224.619 79.7203C224.891 79.9764 225.143 80.2526 225.374 80.5467C225.598 80.8139 225.857 81.1357 226.152 81.512C226.445 81.8894 226.772 82.3171 227.132 82.7951C228.335 84.3958 229.816 86.4666 231.305 88.6246L269.374 143.811C272.987 149.049 275.069 152.501 275.326 153.222L244.422 174.548C243.839 174.051 241.352 170.88 237.739 165.642L199.669 110.456Z" fill="#E4E4E4"/>
<path d="M218.738 97.6193L212.839 101.69C212.543 101.894 212.341 102.208 212.276 102.561C212.211 102.915 212.289 103.28 212.493 103.576L216.018 108.686C216.223 108.982 216.536 109.184 216.89 109.249C217.243 109.314 217.608 109.236 217.904 109.032L223.803 104.961C224.098 104.756 224.3 104.443 224.365 104.09C224.429 103.736 224.352 103.372 224.149 103.076L220.623 97.9652C220.419 97.6698 220.106 97.4675 219.752 97.4027C219.399 97.3378 219.034 97.4157 218.738 97.6193Z" fill="#EA580C"/>
<path d="M233.435 103.242L212.875 117.43C212.808 117.476 212.752 117.535 212.708 117.602C212.664 117.67 212.634 117.746 212.619 117.826C212.605 117.905 212.606 117.987 212.623 118.066C212.64 118.145 212.672 118.22 212.718 118.286C212.764 118.353 212.822 118.41 212.89 118.453C212.958 118.497 213.034 118.527 213.113 118.542C213.193 118.557 213.274 118.555 213.353 118.538C213.432 118.521 213.507 118.489 213.574 118.443L234.134 104.255C234.2 104.209 234.257 104.151 234.301 104.083C234.345 104.015 234.375 103.939 234.39 103.86C234.404 103.78 234.403 103.698 234.386 103.619C234.369 103.54 234.337 103.466 234.291 103.399C234.245 103.332 234.187 103.276 234.119 103.232C234.051 103.188 233.975 103.158 233.896 103.143C233.816 103.129 233.735 103.13 233.656 103.147C233.577 103.164 233.502 103.196 233.435 103.242Z" fill="#E4E4E4"/>
<path d="M222.322 114.416L214.513 119.804C214.446 119.85 214.389 119.909 214.346 119.977C214.302 120.045 214.272 120.12 214.257 120.2C214.242 120.279 214.244 120.361 214.261 120.44C214.278 120.519 214.31 120.594 214.356 120.66C214.402 120.727 214.46 120.784 214.528 120.828C214.596 120.872 214.672 120.902 214.751 120.916C214.831 120.931 214.912 120.93 214.991 120.913C215.07 120.896 215.145 120.863 215.212 120.818L223.021 115.429C223.155 115.336 223.247 115.194 223.277 115.033C223.306 114.873 223.271 114.707 223.178 114.573C223.085 114.438 222.943 114.346 222.782 114.317C222.622 114.287 222.456 114.323 222.322 114.416Z" fill="#E4E4E4"/>
<path d="M233.978 119.712L228.079 123.783C227.783 123.987 227.581 124.3 227.516 124.654C227.451 125.008 227.529 125.372 227.733 125.668L231.258 130.779C231.463 131.074 231.776 131.276 232.13 131.341C232.483 131.406 232.848 131.328 233.144 131.125L239.043 127.054C239.338 126.849 239.54 126.536 239.605 126.182C239.669 125.829 239.592 125.464 239.389 125.168L235.864 120.058C235.659 119.762 235.346 119.56 234.992 119.495C234.639 119.43 234.274 119.508 233.978 119.712Z" fill="#EA580C"/>
<path d="M248.675 125.334L228.115 139.523C227.981 139.615 227.889 139.758 227.859 139.918C227.83 140.079 227.865 140.244 227.958 140.379C228.051 140.513 228.193 140.605 228.353 140.635C228.514 140.664 228.68 140.628 228.814 140.536L249.374 126.348C249.441 126.302 249.497 126.243 249.541 126.175C249.585 126.107 249.615 126.032 249.63 125.952C249.644 125.873 249.643 125.791 249.626 125.712C249.609 125.633 249.577 125.558 249.531 125.492C249.485 125.425 249.427 125.368 249.359 125.324C249.291 125.28 249.215 125.25 249.136 125.236C249.056 125.221 248.975 125.222 248.896 125.239C248.817 125.256 248.742 125.289 248.675 125.334Z" fill="#E4E4E4"/>
<path d="M237.562 136.508L229.753 141.897C229.619 141.99 229.527 142.132 229.497 142.292C229.468 142.453 229.503 142.619 229.596 142.753C229.689 142.887 229.831 142.979 229.991 143.009C230.152 143.038 230.318 143.003 230.452 142.91L238.261 137.521C238.327 137.475 238.384 137.417 238.428 137.349C238.472 137.281 238.502 137.205 238.517 137.126C238.531 137.046 238.53 136.965 238.513 136.886C238.496 136.807 238.464 136.732 238.418 136.665C238.372 136.599 238.314 136.542 238.246 136.498C238.178 136.454 238.102 136.424 238.023 136.409C237.943 136.395 237.861 136.396 237.782 136.413C237.703 136.43 237.629 136.462 237.562 136.508Z" fill="#E4E4E4"/>
<path d="M249.218 141.804L243.319 145.875C243.023 146.08 242.821 146.393 242.756 146.746C242.691 147.1 242.769 147.465 242.973 147.761L246.499 152.871C246.703 153.167 247.016 153.369 247.37 153.434C247.723 153.499 248.088 153.421 248.384 153.217L254.283 149.146C254.578 148.941 254.78 148.628 254.845 148.275C254.91 147.921 254.832 147.557 254.629 147.261L251.104 142.15C250.899 141.855 250.586 141.653 250.232 141.588C249.879 141.523 249.514 141.601 249.218 141.804Z" fill="#EA580C"/>
<path d="M263.915 147.427L243.355 161.615C243.289 161.661 243.232 161.72 243.188 161.787C243.144 161.855 243.114 161.931 243.099 162.011C243.085 162.09 243.086 162.172 243.103 162.251C243.12 162.33 243.152 162.405 243.198 162.471C243.244 162.538 243.302 162.595 243.37 162.638C243.438 162.682 243.514 162.712 243.593 162.727C243.673 162.742 243.755 162.74 243.834 162.724C243.913 162.707 243.987 162.674 244.054 162.628L264.614 148.44C264.749 148.347 264.841 148.205 264.87 148.045C264.899 147.884 264.864 147.718 264.771 147.584C264.679 147.45 264.536 147.358 264.376 147.328C264.215 147.299 264.05 147.334 263.915 147.427Z" fill="#E4E4E4"/>
<path d="M252.802 158.601L244.993 163.989C244.926 164.035 244.87 164.094 244.826 164.162C244.782 164.23 244.752 164.305 244.737 164.385C244.723 164.464 244.724 164.546 244.741 164.625C244.758 164.704 244.79 164.779 244.836 164.846C244.882 164.912 244.94 164.969 245.008 165.013C245.076 165.057 245.152 165.087 245.231 165.101C245.311 165.116 245.392 165.115 245.471 165.098C245.55 165.081 245.625 165.049 245.692 165.003L253.501 159.614C253.635 159.521 253.727 159.379 253.757 159.218C253.786 159.058 253.751 158.892 253.658 158.758C253.565 158.623 253.423 158.531 253.263 158.502C253.102 158.472 252.936 158.508 252.802 158.601Z" fill="#E4E4E4"/>
<path d="M318.204 105.687C318.081 102.662 317.893 100.712 317.676 100.712H238.165C237.948 100.712 237.76 102.662 237.637 105.687C237.554 107.796 237.501 110.427 237.501 113.276V168.685L237.824 168.726L250.896 170.429L264.52 172.215L270.744 173.025L284.057 174.764L295.114 176.208C295.167 176.214 295.214 176.214 295.261 176.22C295.332 176.208 295.402 176.197 295.467 176.179L299.818 174.764L304.839 173.131L318.016 168.843L318.339 168.738V113.276C318.339 110.427 318.286 107.796 318.204 105.687Z" fill="white"/>
<path d="M318.468 104.377C318.427 103.59 318.386 102.956 318.339 102.451C318.306 101.923 318.232 101.399 318.116 100.883C317.987 100.389 317.84 100.389 317.676 100.389H238.165C238.001 100.389 237.854 100.389 237.725 100.883C237.611 101.425 237.536 101.974 237.501 102.527C237.46 103.021 237.419 103.631 237.378 104.377C237.249 106.756 237.178 109.916 237.178 113.276V168.638L237.501 168.685L237.824 168.726V113.276C237.824 110.351 237.877 107.872 237.954 105.916C237.968 104.28 238.099 102.647 238.347 101.03H317.5C317.747 102.645 317.879 104.276 317.893 105.91C317.963 107.866 318.016 110.345 318.016 113.276V168.843L318.662 168.632V113.276C318.662 109.916 318.592 106.756 318.468 104.377Z" fill="#E4E4E4"/>
<path d="M262.6 117.604H252.458C252.206 117.603 251.957 117.653 251.724 117.748C251.491 117.844 251.28 117.985 251.101 118.163C250.923 118.341 250.781 118.552 250.685 118.785C250.588 119.017 250.538 119.267 250.538 119.519V128.305C250.538 128.558 250.587 128.807 250.683 129.041C250.78 129.274 250.921 129.486 251.099 129.664C251.278 129.843 251.49 129.984 251.723 130.08C251.956 130.177 252.206 130.226 252.458 130.226H262.6C263.109 130.226 263.597 130.023 263.957 129.663C264.317 129.303 264.52 128.815 264.52 128.305V119.519C264.518 119.01 264.315 118.523 263.956 118.164C263.596 117.805 263.108 117.604 262.6 117.604Z" fill="#EA580C"/>
<path d="M304.434 121.005H269.083C268.852 121.005 268.631 121.096 268.468 121.259C268.305 121.423 268.214 121.644 268.214 121.874C268.214 122.105 268.305 122.326 268.468 122.489C268.631 122.652 268.852 122.743 269.083 122.743H304.434C304.664 122.743 304.885 122.652 305.048 122.489C305.211 122.326 305.303 122.105 305.303 121.874C305.303 121.644 305.211 121.423 305.048 121.259C304.885 121.096 304.664 121.005 304.434 121.005Z" fill="#E4E4E4"/>
<path d="M282.507 125.087H269.083C268.852 125.087 268.631 125.178 268.468 125.341C268.305 125.504 268.214 125.725 268.214 125.956C268.214 126.186 268.305 126.408 268.468 126.571C268.631 126.734 268.852 126.825 269.083 126.825H282.507C282.737 126.825 282.958 126.734 283.121 126.571C283.284 126.408 283.376 126.186 283.376 125.956C283.376 125.725 283.284 125.504 283.121 125.341C282.958 125.178 282.737 125.087 282.507 125.087Z" fill="#E4E4E4"/>
<path d="M262.6 143.611H252.458C251.949 143.612 251.461 143.814 251.101 144.174C250.741 144.534 250.538 145.023 250.538 145.532V154.318C250.538 154.828 250.741 155.316 251.101 155.676C251.461 156.036 251.949 156.239 252.458 156.239H262.6C263.109 156.238 263.596 156.035 263.956 155.675C264.316 155.315 264.519 154.827 264.52 154.318V145.532C264.519 145.023 264.316 144.535 263.956 144.175C263.596 143.815 263.108 143.613 262.6 143.611Z" fill="#EA580C"/>
<path d="M304.434 147.012H269.083C268.851 147.012 268.629 147.104 268.466 147.267C268.302 147.431 268.211 147.653 268.211 147.884C268.211 148.115 268.302 148.337 268.466 148.501C268.629 148.664 268.851 148.756 269.083 148.756H304.434C304.665 148.756 304.887 148.664 305.05 148.501C305.214 148.337 305.306 148.115 305.306 147.884C305.306 147.653 305.214 147.431 305.05 147.267C304.887 147.104 304.665 147.012 304.434 147.012Z" fill="#E4E4E4"/>
<path d="M282.507 151.094H269.083C268.851 151.094 268.629 151.186 268.466 151.349C268.302 151.513 268.211 151.735 268.211 151.966C268.211 152.198 268.302 152.419 268.466 152.583C268.629 152.746 268.851 152.838 269.083 152.838H282.507C282.738 152.838 282.96 152.746 283.123 152.583C283.287 152.419 283.379 152.198 283.379 151.966C283.379 151.735 283.287 151.513 283.123 151.349C282.96 151.186 282.738 151.094 282.507 151.094Z" fill="#E4E4E4"/>
<path d="M264.244 170.558C264.074 170.273 263.834 170.037 263.545 169.873C263.257 169.71 262.931 169.624 262.6 169.624H252.458C252.152 169.624 251.851 169.696 251.579 169.836C251.307 169.976 251.073 170.18 250.896 170.429L264.52 172.214V171.539C264.52 171.193 264.425 170.853 264.244 170.558Z" fill="#EA580C"/>
<path d="M304.434 173.025H270.744L284.057 174.763H299.818L304.839 173.131C304.716 173.06 304.576 173.023 304.434 173.025Z" fill="#E4E4E4"/>
<path d="M353.966 157.707C353.902 157.749 353.833 157.782 353.761 157.807L350.842 158.753L327.224 166.441L318.968 169.119L318.662 169.219L318.016 169.431L304.839 173.718L299.818 175.351L295.467 176.766C295.402 176.784 295.332 176.796 295.261 176.807C295.214 176.802 295.167 176.802 295.114 176.796L284.057 175.351L270.744 173.612L264.52 172.802L250.896 171.016L237.824 169.313L237.501 169.272L237.178 169.225L198.181 164.133L197.852 164.086C197.776 164.079 197.702 164.057 197.635 164.021C197.477 163.951 197.347 163.831 197.263 163.681C197.178 163.531 197.144 163.358 197.165 163.187C197.18 163.044 197.235 162.908 197.323 162.794C197.359 162.758 197.388 162.723 197.423 162.694C197.452 162.676 197.488 162.641 197.523 162.623C197.681 162.515 197.873 162.469 198.063 162.494L200.013 162.753L237.178 167.61L237.501 167.651L237.824 167.692L257.08 170.212L264.244 171.146L283.1 173.612L295.144 175.186L299.988 173.612L315.397 168.602L318.016 167.751L318.339 167.645L318.662 167.539L326.725 164.92L350.707 157.114L352.857 156.415L353.273 156.28C353.453 156.223 353.647 156.232 353.821 156.304C353.995 156.376 354.138 156.507 354.225 156.674C354.246 156.713 354.264 156.754 354.278 156.797C354.33 156.962 354.328 157.14 354.272 157.304C354.216 157.467 354.109 157.609 353.966 157.707Z" fill="#3F3D56"/>
<path d="M272.875 212.941C272.359 212.941 271.844 212.901 271.335 212.822L212.374 203.612C210.35 203.289 208.471 202.359 206.987 200.944C205.503 199.53 204.483 197.698 204.063 195.691L197.483 163.746L197.888 163.795L296.453 175.712L282.042 207.075C281.231 208.824 279.938 210.306 278.314 211.345C276.69 212.384 274.803 212.938 272.875 212.941Z" fill="#3F3D56"/>
<path d="M170.529 249.951L177.709 248.453L175.352 220.041L164.755 222.251L170.529 249.951Z" fill="#9E616A"/>
<path d="M167.357 246.914L169.503 264.357L169.507 264.393L169.675 264.357L174.604 263.328L174.511 258.328L177.841 262.657L181.029 261.994V261.99L187.468 260.647L187.989 260.541L189.977 260.126L191.355 259.839C191.87 259.73 192.35 259.492 192.749 259.146C193.147 258.801 193.451 258.36 193.632 257.865C193.813 257.37 193.865 256.837 193.784 256.316C193.702 255.795 193.489 255.303 193.165 254.887C192.917 254.572 192.611 254.307 192.264 254.105C192.22 254.083 192.176 254.057 192.132 254.035H192.127C192.061 253.999 191.995 253.968 191.924 253.938L191.805 253.884L189.698 252.997L189.69 252.992L184.129 250.651L179.581 248.734L178.569 243.871L177.355 244.202L169.759 246.261L167.357 246.914Z" fill="#2F2E41"/>
<path d="M121.183 226.754L126.759 231.52L147.791 212.277L139.562 205.243L121.183 226.754Z" fill="#9E616A"/>
<path d="M113.09 238.163L116.989 235.029L115.606 240.31L126.099 249.279C126.405 249.543 126.761 249.744 127.146 249.869C127.436 249.963 127.738 250.014 128.043 250.021C128.524 250.032 129.002 249.932 129.438 249.727C129.873 249.523 130.256 249.219 130.554 248.841C130.852 248.463 131.058 248.021 131.156 247.549C131.254 247.078 131.241 246.59 131.118 246.125L127.682 233.173L130.911 229.397L129.906 228.64L123.63 223.889L121.644 222.387L109.135 234.778L113.09 238.163Z" fill="#2F2E41"/>
<path d="M149.388 113.305L183.955 111.975L185.256 76.8958L156.047 77.8337L149.388 113.305Z" fill="#9E616A"/>
<path d="M175.234 35.0529C182.504 35.0529 188.398 29.1581 188.398 21.8865C188.398 14.6148 182.504 8.71997 175.234 8.71997C167.963 8.71997 162.069 14.6148 162.069 21.8865C162.069 29.1581 167.963 35.0529 175.234 35.0529Z" fill="#9E616A"/>
<path d="M163.872 10.3231L179.03 2.73218C182.128 4.12881 184.797 6.32919 186.759 9.10512C188.721 11.881 189.905 15.1314 190.188 18.5191L190.566 23.0453L184.219 21.4293L183.523 15.6417L182.445 20.9779L179.516 20.2325L179.544 11.2472L176.613 20.2261L166.151 17.8221L163.872 10.3231Z" fill="#2F2E41"/>
<path d="M184.62 103.997C184.62 103.997 196.137 124.018 185.018 154.394L169.295 194.495L141.975 222.147L127.293 213.466L154.591 190.318L142.417 149.043C139.614 139.689 138.75 129.861 139.877 120.161C140.755 112.903 147.304 107.24 151.784 100.389C166.744 110.04 183.974 108.488 184.62 103.997Z" fill="#2F2E41"/>
<path d="M169.314 184.354L179.564 231.979L164.736 234.775L156.292 194.74L169.314 184.354Z" fill="#2F2E41"/>
<path d="M165.586 39.4556L182.606 39.6825L188.145 46.7176C190.791 47.3416 193.194 48.7296 195.058 50.709C196.921 52.6884 198.161 55.1719 198.625 57.8508L199.148 60.8711C200.229 67.1197 199.081 73.5496 195.905 79.0379L185.514 88.8475L185.965 89.6665C186.187 90.0713 186.253 90.5441 186.148 90.9942C186.044 91.4443 185.777 91.84 185.399 92.1055C185.718 92.91 185.755 93.7988 185.505 94.6271L185.285 95.3531C185.285 95.3531 191.11 96.9019 155.17 91.5662C154.409 91.4527 153.705 91.0943 153.165 90.5451C152.625 89.9959 152.279 89.2857 152.179 88.5222C151.788 88.1292 151.531 87.6236 151.443 87.0765C151.355 86.5295 151.441 85.9686 151.689 85.4731L151.762 85.3266L151.393 84.8919C150.982 84.4082 150.745 83.801 150.719 83.167C150.693 82.5329 150.88 81.9083 151.249 81.3924L151.155 60.7934C150.723 57.7023 151.403 54.5583 153.073 51.9222C154.744 49.2861 157.297 47.3295 160.276 46.4014L165.586 39.4556Z" fill="#E6E6E6"/>
<path d="M213.999 127.518C213.99 126.708 213.804 125.911 213.454 125.181C213.103 124.451 212.597 123.806 211.971 123.293C211.345 122.78 210.614 122.411 209.83 122.211C209.045 122.011 208.227 121.985 207.431 122.136L197.634 105.068L193.034 114.202L203.043 129.009C203.385 130.329 204.198 131.477 205.33 132.237C206.462 132.996 207.833 133.314 209.183 133.131C210.533 132.947 211.77 132.274 212.657 131.239C213.545 130.205 214.022 128.881 213.999 127.518Z" fill="#9E616A"/>
<path d="M160.206 57.8884L154.734 58.7327C154.734 58.7327 153.06 62.3113 156.89 69.2404C160.721 76.1695 197.068 120.505 197.068 120.505L200.14 109.015L179.014 70.1434L160.206 57.8884Z" fill="#E6E6E6"/>
<path d="M505.301 264.5H0.69921C0.514121 264.499 0.3368 264.426 0.206111 264.294C0.0754226 264.163 0.00202942 263.986 0.00202942 263.801C0.00202942 263.616 0.0754226 263.438 0.206111 263.307C0.3368 263.176 0.514121 263.102 0.69921 263.101H505.301C505.486 263.101 505.664 263.175 505.795 263.306C505.926 263.437 506 263.615 506 263.801C506 263.986 505.926 264.164 505.795 264.295C505.664 264.426 505.486 264.5 505.301 264.5Z" fill="#CCCCCC"/>
</g>
<defs>
<clipPath id="clip0_54_1057">
<rect width="506" height="264" fill="white" transform="translate(0 0.5)"/>
</clipPath>
</defs>
</svg>
