<svg width="200" height="177" viewBox="0 0 200 177" fill="none" xmlns="http://www.w3.org/2000/svg">
<g clip-path="url(#clip0_4_3499)">
<path d="M128.442 159.403L127.952 152.588C124.737 150.984 121.179 150.187 117.586 150.267C122.641 154.168 122.236 161.965 125.737 167.301C126.841 168.957 128.305 170.343 130.019 171.357C131.733 172.372 133.654 172.988 135.639 173.16L139.846 175.577C140.327 172.401 140.113 169.159 139.219 166.074C138.324 162.989 136.77 160.134 134.664 157.707C133.47 156.356 132.109 155.162 130.615 154.151C129.696 156.787 128.442 159.403 128.442 159.403Z" fill="#F2F2F2"/>
<path d="M103.385 176.484H199.691C199.773 176.484 199.852 176.451 199.91 176.394C199.967 176.336 200 176.258 200 176.176C200 176.094 199.967 176.016 199.91 175.958C199.852 175.9 199.773 175.868 199.691 175.868H103.385C103.303 175.868 103.224 175.9 103.167 175.958C103.109 176.016 103.076 176.094 103.076 176.176C103.076 176.258 103.109 176.336 103.167 176.394C103.224 176.451 103.303 176.484 103.385 176.484Z" fill="#CCCCCC"/>
<path d="M42.0672 102.946V103.078H42.1592C42.1259 103.036 42.0952 102.992 42.0672 102.946ZM42.7755 47.039C36.347 55.3863 32.8672 65.6236 32.8794 76.1533C32.8809 77.7567 32.9595 79.3376 33.1155 80.8958C33.1395 81.1634 33.1674 81.4311 33.2036 81.6948C34.0968 89.4437 36.8851 96.8544 41.3229 103.274C41.4949 103.525 41.6709 103.773 41.8472 104.021C43.7576 106.695 45.9386 109.166 48.3557 111.394C67.8141 129.334 98.1541 128.127 116.122 108.699C116.398 108.408 116.662 108.112 116.922 107.817C124.276 99.5006 128.507 88.8911 128.891 77.804C129.274 66.7169 125.786 55.8414 119.023 47.039C118.819 46.7713 118.611 46.5037 118.395 46.24C117.921 45.6447 117.43 45.0613 116.922 44.49C116.662 44.1943 116.398 43.8987 116.122 43.607C111.636 38.749 106.189 34.8725 100.127 32.2222C94.0644 29.5719 87.5174 28.2053 80.8993 28.2089C80.4391 28.2089 79.9829 28.2169 79.5266 28.2288C79.2224 28.2368 78.9183 28.2488 78.6143 28.2648C71.8023 28.5877 65.1378 30.3581 59.0658 33.4579C52.9938 36.5576 47.6542 40.9154 43.4037 46.24C43.1876 46.5037 42.9797 46.7713 42.7755 47.039ZM42.1592 103.078C42.1259 103.036 42.0952 102.992 42.0672 102.946V103.078H42.1592Z" fill="white"/>
<path d="M41.7312 102.455L41.8672 102.179L52.0554 81.6948V81.6908L52.4516 80.8957V80.8917L69.2824 47.039V47.035L69.6787 46.2399L69.6826 46.2359L78.2062 29.0838L78.6144 28.2648C78.9186 28.2488 79.2227 28.2368 79.5267 28.2288L79.1226 29.0439L70.5751 46.2359V46.2399L70.1789 47.035V47.039L52.9077 81.7747L52.9038 81.7787L42.7156 102.279L42.3154 103.078L42.2513 103.21L41.8472 104.021C41.671 103.773 41.4949 103.525 41.323 103.274L41.7312 102.455Z" fill="#3F3D56"/>
<path d="M52.7357 80.8958V81.6948H33.2036C33.1674 81.4311 33.1395 81.1634 33.1155 80.8958H52.7357Z" fill="#3F3D56"/>
<path d="M83.0896 87.129V86.33H102.622C102.658 86.5937 102.686 86.8613 102.71 87.129H83.0896Z" fill="#3F3D56"/>
<path d="M99.4266 84.345H100.227V103.846C99.9629 103.882 99.6947 103.91 99.4266 103.934V84.345Z" fill="#3F3D56"/>
<path d="M119.023 47.039C118.819 46.7713 118.611 46.5036 118.395 46.2399H116.922V44.49C116.662 44.1943 116.398 43.8987 116.122 43.607V46.2399H43.4037C43.1876 46.5036 42.9797 46.7713 42.7755 47.039H116.122V108.699C116.398 108.408 116.662 108.112 116.922 107.817V47.039H119.023Z" fill="#3F3D56"/>
<path d="M116.522 102.278H42.0663V103.078H116.522V102.278Z" fill="#3F3D56"/>
<path d="M42.0672 102.946V103.078H42.1592C42.1259 103.036 42.0952 102.992 42.0672 102.946ZM42.7755 47.039C36.347 55.3863 32.8672 65.6236 32.8794 76.1533C32.8809 77.7567 32.9595 79.3376 33.1155 80.8958C33.1395 81.1634 33.1674 81.4311 33.2036 81.6948C34.0968 89.4437 36.8851 96.8544 41.3229 103.274C41.4949 103.525 41.6709 103.773 41.8472 104.021C43.7576 106.695 45.9386 109.166 48.3557 111.394C67.8141 129.334 98.1541 128.127 116.122 108.699C116.398 108.408 116.662 108.112 116.922 107.817C124.276 99.5006 128.507 88.8911 128.891 77.804C129.274 66.7169 125.786 55.8414 119.023 47.039C118.819 46.7713 118.611 46.5037 118.395 46.24C117.921 45.6447 117.43 45.0613 116.922 44.49C116.662 44.1943 116.398 43.8987 116.122 43.607C111.636 38.749 106.189 34.8725 100.127 32.2222C94.0644 29.5719 87.5174 28.2053 80.8993 28.2089C80.4391 28.2089 79.9829 28.2169 79.5266 28.2288C79.2224 28.2368 78.9183 28.2488 78.6143 28.2648C71.8023 28.5877 65.1378 30.3581 59.0658 33.4579C52.9938 36.5576 47.6542 40.9154 43.4037 46.24C43.1876 46.5037 42.9797 46.7713 42.7755 47.039ZM34.0078 81.6948C33.9719 81.4311 33.9439 81.1634 33.9158 80.8957C32.696 68.7607 36.233 56.6257 43.7839 47.039C43.9959 46.7713 44.2081 46.5036 44.4281 46.2399C48.5638 41.2033 53.7011 37.0782 59.5152 34.1252C65.3292 31.1721 71.6937 29.4555 78.2062 29.0838C78.5102 29.0679 78.8144 29.0519 79.1225 29.0439C79.7107 29.0199 80.3029 29.0079 80.8992 29.0079C87.5539 29.004 94.1337 30.4085 100.205 33.1288C106.276 35.8491 111.701 39.8233 116.122 44.7896C116.398 45.0933 116.666 45.3969 116.922 45.7086C117.078 45.8844 117.226 46.0602 117.37 46.2399C117.59 46.5036 117.802 46.7713 118.015 47.039C124.743 55.5681 128.31 66.1579 128.111 77.0131C127.912 87.8682 123.959 98.3205 116.922 106.598C116.666 106.91 116.398 107.213 116.122 107.517C113.685 110.25 110.938 112.69 107.936 114.788C86.595 129.701 57.1871 124.517 42.2512 103.21C42.2192 103.166 42.1872 103.122 42.1592 103.078C42.1259 103.036 42.0952 102.992 42.0672 102.946C41.9512 102.782 41.8391 102.619 41.7311 102.455C37.5277 96.2527 34.8789 89.1327 34.0078 81.6948ZM42.1592 103.078C42.1259 103.036 42.0952 102.992 42.0672 102.946V103.078H42.1592Z" fill="#CCCCCC"/>
<path d="M136.204 127.649H88.2957C87.7099 127.648 87.1483 127.416 86.734 127.002C86.3198 126.589 86.0868 126.028 86.0862 125.443V102.136C86.0868 101.551 86.3198 100.99 86.734 100.577C87.1483 100.163 87.7099 99.9307 88.2957 99.9301H136.204C136.79 99.9307 137.351 100.163 137.766 100.577C138.18 100.99 138.413 101.551 138.413 102.136V125.443C138.413 126.028 138.18 126.589 137.766 127.002C137.351 127.416 136.79 127.648 136.204 127.649Z" fill="#CACACA"/>
<path d="M115.101 125.774C104.609 125.774 93.6686 125.674 89.5866 125.609C89.0495 125.598 88.5381 125.377 88.1614 124.995C87.7848 124.612 87.5728 124.098 87.5707 123.562V102.138C87.5709 101.946 87.6473 101.762 87.7831 101.626C87.919 101.49 88.1032 101.413 88.2956 101.412H136.203C136.395 101.412 136.579 101.489 136.715 101.624C136.852 101.76 136.929 101.944 136.929 102.136V116.672C136.92 119.044 135.98 121.319 134.311 123.008C132.641 124.697 130.375 125.665 127.999 125.705C124.195 125.754 119.69 125.774 115.101 125.774Z" fill="#E4E4E4"/>
<path d="M131.258 114.805H92.2771C92.0243 114.805 91.7778 114.727 91.5713 114.581C91.3647 114.436 91.2081 114.23 91.1229 113.993L86.711 101.634C86.6452 101.45 86.6246 101.252 86.6511 101.058C86.6776 100.864 86.7504 100.68 86.8633 100.519C86.9763 100.359 87.126 100.229 87.3001 100.138C87.4741 100.048 87.6673 100.001 87.8634 100L136.59 99.9325H136.592C136.795 99.9325 136.994 99.9827 137.173 100.079C137.351 100.175 137.503 100.313 137.615 100.482C137.726 100.651 137.794 100.845 137.812 101.047C137.83 101.249 137.798 101.452 137.718 101.638L132.384 114.064C132.29 114.284 132.133 114.472 131.933 114.604C131.732 114.735 131.498 114.806 131.258 114.805Z" fill="#CACACA"/>
<path d="M103.575 123.371H90.1337C89.8029 123.37 89.4857 123.239 89.2518 123.005C89.018 122.771 88.8867 122.454 88.8867 122.124C88.8867 121.793 89.018 121.477 89.2518 121.243C89.4857 121.009 89.8029 120.877 90.1337 120.877H103.575C103.906 120.877 104.224 121.009 104.457 121.243C104.691 121.477 104.822 121.793 104.822 122.124C104.822 122.454 104.691 122.771 104.457 123.005C104.224 123.239 103.906 123.37 103.575 123.371Z" fill="#CACACA"/>
<path d="M112.177 117.853C113.863 117.853 115.23 116.489 115.23 114.805C115.23 113.122 113.863 111.758 112.177 111.758C110.491 111.758 109.125 113.122 109.125 114.805C109.125 116.489 110.491 117.853 112.177 117.853Z" fill="#3F3D56"/>
<path d="M15.4301 6.78582C22.9303 1.51224 32.2215 -0.5706 41.2597 0.995494C50.298 2.56159 58.343 7.64833 63.6248 15.1367C74.6238 30.7304 85.6603 71.6211 77.8696 95.3093C54.6318 70.8023 18.9316 68.2557 7.06611 54.9048C-5.61255 40.6388 -0.18811 17.7675 15.4301 6.78582Z" fill="#EA580C"/>
<path d="M35.816 42.0968C42.046 42.0968 47.0963 37.0543 47.0963 30.8342C47.0963 24.614 42.046 19.5715 35.816 19.5715C29.586 19.5715 24.5356 24.614 24.5356 30.8342C24.5356 37.0543 29.586 42.0968 35.816 42.0968Z" fill="white"/>
<path d="M87.4055 107.575C91.486 107.575 94.7939 104.272 94.7939 100.198C94.7939 96.1241 91.486 92.8214 87.4055 92.8214C83.325 92.8214 80.0171 96.1241 80.0171 100.198C80.0171 104.272 83.325 107.575 87.4055 107.575Z" fill="#EA580C"/>
<path opacity="0.2" d="M23.7474 28.2354C23.0005 29.5126 22.5128 30.9242 22.3123 32.3896C22.1118 33.855 22.2023 35.3455 22.5787 36.7759C22.9551 38.2064 23.61 39.5488 24.5061 40.7266C25.4021 41.9043 26.5217 42.8944 27.8009 43.6401C29.0802 44.3858 30.494 44.8727 31.9617 45.0729C33.4294 45.2731 34.9222 45.1828 36.3549 44.8069C37.7876 44.4311 39.1321 43.7773 40.3117 42.8826C41.4914 41.988 42.4829 40.8702 43.2298 39.593C41.2164 41.3566 38.64 42.3472 35.9618 42.3875C33.2837 42.4278 30.6786 41.5151 28.6128 39.8129C26.547 38.1107 25.1554 35.7301 24.687 33.097C24.2186 30.464 24.704 27.7504 26.0563 25.4421C25.1408 26.2427 24.3611 27.186 23.7474 28.2354Z" fill="#231F20"/>
<path opacity="0.2" d="M7.04495 54.9579C18.9104 68.3088 54.6107 70.8554 77.8485 95.3624C78.5738 93.1211 79.132 90.8293 79.5187 88.5058C56.2925 66.2267 22.5797 63.4111 11.1155 50.5117C0.854838 38.9665 2.45207 21.7862 11.7122 9.83197C-0.987926 21.586 -4.57385 41.8845 7.04495 54.9579Z" fill="#231F20"/>
<path d="M154.531 102.129L149.741 100.672C147.656 103.182 145.927 110.454 145.927 110.454L139.37 121.091C139.019 121.258 138.719 121.513 138.498 121.832C138.278 122.152 138.145 122.523 138.114 122.91C138.084 123.296 138.155 123.684 138.322 124.034C138.489 124.385 138.746 124.685 139.066 124.904C139.386 125.124 139.758 125.256 140.145 125.286C140.532 125.316 140.921 125.244 141.271 125.077C141.622 124.91 141.922 124.654 142.142 124.334C142.361 124.014 142.493 123.642 142.523 123.256L152.445 111.228L154.531 102.129Z" fill="#FFB6B6"/>
<path d="M154.439 103.29L155.325 96.0496L153.34 92.7407C152.948 92.0925 152.383 91.5667 151.707 91.2227C151.032 90.8787 150.273 90.7302 149.517 90.794C148.494 90.8873 147.544 91.3653 146.859 92.1313C146.175 92.8972 145.808 93.894 145.831 94.9201C145.906 98.032 146.397 101.967 148.313 103.043L148.332 103.054L154.439 103.29Z" fill="#EA580C"/>
<path d="M167.972 168.713L165.1 170.097L158.384 159.693L162.624 157.65L167.972 168.713Z" fill="#FFB6B6"/>
<path d="M169.52 171.656L160.686 175.913L160.632 175.802C160.192 174.891 160.132 173.844 160.466 172.889C160.799 171.934 161.499 171.151 162.411 170.712L163.434 168.712L167.035 168.483L167.806 168.111L169.52 171.656Z" fill="#2F2E41"/>
<path d="M146.589 172.591L143.399 172.591L141.882 160.306L146.59 160.307L146.589 172.591Z" fill="#FFB6B6"/>
<path d="M146.702 175.913L136.893 175.913V175.789C136.893 174.778 137.295 173.808 138.011 173.094C138.727 172.379 139.698 171.977 140.711 171.977H140.711L142.503 170.62L145.846 171.977L146.702 171.977L146.702 175.913Z" fill="#2F2E41"/>
<path d="M143.428 115.618L139.773 140.785L140.767 144.096L139.462 146.442L141.379 164.094L140.601 165.804L142.775 167.143H147.199L147.434 148.496L148.526 145.759V144.25L150.751 132.879L151.264 150.58L151.974 151.948C154.62 157.94 158.184 159.903 160.703 164.382L165.127 161.99L165.034 160.205C165.923 159.756 163.7 158.443 163.486 157.471L163.099 155.732L160.519 150.395L160.42 148.515L161.126 135.731L160.794 118.515L154.991 114.085L143.428 115.618Z" fill="#2F2E41"/>
<path d="M149.171 85.0921C152.346 85.0921 154.919 82.5228 154.919 79.3535C154.919 76.1841 152.346 73.6149 149.171 73.6149C145.997 73.6149 143.424 76.1841 143.424 79.3535C143.424 82.5228 145.997 85.0921 149.171 85.0921Z" fill="#FFB6B6"/>
<path d="M140.679 126.475L140.595 126.445L141.707 122.836C141.561 122.37 141.534 121.876 141.626 121.398C141.719 120.919 141.929 120.471 142.239 120.094C142.059 119.783 141.317 118.315 142.525 117.067C142.453 116.703 142.089 114.55 143.357 113.498C143.357 113.498 145.817 94.8845 147.196 89.9681C147.236 89.6084 146.913 86.6716 148.769 86.5565C149.748 86.4959 151.216 86.403 153.42 86.2611C153.705 86.2407 153.872 86.7208 154.125 87.5021C154.296 88.0307 153.415 88.753 153.628 88.7411L153.643 88.7401L153.658 88.744C155.714 89.2944 157.517 90.5348 158.765 92.2566C160.013 93.9785 160.629 96.0768 160.51 98.1988L159.855 109.321C159.954 109.768 162.041 122.45 161.495 123.812C161.186 124.584 161.713 125.065 162.099 125.417C162.297 125.598 162.44 125.728 162.42 125.871C162.412 125.911 162.395 125.947 162.369 125.978C162.343 126.008 162.309 126.032 162.272 126.046C161.923 126.22 162.116 127.414 162.319 128.125L162.34 128.198L162.273 128.232C162.195 128.272 155.958 125.416 148.381 125.416C145.525 125.416 143.874 127.587 140.679 126.475Z" fill="#EA580C"/>
<path d="M153.726 82.8817C153.667 82.8511 153.614 82.8082 153.572 82.7559C153.53 82.7036 153.499 82.6431 153.482 82.5783L153.4 82.2451L153.652 82.5072C153.787 82.3958 153.89 82.2509 153.951 82.0871C154.011 81.9233 154.028 81.7464 153.998 81.5742C153.969 81.402 153.894 81.2407 153.782 81.1064C153.67 80.9721 153.525 80.8697 153.361 80.8095C153.25 80.7726 153.136 80.745 153.021 80.727C152.9 80.7077 152.781 80.679 152.665 80.6413C152.393 80.5238 152.158 80.3343 151.987 80.0933C151.815 79.8523 151.712 79.569 151.69 79.274C151.653 78.7539 151.711 78.2314 151.861 77.7319C149.325 78.1209 146.739 78.0433 144.231 77.5029C143.844 77.4215 143.474 77.2762 143.135 77.0728C142.516 76.7062 142 76.1881 141.637 75.5675C141.589 75.4838 141.569 75.3869 141.58 75.2911C141.591 75.1953 141.632 75.1055 141.698 75.0349C141.744 74.9856 141.799 74.9462 141.861 74.9191C141.923 74.892 141.989 74.8778 142.056 74.8774L141.965 74.6293C141.936 74.5518 141.928 74.468 141.943 74.3866C141.957 74.3052 141.993 74.229 142.046 74.1658C142.099 74.1027 142.168 74.0547 142.246 74.027C142.324 73.9992 142.408 73.9925 142.49 74.0077L142.815 74.0684L142.784 73.8527C142.772 73.7722 142.782 73.6902 142.811 73.6145C142.841 73.5389 142.89 73.4723 142.954 73.4214C143.017 73.3704 143.093 73.3369 143.173 73.3241C143.253 73.3112 143.336 73.3195 143.412 73.3482C143.482 73.3744 143.556 73.3851 143.631 73.3798C143.705 73.3744 143.777 73.353 143.843 73.317C143.908 73.2811 143.965 73.2314 144.009 73.1715C144.053 73.1115 144.084 73.0427 144.099 72.9698L144.211 72.4274L144.222 72.3986C144.772 71.4832 145.83 70.8178 147.123 70.5729C148.276 70.3547 149.454 70.4649 150.593 70.5715C151.076 70.5812 151.55 70.7009 151.98 70.9213C152.174 71.0333 152.334 71.1971 152.441 71.3944C152.547 71.5917 152.597 71.8147 152.584 72.0386C153.706 71.6943 154.909 72.3802 155.504 73.2445C156.211 74.2723 156.326 75.5617 156.346 76.5701C156.395 78.9539 155.903 80.9043 154.884 82.3672C154.739 82.6155 154.518 82.8114 154.254 82.9269C154.186 82.9495 154.116 82.9609 154.045 82.9606C153.934 82.9611 153.824 82.934 153.726 82.8817Z" fill="#2F2E41"/>
<path d="M153.933 105.477L149.714 102.783C147.028 104.638 143.397 111.174 143.397 111.174L134.208 119.65C133.826 119.715 133.467 119.88 133.168 120.128C132.87 120.376 132.642 120.698 132.508 121.062C132.373 121.426 132.338 121.819 132.404 122.201C132.47 122.583 132.636 122.941 132.884 123.239C133.133 123.537 133.456 123.764 133.821 123.898C134.185 124.031 134.579 124.066 134.961 124C135.344 123.933 135.702 123.767 136 123.519C136.298 123.27 136.525 122.947 136.659 122.583L149.465 113.676L153.933 105.477Z" fill="#FFB6B6"/>
<path d="M153.531 106.57L156.341 99.8367L155.324 96.1159C155.122 95.3862 154.72 94.7274 154.162 94.2141C153.605 93.7008 152.914 93.3535 152.17 93.2112C151.159 93.0252 150.115 93.2294 149.249 93.7826C148.383 94.3357 147.759 95.1965 147.505 96.191C146.735 99.2074 146.144 103.129 147.699 104.681L147.714 104.696L153.531 106.57Z" fill="#EA580C"/>
</g>
<defs>
<clipPath id="clip0_4_3499">
<rect width="200" height="176" fill="white" transform="translate(0 0.484009)"/>
</clipPath>
</defs>
</svg>
