<svg width="206" height="199" viewBox="0 0 206 199" fill="none" xmlns="http://www.w3.org/2000/svg">
<g clip-path="url(#clip0_4_3409)">
<path d="M110.008 99.1083C117.867 99.1083 124.238 92.7371 124.238 84.8778C124.238 77.0185 117.867 70.6473 110.008 70.6473C102.149 70.6473 95.7775 77.0185 95.7775 84.8778C95.7775 92.7371 102.149 99.1083 110.008 99.1083Z" fill="#EA580C"/>
<path d="M108.597 90.3068C108.277 90.3075 107.966 90.204 107.709 90.012L107.693 90.0001L104.349 87.4396C104.036 87.2 103.832 86.8458 103.78 86.4552C103.728 86.0645 103.834 85.6693 104.074 85.3565C104.313 85.0437 104.667 84.8389 105.058 84.7872C105.449 84.7355 105.844 84.8411 106.157 85.0808L108.323 86.7417L113.442 80.0657C113.682 79.753 114.036 79.5484 114.426 79.4968C114.817 79.4452 115.212 79.5509 115.525 79.7906L115.493 79.8339L115.526 79.7914C115.838 80.0314 116.042 80.3855 116.094 80.776C116.145 81.1665 116.04 81.5616 115.801 81.8744L109.78 89.7269C109.64 89.9078 109.461 90.0542 109.256 90.1547C109.051 90.2553 108.826 90.3075 108.597 90.3068Z" fill="white"/>
<path d="M15.0556 107.565L5.92036 138.792C5.63591 139.764 5.57075 140.788 5.72957 141.788C5.88838 142.789 6.26722 143.741 6.83877 144.578C7.41032 145.414 8.16034 146.113 9.03475 146.625C9.90915 147.136 10.8862 147.447 11.8953 147.536L21.8637 148.408L15.0556 107.565Z" fill="#F2F2F2"/>
<path opacity="0.1" d="M15.0556 107.565L5.92036 138.792C5.63591 139.764 5.57075 140.788 5.72957 141.788C5.88838 142.789 6.26722 143.741 6.83877 144.578C7.41032 145.414 8.16034 146.113 9.03475 146.625C9.90915 147.136 10.8862 147.447 11.8953 147.536L21.8637 148.408L15.0556 107.565Z" fill="black"/>
<path d="M97.9712 101.804L85.7519 122.012L79.9984 114.724L91.2427 97.1191C90.8433 95.0709 91.3269 92.6937 92.7565 90.6406C95.2578 87.0484 99.6952 85.8145 102.668 87.8849C105.641 89.9553 106.024 94.545 103.522 98.1371C102.093 100.19 100.031 101.468 97.9715 101.805L97.9712 101.804Z" fill="#FFB6B6"/>
<path d="M21.7906 150.793L20.3226 155.784L20.3723 160.844C20.3723 160.844 10.7209 172.452 14.2766 197.56L59.4986 196.994L54.1121 156.591L21.7906 150.793Z" fill="#090814"/>
<path d="M26.8796 81.6357C26.8799 79.2649 27.5372 76.9407 28.7786 74.9209C30.02 72.9012 31.7969 71.2651 33.912 70.1942C36.0271 69.1234 38.3976 68.6597 40.7603 68.8548C43.1229 69.0498 45.3854 69.8958 47.2963 71.299C49.2072 72.7021 50.6917 74.6075 51.5852 76.8034C52.4786 78.9993 52.7459 81.3999 52.3574 83.7386C51.9689 86.0773 50.9398 88.2625 49.3844 90.0517C47.829 91.8408 45.8081 93.1638 43.5462 93.8738L41.6342 95.4144L45.0667 107.428L41.0668 110.258L28.4282 99.7262C28.4282 99.7262 31.1582 96.2494 32.6228 92.3273C30.8563 91.1588 29.4071 89.5707 28.4048 87.7049C27.4026 85.8391 26.8785 83.7539 26.8796 81.6359V81.6357Z" fill="#FFB6B6"/>
<path d="M88.6997 101.162C84.1727 101.093 75.8025 115.623 75.8025 115.623L68.9262 113.192L54.7871 108.186L43.95 103.725L43.9977 104.053C43.9549 103.95 43.9086 103.847 43.8576 103.742C42.7182 101.394 39.4088 98.632 30.0131 99.1796L25.5881 102.672L24.9864 103.151C23.0885 103.049 21.1902 103.344 19.4132 104.019C17.4008 104.828 15.3886 106.337 14.4368 109.158C13.9436 110.613 13.9436 113.622 14.2395 117.444C15.3098 131.283 20.2979 160.705 20.2979 160.705L51.7878 156.536L54.1108 156.59C54.1108 156.59 54.3869 153.419 54.6336 149.266C54.7866 146.829 54.9247 144.064 55.0035 141.399C55.0578 139.446 55.0725 137.552 55.038 135.885C55.0331 135.782 55.0331 135.679 55.0282 135.574C54.9344 132.531 54.6287 130.327 53.9723 130.085C53.9723 130.085 56.0092 130.031 58.9488 129.922C66.051 129.656 78.4308 129.059 80.196 128.097C82.6915 126.741 95.7772 108.537 95.7772 108.537C95.7772 108.537 93.2322 101.237 88.6997 101.163V101.162Z" fill="#E6E6E6"/>
<path d="M52.9081 82.5821C51.9395 77.8434 51.4746 75.415 47.9535 72.0623C47.1178 72.1805 48.1742 76.5142 43.5673 82.551C36.8712 91.3265 37.5383 83.2803 35.5578 85.9835C35.1279 86.5704 35.035 88.6877 35.1764 89.416C35.7347 92.2943 39.0395 89.4837 35.5578 99.3314C35.0399 100.097 34.4295 99.9111 33.652 99.9034C33.5917 99.9034 33.9868 99.8261 32.5077 99.522C31.8018 99.3762 30.8139 99.2042 29.6294 99.0046C15.8703 96.6867 11.0117 79.3253 21.6456 70.2928C24.0665 68.2376 26.44 66.6802 28.5016 65.9586C34.7115 63.7849 48.8601 65.1978 51.5774 72.2516C52.8568 75.5345 53.3138 79.0806 52.9086 82.5806L52.9081 82.5821Z" fill="#010102"/>
<path d="M24.5697 110.451C29.9895 110.451 34.3831 106.058 34.3831 100.638C34.3831 95.2183 29.9895 90.8247 24.5697 90.8247C19.15 90.8247 14.7564 95.2183 14.7564 100.638C14.7564 106.058 19.15 110.451 24.5697 110.451Z" fill="#010102"/>
<path d="M77.7882 198.969H0.334793C0.134941 198.933 -0.0128883 198.531 -1.12329e-05 198.067C-0.0128883 197.608 0.134683 197.205 0.334793 197.17H77.7882C77.9643 197.22 78.1034 197.543 78.1251 197.951C78.1531 198.449 78.0035 198.902 77.7882 198.969Z" fill="#E6E6E6"/>
<path d="M176.847 44.8512C178.55 44.8512 179.93 43.4706 179.93 41.7676C179.93 40.0646 178.55 38.6841 176.847 38.6841C175.144 38.6841 173.763 40.0646 173.763 41.7676C173.763 43.4706 175.144 44.8512 176.847 44.8512Z" fill="#EA580C"/>
<path d="M176.541 42.9438C176.472 42.944 176.404 42.9215 176.349 42.8799L176.345 42.8774L175.621 42.3226C175.587 42.2969 175.559 42.2648 175.538 42.2282C175.517 42.1916 175.503 42.1512 175.497 42.1093C175.492 42.0673 175.494 42.0247 175.505 41.9839C175.516 41.943 175.535 41.9047 175.561 41.8711C175.587 41.8376 175.619 41.8094 175.655 41.7882C175.692 41.7671 175.732 41.7533 175.774 41.7478C175.816 41.7422 175.859 41.745 175.9 41.7559C175.94 41.7668 175.979 41.7857 176.012 41.8114L176.482 42.172L177.591 40.7253C177.617 40.6918 177.649 40.6636 177.685 40.6425C177.722 40.6213 177.762 40.6076 177.804 40.6021C177.846 40.5965 177.889 40.5993 177.93 40.6103C177.97 40.6212 178.009 40.6401 178.042 40.6659C178.11 40.7179 178.155 40.7946 178.166 40.8793C178.177 40.9639 178.154 41.0495 178.102 41.1173L176.797 42.8189C176.767 42.8581 176.728 42.8899 176.684 42.9117C176.639 42.9335 176.591 42.9447 176.541 42.9446V42.9438Z" fill="white"/>
<path d="M176.847 53.8646C178.55 53.8646 179.93 52.4841 179.93 50.7811C179.93 49.0781 178.55 47.6975 176.847 47.6975C175.144 47.6975 173.763 49.0781 173.763 50.7811C173.763 52.4841 175.144 53.8646 176.847 53.8646Z" fill="#EA580C"/>
<path d="M176.541 51.9572C176.472 51.9574 176.404 51.935 176.349 51.8934L176.345 51.8908L175.621 51.336C175.587 51.3103 175.559 51.2782 175.538 51.2416C175.517 51.205 175.503 51.1646 175.497 51.1227C175.492 51.0808 175.494 51.0382 175.505 50.9973C175.516 50.9564 175.535 50.9181 175.561 50.8846C175.587 50.851 175.619 50.8228 175.655 50.8017C175.692 50.7805 175.732 50.7667 175.774 50.7612C175.816 50.7556 175.859 50.7584 175.9 50.7693C175.94 50.7802 175.979 50.7991 176.012 50.8248L176.482 51.1854L177.591 49.7388C177.617 49.7052 177.649 49.6771 177.685 49.6559C177.722 49.6348 177.762 49.621 177.804 49.6155C177.846 49.61 177.889 49.6128 177.93 49.6237C177.97 49.6346 178.009 49.6535 178.042 49.6793C178.11 49.7313 178.154 49.8081 178.166 49.8927C178.177 49.9774 178.154 50.0629 178.102 50.1307L176.797 51.8323C176.767 51.8716 176.728 51.9033 176.684 51.9251C176.639 51.9469 176.591 51.9582 176.541 51.958V51.9572Z" fill="white"/>
<path d="M178.507 64.301C180.21 64.301 181.591 62.9205 181.591 61.2175C181.591 59.5145 180.21 58.1339 178.507 58.1339C176.804 58.1339 175.424 59.5145 175.424 61.2175C175.424 62.9205 176.804 64.301 178.507 64.301Z" fill="#EA580C"/>
<path d="M178.201 62.3936C178.132 62.3937 178.065 62.3713 178.009 62.3297L178.006 62.3271L177.281 61.7724C177.247 61.7467 177.219 61.7146 177.198 61.678C177.177 61.6414 177.163 61.6009 177.158 61.559C177.152 61.5171 177.155 61.4745 177.166 61.4336C177.177 61.3928 177.196 61.3545 177.221 61.3209C177.247 61.2873 177.279 61.2592 177.316 61.238C177.352 61.2168 177.393 61.2031 177.435 61.1975C177.477 61.192 177.519 61.1948 177.56 61.2057C177.601 61.2166 177.639 61.2354 177.673 61.2612L178.142 61.6217L179.251 60.1751C179.277 60.1415 179.309 60.1134 179.346 60.0922C179.382 60.0711 179.423 60.0574 179.465 60.0518C179.507 60.0463 179.549 60.0491 179.59 60.06C179.631 60.071 179.669 60.0899 179.703 60.1156C179.77 60.1677 179.815 60.2444 179.826 60.3291C179.837 60.4137 179.814 60.4993 179.762 60.5671L178.457 62.2687C178.427 62.3079 178.388 62.3396 178.344 62.3614C178.3 62.3832 178.251 62.3945 178.201 62.3943L178.201 62.3936Z" fill="white"/>
<path d="M200.401 74.7093C200.376 74.7093 200.358 74.7093 200.353 74.7093H200.401V74.2457H200.364C200.437 74.2483 201.932 74.2905 203.308 72.6198C205.36 70.1299 207.045 63.9664 203.42 48.7418C198.546 28.2706 202.611 10.1853 204.585 3.35988C204.683 3.02221 204.7 2.66655 204.636 2.321C204.572 1.97545 204.429 1.64949 204.217 1.36885C204.006 1.08821 203.732 0.860591 203.418 0.703969C203.103 0.547347 202.756 0.466015 202.405 0.466398H155.331C154.974 0.466867 154.621 0.55172 154.302 0.714064C153.983 0.876409 153.707 1.11167 153.496 1.40076C152.659 2.55094 151.513 4.76091 150.794 8.75667L150.336 8.67451C151.07 4.59196 152.255 2.31709 153.12 1.12854C153.374 0.780207 153.707 0.496715 154.091 0.301076C154.475 0.105438 154.9 0.00316808 155.331 0.00256665H202.405C202.829 0.00192064 203.246 0.099835 203.626 0.288568C204.005 0.477301 204.335 0.751674 204.59 1.08998C204.845 1.42829 205.017 1.82126 205.094 2.2378C205.171 2.65433 205.149 3.08302 205.032 3.48994C203.068 10.2798 199.024 28.2714 203.873 48.6352C207.549 64.0736 205.782 70.3717 203.652 72.9351C202.247 74.6235 200.699 74.7093 200.401 74.7093Z" fill="#E6E6E6"/>
<path d="M195.378 83.339C195.352 83.339 195.335 83.339 195.33 83.339H193.067V82.8754H195.341C195.415 82.8777 196.909 82.9202 198.286 81.2495C200.337 78.7596 202.022 72.5961 198.397 57.3715C193.523 36.9003 197.588 18.815 199.562 11.9896C199.66 11.6519 199.677 11.2963 199.613 10.9507C199.549 10.6052 199.406 10.2792 199.195 9.99856C198.983 9.71792 198.709 9.4903 198.395 9.33368C198.08 9.17705 197.734 9.09572 197.382 9.09611H150.308C149.95 9.09657 149.598 9.18142 149.279 9.34377C148.96 9.50611 148.684 9.74138 148.473 10.0305C147.636 11.1809 146.49 13.3906 145.771 17.3864L145.313 17.3042C146.047 13.2217 147.232 10.9468 148.097 9.75824C148.351 9.40991 148.684 9.12642 149.068 8.93078C149.452 8.73514 149.877 8.63287 150.308 8.63227H197.382C197.805 8.63162 198.223 8.72954 198.602 8.91828C198.982 9.10701 199.312 9.38138 199.567 9.71969C199.821 10.058 199.994 10.451 200.071 10.8675C200.148 11.284 200.126 11.7127 200.009 12.1196C198.045 18.9095 194.001 36.9011 198.85 57.2649C202.526 72.7033 200.759 79.0015 198.629 81.5648C197.223 83.2535 195.676 83.339 195.378 83.339Z" fill="#CCCCCC"/>
<path d="M191.854 75.8947C185.964 51.1627 190.876 29.3103 193.263 21.0653C193.405 20.5711 193.43 20.0507 193.337 19.545C193.243 19.0393 193.034 18.5623 192.724 18.1515C192.415 17.7408 192.014 17.4075 191.554 17.178C191.094 16.9485 190.587 16.829 190.073 16.829H132.901C132.377 16.8294 131.861 16.9532 131.395 17.1904C130.928 17.4275 130.524 17.7714 130.215 18.194C127.908 21.3677 123.119 31.8919 128.468 61.0119C131.328 76.5906 131.285 87.2121 130.351 94.209C129.827 98.1494 129.018 100.938 128.285 102.819L128.208 103.019C128.053 103.399 127.973 103.806 127.97 104.216C127.965 104.68 128.058 105.14 128.243 105.565C128.428 105.99 128.702 106.371 129.045 106.683C129.269 106.893 129.522 107.069 129.797 107.205C130.025 107.321 130.266 107.41 130.516 107.468C130.77 107.53 131.03 107.561 131.291 107.561H187.58C187.587 107.561 187.605 107.563 187.639 107.563C187.999 107.563 189.879 107.459 191.586 105.404C194.171 102.292 196.318 94.6448 191.854 75.8947ZM191.168 105.024C189.496 107.055 187.682 107.002 187.594 107H131.289C130.838 107 130.395 106.889 129.996 106.678C129.598 106.467 129.258 106.161 129.005 105.788C128.783 105.465 128.633 105.098 128.567 104.712C128.501 104.326 128.52 103.93 128.623 103.551C128.65 103.441 128.685 103.334 128.727 103.229C129.565 101.077 130.185 98.8476 130.58 96.573C131.918 89.2794 132.167 78.0246 129.022 60.9112C123.713 32.007 128.407 21.6417 130.67 18.5273C130.927 18.1768 131.262 17.8916 131.65 17.6947C132.037 17.4979 132.465 17.3949 132.9 17.3941H190.072C190.499 17.3938 190.92 17.4927 191.301 17.6829C191.683 17.8731 192.016 18.1494 192.272 18.4901C192.529 18.8307 192.703 19.2264 192.781 19.6458C192.858 20.0653 192.837 20.497 192.719 20.907C190.321 29.1967 185.385 51.1632 191.306 76.0255C195.708 94.5142 193.661 102 191.168 105.024Z" fill="#3F3D56"/>
<path d="M164.693 43.7602H135.237C134.939 43.7634 134.642 43.7074 134.366 43.5954C134.089 43.4833 133.837 43.3175 133.625 43.1076C133.413 42.8976 133.244 42.6476 133.129 42.3721C133.014 42.0966 132.955 41.801 132.955 41.5025C132.955 41.204 133.014 40.9084 133.129 40.6329C133.244 40.3574 133.413 40.1074 133.625 39.8974C133.837 39.6875 134.089 39.5217 134.366 39.4096C134.642 39.2976 134.939 39.2416 135.237 39.2448H164.693C165.287 39.2511 165.856 39.4918 166.274 39.9145C166.692 40.3372 166.927 40.9079 166.927 41.5025C166.927 42.0971 166.692 42.6678 166.274 43.0905C165.856 43.5132 165.287 43.7539 164.693 43.7602Z" fill="#E6E6E6"/>
<path d="M164.693 53.485H135.237C134.642 53.4787 134.074 53.238 133.656 52.8153C133.238 52.3926 133.003 51.8219 133.003 51.2273C133.003 50.6326 133.238 50.062 133.656 49.6393C134.074 49.2166 134.642 48.9759 135.237 48.9696H164.693C164.991 48.9664 165.288 49.0224 165.564 49.1344C165.841 49.2465 166.093 49.4123 166.305 49.6222C166.517 49.8322 166.686 50.0822 166.801 50.3577C166.916 50.6332 166.975 50.9288 166.975 51.2273C166.975 51.5258 166.916 51.8214 166.801 52.0969C166.686 52.3724 166.517 52.6224 166.305 52.8323C166.093 53.0423 165.841 53.2081 165.564 53.3201C165.288 53.4322 164.991 53.4882 164.693 53.485Z" fill="#E6E6E6"/>
<path d="M167.065 63.447H137.609C137.31 63.4502 137.014 63.3942 136.738 63.2821C136.461 63.1701 136.209 63.0043 135.997 62.7943C135.785 62.5844 135.616 62.3344 135.501 62.0589C135.386 61.7834 135.327 61.4878 135.327 61.1893C135.327 60.8907 135.386 60.5952 135.501 60.3196C135.616 60.0441 135.785 59.7942 135.997 59.5842C136.209 59.3742 136.461 59.2084 136.738 59.0964C137.014 58.9844 137.31 58.9283 137.609 58.9315H167.065C167.363 58.9283 167.66 58.9844 167.936 59.0964C168.213 59.2084 168.465 59.3742 168.677 59.5842C168.889 59.7942 169.058 60.0441 169.173 60.3196C169.288 60.5952 169.347 60.8907 169.347 61.1893C169.347 61.4878 169.288 61.7834 169.173 62.0589C169.058 62.3344 168.889 62.5844 168.677 62.7943C168.465 63.0043 168.213 63.1701 167.936 63.2821C167.66 63.3942 167.363 63.4502 167.065 63.447Z" fill="#E6E6E6"/>
<path d="M168.725 73.8834H139.269C138.971 73.8866 138.675 73.8306 138.398 73.7185C138.121 73.6065 137.869 73.4407 137.657 73.2307C137.445 73.0208 137.277 72.7708 137.162 72.4953C137.047 72.2198 136.987 71.9242 136.987 71.6257C136.987 71.3271 137.047 71.0316 137.162 70.756C137.277 70.4805 137.445 70.2306 137.657 70.0206C137.869 69.8106 138.121 69.6448 138.398 69.5328C138.675 69.4208 138.971 69.3647 139.269 69.3679H168.725C169.024 69.3647 169.32 69.4208 169.597 69.5328C169.873 69.6448 170.125 69.8106 170.337 70.0206C170.55 70.2306 170.718 70.4805 170.833 70.756C170.948 71.0316 171.007 71.3271 171.007 71.6257C171.007 71.9242 170.948 72.2198 170.833 72.4953C170.718 72.7708 170.55 73.0208 170.337 73.2307C170.125 73.4407 169.873 73.6065 169.597 73.7185C169.32 73.8306 169.024 73.8866 168.725 73.8834Z" fill="#E6E6E6"/>
<path d="M168.738 26.2294H147.571C146.976 26.223 146.408 25.9823 145.99 25.5596C145.572 25.1369 145.337 24.5663 145.337 23.9716C145.337 23.377 145.572 22.8063 145.99 22.3836C146.408 21.9609 146.976 21.7202 147.571 21.7139H168.738C169.332 21.7202 169.9 21.9609 170.318 22.3836C170.737 22.8063 170.971 23.377 170.971 23.9716C170.971 24.5663 170.737 25.1369 170.318 25.5596C169.9 25.9823 169.332 26.223 168.738 26.2294Z" fill="#EA580C"/>
<path d="M180.405 74.7093C182.108 74.7093 183.488 73.3288 183.488 71.6258C183.488 69.9228 182.108 68.5422 180.405 68.5422C178.702 68.5422 177.321 69.9228 177.321 71.6258C177.321 73.3288 178.702 74.7093 180.405 74.7093Z" fill="#E6E6E6"/>
<path d="M170.148 84.0827H140.693C140.394 84.0859 140.098 84.0299 139.821 83.9179C139.544 83.8058 139.293 83.64 139.08 83.4301C138.868 83.2201 138.7 82.9701 138.585 82.6946C138.47 82.4191 138.411 82.1235 138.411 81.825C138.411 81.5265 138.47 81.2309 138.585 80.9554C138.7 80.6799 138.868 80.4299 139.08 80.2199C139.293 80.01 139.544 79.8442 139.821 79.7321C140.098 79.6201 140.394 79.5641 140.693 79.5673H170.148C170.743 79.5736 171.311 79.8143 171.729 80.237C172.148 80.6597 172.382 81.2304 172.382 81.825C172.382 82.4197 172.148 82.9903 171.729 83.413C171.311 83.8357 170.743 84.0764 170.148 84.0827Z" fill="#E6E6E6"/>
<path d="M181.828 84.9084C183.531 84.9084 184.911 83.5279 184.911 81.8249C184.911 80.1219 183.531 78.7413 181.828 78.7413C180.125 78.7413 178.744 80.1219 178.744 81.8249C178.744 83.5279 180.125 84.9084 181.828 84.9084Z" fill="#E6E6E6"/>
</g>
<defs>
<clipPath id="clip0_4_3409">
<rect width="206" height="198.968" fill="white"/>
</clipPath>
</defs>
</svg>
