<svg width="502" height="454" viewBox="0 0 502 454" fill="none" xmlns="http://www.w3.org/2000/svg">
<g clip-path="url(#clip0_4_3284)">
<path d="M219.406 375.481H9.94638C7.30934 375.478 4.78117 374.429 2.91651 372.565C1.05184 370.702 0.0029678 368.174 0 365.538V81.2958C0.0029678 78.6597 1.05184 76.1325 2.91651 74.2685C4.78117 72.4046 7.30934 71.3561 9.94638 71.3531H219.406C222.043 71.3561 224.571 72.4046 226.435 74.2685C228.3 76.1325 229.349 78.6597 229.352 81.2958V365.538C229.349 368.174 228.3 370.702 226.435 372.565C224.571 374.429 222.043 375.478 219.406 375.481Z" fill="white"/>
<path d="M105.234 145.328C105.234 153.537 102.636 161.536 97.8115 168.18C92.9874 174.823 86.1844 179.771 78.3763 182.315C78.1428 182.389 77.9095 182.463 77.6724 182.534C76.6609 182.845 75.6353 183.11 74.592 183.336C72.7038 183.746 70.7874 184.012 68.8591 184.132C68.021 184.188 67.1781 184.217 66.3304 184.217C61.9506 184.221 57.6016 183.485 53.4675 182.039C53.3473 181.996 53.2272 181.954 53.1104 181.912C46.4123 179.493 40.5066 175.284 36.0369 169.742C31.5672 164.199 28.705 157.537 27.7621 150.481C26.8193 143.425 27.8319 136.245 30.6898 129.725C33.5476 123.204 38.141 117.593 43.9694 113.502C49.7978 109.411 56.6376 106.998 63.7435 106.525C70.8494 106.053 77.9487 107.539 84.2679 110.821C90.5871 114.104 95.8838 119.058 99.5807 125.142C103.278 131.227 105.233 138.209 105.234 145.328Z" fill="white"/>
<path d="M65.3983 171.093C75.8519 171.093 84.3262 162.622 84.3262 152.172C84.3262 141.723 75.8519 133.252 65.3983 133.252C54.9448 133.252 46.4705 141.723 46.4705 152.172C46.4705 162.622 54.9448 171.093 65.3983 171.093Z" fill="#EA580C"/>
<path d="M66.5033 162.367L66.523 161.66C65.2071 161.623 64.047 161.541 63.1753 160.904C62.9281 160.713 62.725 160.472 62.5797 160.195C62.4343 159.919 62.3502 159.615 62.3331 159.303C62.3178 159.113 62.3466 158.921 62.4173 158.744C62.488 158.566 62.5987 158.408 62.7408 158.28C63.0701 158.08 63.4472 157.973 63.8324 157.97C64.2175 157.966 64.5964 158.067 64.9293 158.261L65.5145 158.529L64.3922 150.33L63.6914 150.426L64.6461 157.4C64.2553 157.255 63.8345 157.21 63.4219 157.27C63.0094 157.329 62.6183 157.491 62.2842 157.74C62.0595 157.936 61.8832 158.181 61.7691 158.457C61.6549 158.732 61.6061 159.031 61.6263 159.328C61.6469 159.747 61.7589 160.156 61.9544 160.527C62.15 160.898 62.4242 161.221 62.7581 161.475C63.8781 162.293 65.3337 162.334 66.5033 162.367Z" fill="#2F2E41"/>
<path d="M60.2258 151.028H56.4163V151.735H60.2258V151.028Z" fill="#2F2E41"/>
<path d="M72.2504 151.028H68.4409V151.735H72.2504V151.028Z" fill="#2F2E41"/>
<path d="M70.7759 178.624C70.8261 178.391 70.8522 178.154 70.8538 177.917C70.8524 177.026 70.498 176.173 69.8682 175.543C69.2384 174.914 68.3847 174.559 67.494 174.558H62.5427C61.6518 174.559 60.7977 174.913 60.1678 175.543C59.5379 176.172 59.1837 177.026 59.1829 177.917C59.1827 178.156 59.2087 178.394 59.2606 178.627C57.3915 179.216 55.6247 180.09 54.0229 181.219C53.7116 181.434 53.404 181.668 53.1104 181.912C53.2272 181.954 53.3474 181.996 53.4676 182.039C57.6016 183.485 61.9506 184.221 66.3304 184.217C67.1792 184.217 68.022 184.188 68.8591 184.132C70.7874 184.012 72.7038 183.746 74.592 183.336C75.6353 183.11 76.6609 182.845 77.6724 182.534C75.6713 180.764 73.3222 179.432 70.7759 178.624Z" fill="#2F2E41"/>
<path d="M70.1394 183.683C69.6804 183.717 69.2386 183.871 68.8591 184.132C70.7874 184.012 72.7038 183.746 74.592 183.336L70.1394 183.683Z" fill="#2F2E41"/>
<path d="M82.5648 147.678L49.6831 135.653C49.3307 135.524 49.044 135.261 48.886 134.921C48.728 134.581 48.7117 134.192 48.8406 133.839L48.9518 133.314C51.5198 126.297 60.0314 121.88 67.0511 124.448L77.1695 128.148C84.1891 130.715 87.24 139.024 84.672 146.041L84.3793 146.836C84.2504 147.188 83.9868 147.474 83.6465 147.632C83.3062 147.79 82.9171 147.807 82.5648 147.678Z" fill="#2F2E41"/>
<path d="M84.336 148.345C38.5054 150.035 34.5007 144.279 48.465 135.227L51.4275 129.778L85.3793 142.152L84.336 148.345Z" fill="#2F2E41"/>
<path d="M75.3495 127.285C75.6025 126.443 74.5187 125.374 72.9287 124.896C71.3388 124.418 69.8447 124.713 69.5917 125.555C69.3387 126.396 70.4225 127.466 72.0125 127.943C73.6024 128.421 75.0965 128.126 75.3495 127.285Z" fill="#2F2E41"/>
<path d="M66.3304 185.277C61.8311 185.282 57.3635 184.526 53.1168 183.04L52.7476 182.908C43.8522 179.695 36.3853 173.432 31.6748 165.233C26.9643 157.034 25.3156 147.43 27.0219 138.131C28.7281 128.831 33.6788 120.437 40.9933 114.443C48.3079 108.449 57.5123 105.242 66.9695 105.393C76.4268 105.544 85.5239 109.044 92.6429 115.269C99.762 121.494 104.442 130.041 105.849 139.391C107.257 148.74 105.302 158.286 100.332 166.33C95.3615 174.374 87.698 180.396 78.7043 183.323C78.453 183.403 78.2164 183.478 77.976 183.55C76.9715 183.859 75.9057 184.137 74.8169 184.373C72.8761 184.793 70.9063 185.066 68.9243 185.19C68.0728 185.248 67.1979 185.277 66.3304 185.277ZM66.3304 107.5C57.4256 107.501 48.8063 110.641 41.9886 116.368C35.1708 122.094 30.5913 130.04 29.0554 138.808C27.5196 147.576 29.1257 156.605 33.5913 164.306C38.057 172.007 45.0961 177.888 53.4708 180.914L53.8212 181.039C57.8415 182.445 62.071 183.161 66.3304 183.156C67.1505 183.156 67.9771 183.128 68.7875 183.073C70.6644 182.956 72.5298 182.698 74.3677 182.3C75.3976 182.076 76.4046 181.814 77.3604 181.52C77.5971 181.449 77.8218 181.378 78.0465 181.307C86.6124 178.518 93.9022 172.766 98.6055 165.085C103.309 157.404 105.117 148.298 103.705 139.404C102.293 130.51 97.7538 122.411 90.903 116.563C84.0522 110.715 75.3393 107.501 66.3304 107.5Z" fill="#CCCCCC"/>
<path d="M219.406 375.481H9.94638C7.30934 375.478 4.78117 374.429 2.91651 372.565C1.05184 370.702 0.0029678 368.174 0 365.538V81.2958C0.0029678 78.6597 1.05184 76.1325 2.91651 74.2685C4.78117 72.4046 7.30934 71.3561 9.94638 71.3531H219.406C222.043 71.3561 224.571 72.4046 226.435 74.2685C228.3 76.1325 229.349 78.6597 229.352 81.2958V365.538C229.349 368.174 228.3 370.702 226.435 372.565C224.571 374.429 222.043 375.478 219.406 375.481ZM9.94638 72.5229C7.61959 72.5255 5.38887 73.4506 3.74358 75.0953C2.09829 76.74 1.1728 78.9699 1.17016 81.2958V365.538C1.1728 367.864 2.09827 370.094 3.74356 371.739C5.38885 373.383 7.61959 374.309 9.94638 374.311H219.406C221.732 374.309 223.963 373.383 225.608 371.739C227.254 370.094 228.179 367.864 228.182 365.538V81.2958C228.179 78.9699 227.254 76.74 225.608 75.0953C223.963 73.4506 221.732 72.5255 219.406 72.5229H9.94638Z" fill="#CCCCCC"/>
<path d="M178.857 145.177H119.587C118.344 145.175 117.153 144.681 116.275 143.802C115.397 142.923 114.904 141.732 114.904 140.489C114.904 139.247 115.397 138.056 116.275 137.177C117.153 136.298 118.344 135.804 119.587 135.802H178.857C179.473 135.802 180.083 135.922 180.653 136.157C181.222 136.393 181.74 136.738 182.176 137.173C182.612 137.608 182.958 138.125 183.194 138.694C183.43 139.263 183.551 139.873 183.551 140.489C183.551 141.105 183.43 141.715 183.194 142.285C182.958 142.854 182.612 143.371 182.176 143.806C181.74 144.241 181.222 144.586 180.653 144.822C180.083 145.057 179.473 145.177 178.857 145.177Z" fill="#E6E6E6"/>
<path d="M198.199 160.996H119.587C118.344 160.994 117.153 160.5 116.275 159.621C115.397 158.742 114.904 157.551 114.904 156.309C114.904 155.067 115.397 153.875 116.275 152.996C117.153 152.118 118.344 151.623 119.587 151.621H198.199C199.441 151.623 200.632 152.118 201.51 152.996C202.388 153.875 202.882 155.067 202.882 156.309C202.882 157.551 202.388 158.742 201.51 159.621C200.632 160.5 199.441 160.994 198.199 160.996Z" fill="#E6E6E6"/>
<path d="M178.77 221.669H31.1535C30.5372 221.669 29.9269 221.549 29.3573 221.313C28.7877 221.078 28.2702 220.733 27.8341 220.298C27.3981 219.863 27.0522 219.346 26.8162 218.776C26.5802 218.207 26.4587 217.597 26.4587 216.981C26.4587 216.365 26.5802 215.755 26.8162 215.186C27.0522 214.617 27.3981 214.1 27.8341 213.665C28.2702 213.23 28.7877 212.885 29.3573 212.649C29.9269 212.414 30.5372 212.294 31.1535 212.294H178.77C180.013 212.296 181.204 212.79 182.082 213.669C182.96 214.548 183.454 215.739 183.454 216.981C183.454 218.224 182.96 219.415 182.082 220.294C181.204 221.173 180.013 221.667 178.77 221.669Z" fill="#E6E6E6"/>
<path d="M198.112 237.488H31.1535C30.5372 237.488 29.9269 237.368 29.3573 237.133C28.7877 236.897 28.2702 236.552 27.8341 236.117C27.3981 235.682 27.0522 235.165 26.8162 234.596C26.5802 234.027 26.4587 233.417 26.4587 232.801C26.4587 232.185 26.5802 231.575 26.8162 231.006C27.0522 230.436 27.3981 229.92 27.8341 229.484C28.2702 229.049 28.7877 228.704 29.3573 228.469C29.9269 228.233 30.5372 228.113 31.1535 228.113H198.112C198.728 228.113 199.339 228.233 199.908 228.469C200.478 228.704 200.996 229.049 201.432 229.484C201.868 229.92 202.213 230.436 202.449 231.006C202.685 231.575 202.807 232.185 202.807 232.801C202.807 233.417 202.685 234.027 202.449 234.596C202.213 235.165 201.868 235.682 201.432 236.117C200.996 236.552 200.478 236.897 199.908 237.133C199.339 237.368 198.728 237.488 198.112 237.488Z" fill="#E6E6E6"/>
<path d="M178.77 273.846H31.1534C29.9099 273.846 28.7172 273.352 27.8379 272.473C26.9585 271.594 26.4645 270.402 26.4645 269.159C26.4645 267.916 26.9585 266.724 27.8379 265.845C28.7172 264.966 29.9099 264.472 31.1534 264.472H178.77C180.014 264.472 181.207 264.966 182.086 265.845C182.965 266.724 183.459 267.916 183.459 269.159C183.459 270.402 182.965 271.594 182.086 272.473C181.207 273.352 180.014 273.846 178.77 273.846Z" fill="#E6E6E6"/>
<path d="M198.112 289.665H31.1534C29.9099 289.665 28.7172 289.171 27.8379 288.292C26.9585 287.413 26.4645 286.221 26.4645 284.978C26.4645 283.735 26.9585 282.543 27.8379 281.664C28.7172 280.785 29.9099 280.291 31.1534 280.291H198.112C199.356 280.291 200.548 280.785 201.428 281.664C202.307 282.543 202.801 283.735 202.801 284.978C202.801 286.221 202.307 287.413 201.428 288.292C200.548 289.171 199.356 289.665 198.112 289.665Z" fill="#E6E6E6"/>
<path d="M178.77 326.024H31.1534C29.9099 326.024 28.7172 325.53 27.8379 324.651C26.9585 323.772 26.4645 322.58 26.4645 321.336C26.4645 320.093 26.9585 318.901 27.8379 318.022C28.7172 317.143 29.9099 316.649 31.1534 316.649H178.77C180.014 316.649 181.207 317.143 182.086 318.022C182.965 318.901 183.459 320.093 183.459 321.336C183.459 322.58 182.965 323.772 182.086 324.651C181.207 325.53 180.014 326.024 178.77 326.024Z" fill="#E6E6E6"/>
<path d="M198.112 341.843H31.1534C29.9099 341.843 28.7172 341.349 27.8379 340.47C26.9585 339.591 26.4645 338.399 26.4645 337.156C26.4645 335.912 26.9585 334.72 27.8379 333.841C28.7172 332.962 29.9099 332.468 31.1534 332.468H198.112C199.356 332.468 200.548 332.962 201.428 333.841C202.307 334.72 202.801 335.912 202.801 337.156C202.801 338.399 202.307 339.591 201.428 340.47C200.548 341.349 199.356 341.843 198.112 341.843Z" fill="#E6E6E6"/>
<path d="M492.054 304.128L282.594 304.128C279.957 304.125 277.429 303.076 275.565 301.212C273.7 299.349 272.651 296.821 272.648 294.185L272.648 9.94282C272.651 7.30677 273.7 4.77955 275.564 2.91558C277.429 1.05162 279.957 0.00313315 282.594 0.000164558L492.053 0C494.69 0.00296478 497.219 1.05144 499.083 2.9154C500.948 4.77936 501.997 7.30659 502 9.94263L502 294.185C501.997 296.821 500.948 299.348 499.083 301.212C497.219 303.076 494.691 304.125 492.054 304.128Z" fill="white"/>
<path d="M492.054 304.128L282.594 304.128C279.957 304.125 277.429 303.076 275.565 301.212C273.7 299.349 272.651 296.821 272.648 294.185L272.648 9.94282C272.651 7.30677 273.7 4.77955 275.564 2.91558C277.429 1.05162 279.957 0.00313315 282.594 0.000164558L492.053 0C494.69 0.00296478 497.219 1.05144 499.083 2.9154C500.948 4.77936 501.997 7.30659 502 9.94263L502 294.185C501.997 296.821 500.948 299.348 499.083 301.212C497.219 303.076 494.691 304.125 492.054 304.128ZM282.594 1.16989C280.267 1.17252 278.037 2.09766 276.391 3.74233C274.746 5.38701 273.821 7.6169 273.818 9.94282L273.818 294.185C273.821 296.511 274.746 298.741 276.392 300.386C278.037 302.03 280.268 302.956 282.594 302.958L492.054 302.958C494.38 302.955 496.611 302.03 498.256 300.386C499.902 298.741 500.827 296.511 500.83 294.185L500.83 9.94264C500.827 7.61672 499.901 5.38683 498.256 3.74216C496.611 2.09749 494.38 1.17236 492.053 1.16972L282.594 1.16989Z" fill="#CCCCCC"/>
<path d="M377.98 73.5875C377.98 81.2789 375.698 88.7976 371.423 95.1928C367.149 101.588 361.073 106.572 353.964 109.516C346.856 112.459 339.033 113.229 331.487 111.729C323.94 110.228 317.009 106.525 311.568 101.086C306.127 95.6472 302.422 88.7179 300.921 81.1743C299.42 73.6307 300.19 65.8115 303.135 58.7055C306.079 51.5996 311.065 45.526 317.463 41.2529C323.861 36.9797 331.382 34.699 339.077 34.699C349.393 34.7022 359.287 38.8004 366.582 46.0927C373.877 53.385 377.977 63.2746 377.98 73.5875Z" fill="white"/>
<path d="M357.057 80.2417C356.632 105.113 319.622 105.109 319.201 80.2409C319.626 55.3704 356.636 55.3743 357.057 80.2417Z" fill="#EA580C"/>
<path d="M337.378 87.9614L337.358 87.2544C342.233 87.905 343.283 81.8654 338.367 84.1233L339.489 75.9248L340.19 76.0208L339.235 82.9947C344.412 82.2245 342.497 88.6681 337.378 87.9614Z" fill="#2F2E41"/>
<path d="M347.465 76.6222H343.655V77.3292H347.465V76.6222Z" fill="#2F2E41"/>
<path d="M335.44 76.6222H331.631V77.3292H335.44V76.6222Z" fill="#2F2E41"/>
<path d="M344.265 106.696C345.008 101.686 339.14 102.676 336.035 102.627C335.534 102.628 335.04 102.741 334.589 102.958C334.138 103.174 333.74 103.489 333.426 103.878C333.111 104.268 332.888 104.723 332.771 105.209C332.655 105.696 332.649 106.203 332.753 106.692C330.35 107.435 328.124 108.662 326.214 110.298C334.264 113.104 343.012 113.201 351.122 110.574C349.145 108.799 346.805 107.476 344.265 106.696Z" fill="#2F2E41"/>
<path d="M329.23 71.2927C332.738 69.2662 336.992 70.8209 340.615 71.6709C347.49 73.7834 357.13 71.138 357.966 62.9519C358.836 55.3386 348.418 51.0954 345.088 58.6729L346.057 58.5462C335.257 42.5021 316.472 43.1106 316.595 65.1684C316.555 65.8498 317.616 65.8475 317.656 65.1679C317.258 52.1697 325.864 43.2844 338.029 51.6377C340.746 53.7638 343.141 56.2709 345.141 59.0815C346.408 60.5007 346.683 54.3886 352.747 55.9895C359.42 58.5738 357.243 68.1257 351.278 70.2226C343.908 73.9864 335.927 66.6889 328.695 70.3764C328.578 70.4499 328.495 70.5657 328.462 70.6995C328.43 70.8332 328.45 70.9743 328.52 71.0932C328.589 71.212 328.702 71.2992 328.835 71.3364C328.967 71.3737 329.109 71.358 329.23 71.2927Z" fill="#2F2E41"/>
<path d="M339.077 113.537C329.03 113.528 319.356 109.734 311.984 102.912C304.612 96.0898 300.083 86.7402 299.301 76.728C298.519 66.7159 301.541 56.777 307.765 48.8936C313.989 41.0101 322.956 35.7615 332.88 34.1945C342.803 32.6276 352.953 34.8574 361.304 40.4393C369.656 46.0211 375.596 54.5448 377.939 64.3104C380.283 74.076 378.858 84.3658 373.948 93.1275C369.038 101.889 361.005 108.479 351.451 111.583C347.455 112.882 343.279 113.541 339.077 113.537ZM339.077 35.7595C331.591 35.7585 324.272 37.9766 318.048 42.1334C311.823 46.2902 306.971 52.1989 304.106 59.1122C301.24 66.0256 300.49 73.633 301.951 80.9725C303.411 88.3119 307.016 95.0537 312.309 100.345C317.602 105.636 324.347 109.24 331.689 110.699C339.031 112.159 346.641 111.409 353.557 108.545C360.473 105.681 366.384 100.831 370.543 94.6086C374.701 88.3861 376.92 81.0707 376.919 73.5875C376.907 63.5584 372.917 53.9432 365.823 46.8516C358.728 39.7599 349.11 35.7709 339.077 35.7595Z" fill="#CCCCCC"/>
<path d="M451.505 73.8235L392.235 73.8236C390.991 73.8236 389.799 73.3298 388.919 72.4508C388.04 71.5717 387.546 70.3795 387.546 69.1364C387.546 67.8933 388.04 66.7011 388.919 65.8221C389.799 64.9431 390.991 64.4493 392.235 64.4493L451.505 64.4492C452.748 64.4492 453.941 64.9431 454.82 65.8221C455.7 66.7011 456.194 67.8933 456.194 69.1364C456.194 70.3795 455.7 71.5717 454.82 72.4507C453.941 73.3297 452.748 73.8235 451.505 73.8235Z" fill="#E6E6E6"/>
<path d="M470.846 89.6426L392.235 89.6427C391.619 89.6435 391.008 89.5228 390.439 89.2876C389.869 89.0524 389.352 88.7072 388.916 88.2719C388.48 87.8366 388.134 87.3196 387.898 86.7506C387.662 86.1815 387.54 85.5716 387.54 84.9556C387.54 84.3395 387.662 83.7296 387.898 83.1605C388.134 82.5915 388.48 82.0745 388.916 81.6392C389.352 81.2039 389.869 80.8587 390.439 80.6235C391.008 80.3883 391.619 80.2676 392.235 80.2684L470.846 80.2683C472.09 80.2683 473.283 80.7622 474.162 81.6412C475.041 82.5202 475.535 83.7124 475.535 84.9555C475.535 86.1986 475.041 87.3908 474.162 88.2698C473.283 89.1488 472.09 89.6426 470.846 89.6426Z" fill="#E6E6E6"/>
<path d="M451.418 150.315L303.801 150.316C302.559 150.314 301.368 149.82 300.49 148.941C299.612 148.062 299.118 146.871 299.118 145.628C299.118 144.386 299.612 143.195 300.49 142.316C301.368 141.437 302.559 140.943 303.801 140.941L451.418 140.941C452.662 140.941 453.855 141.435 454.734 142.314C455.613 143.193 456.107 144.385 456.107 145.628C456.107 146.871 455.613 148.064 454.734 148.943C453.855 149.822 452.662 150.315 451.418 150.315Z" fill="#E6E6E6"/>
<path d="M470.76 166.135L303.801 166.135C303.185 166.135 302.575 166.015 302.005 165.78C301.436 165.544 300.918 165.199 300.482 164.764C300.046 164.329 299.7 163.812 299.464 163.243C299.228 162.674 299.107 162.064 299.107 161.448C299.107 160.832 299.228 160.222 299.464 159.653C299.7 159.083 300.046 158.567 300.482 158.131C300.918 157.696 301.436 157.351 302.005 157.116C302.575 156.88 303.185 156.76 303.801 156.76L470.76 156.76C472.004 156.76 473.196 157.254 474.076 158.133C474.955 159.012 475.449 160.204 475.449 161.447C475.449 162.691 474.955 163.883 474.076 164.762C473.196 165.641 472.004 166.135 470.76 166.135Z" fill="#E6E6E6"/>
<path d="M451.418 202.493L303.801 202.493C302.559 202.492 301.368 201.997 300.49 201.118C299.612 200.239 299.118 199.048 299.118 197.806C299.118 196.564 299.612 195.373 300.49 194.494C301.368 193.615 302.559 193.12 303.801 193.119L451.418 193.119C452.662 193.119 453.855 193.613 454.734 194.492C455.613 195.371 456.107 196.563 456.107 197.806C456.107 199.049 455.613 200.241 454.734 201.12C453.855 201.999 452.662 202.493 451.418 202.493Z" fill="#E6E6E6"/>
<path d="M470.76 218.312L303.801 218.312C303.185 218.313 302.575 218.192 302.005 217.957C301.436 217.722 300.918 217.377 300.482 216.941C300.046 216.506 299.7 215.989 299.464 215.42C299.228 214.851 299.107 214.241 299.107 213.625C299.107 213.009 299.228 212.399 299.464 211.83C299.7 211.261 300.046 210.744 300.482 210.309C300.918 209.873 301.436 209.528 302.005 209.293C302.575 209.058 303.185 208.937 303.801 208.938L470.76 208.938C472.004 208.938 473.196 209.432 474.076 210.311C474.955 211.19 475.449 212.382 475.449 213.625C475.449 214.868 474.955 216.06 474.076 216.939C473.196 217.818 472.004 218.312 470.76 218.312Z" fill="#E6E6E6"/>
<path d="M451.418 254.67L303.801 254.671C302.558 254.671 301.365 254.177 300.486 253.298C299.607 252.419 299.113 251.227 299.113 249.983C299.113 248.74 299.607 247.548 300.486 246.669C301.365 245.79 302.558 245.296 303.801 245.296L451.418 245.296C452.662 245.296 453.855 245.79 454.734 246.669C455.613 247.548 456.107 248.74 456.107 249.983C456.107 251.226 455.613 252.419 454.734 253.298C453.855 254.177 452.662 254.67 451.418 254.67Z" fill="#E6E6E6"/>
<path d="M470.76 270.49L303.801 270.49C302.558 270.49 301.365 269.996 300.486 269.117C299.607 268.238 299.113 267.046 299.113 265.803C299.113 264.559 299.607 263.367 300.486 262.488C301.365 261.609 302.558 261.115 303.801 261.115L470.76 261.115C472.004 261.115 473.196 261.609 474.076 262.488C474.955 263.367 475.449 264.559 475.449 265.802C475.449 267.046 474.955 268.238 474.076 269.117C473.196 269.996 472.004 270.49 470.76 270.49Z" fill="#E6E6E6"/>
<path d="M365.676 426.364H156.217C153.58 426.361 151.052 425.312 149.187 423.448C147.322 421.584 146.273 419.057 146.27 416.421V132.179C146.273 129.543 147.322 127.015 149.187 125.151C151.052 123.287 153.58 122.239 156.217 122.236H365.676C368.313 122.239 370.841 123.287 372.706 125.151C374.57 127.015 375.619 129.543 375.622 132.179V416.421C375.619 419.057 374.57 421.584 372.706 423.448C370.841 425.312 368.313 426.361 365.676 426.364Z" fill="white"/>
<path d="M173.686 195.411C173.679 200.53 174.687 205.599 176.65 210.327C178.613 215.054 181.493 219.346 185.124 222.955C185.428 223.256 185.739 223.556 186.054 223.85C187.95 225.62 190.019 227.197 192.229 228.555C192.653 228.817 193.078 229.068 193.513 229.312C195.748 230.571 198.103 231.605 200.544 232.398C200.964 232.536 201.392 232.667 201.82 232.787C209.577 235.011 217.833 234.778 225.452 232.122C225.601 232.069 225.749 232.016 225.894 231.963C232.583 229.531 238.476 225.311 242.932 219.762C247.388 214.214 250.236 207.55 251.166 200.496C252.096 193.442 251.072 186.268 248.206 179.756C245.34 173.243 240.742 167.641 234.912 163.559C229.082 159.477 222.244 157.073 215.142 156.606C208.039 156.14 200.945 157.631 194.631 160.915C188.317 164.2 183.026 169.153 179.333 175.236C175.64 181.318 173.687 188.296 173.686 195.411Z" fill="white"/>
<path d="M204.374 214.472C204.393 217.485 203.282 220.396 201.26 222.63C199.26 224.825 196.282 226.28 193.277 225.678C190.51 225.124 188.261 222.706 188.541 219.781C188.588 219.148 188.772 218.532 189.081 217.977C189.39 217.422 189.817 216.941 190.331 216.568C190.845 216.194 191.434 215.937 192.057 215.815C192.681 215.693 193.324 215.708 193.941 215.859C196.569 216.541 197.617 220.328 195.426 222.105C194.901 222.532 194.146 221.786 194.676 221.355C195.003 221.056 195.25 220.68 195.394 220.261C195.538 219.842 195.575 219.393 195.5 218.957C195.426 218.52 195.243 218.108 194.969 217.761C194.694 217.413 194.337 217.139 193.929 216.965C193.448 216.811 192.938 216.768 192.438 216.841C191.938 216.913 191.461 217.098 191.044 217.381C190.626 217.665 190.278 218.04 190.026 218.477C189.775 218.915 189.626 219.405 189.592 219.908C189.418 222.374 191.308 224.231 193.625 224.668C196.132 225.141 198.617 223.858 200.316 222.088C202.262 220.033 203.337 217.303 203.313 214.472C203.317 214.335 203.375 214.204 203.474 214.109C203.573 214.013 203.706 213.96 203.843 213.96C203.981 213.96 204.113 214.013 204.212 214.109C204.311 214.204 204.369 214.335 204.374 214.472Z" fill="#2F2E41"/>
<path d="M214.734 221.215C225.188 221.215 233.662 212.744 233.662 202.294C233.662 191.844 225.188 183.373 214.734 183.373C204.28 183.373 195.806 191.844 195.806 202.294C195.806 212.744 204.28 221.215 214.734 221.215Z" fill="#EA580C"/>
<path d="M213.766 210.367L213.746 209.66C215.062 209.624 216.222 209.541 217.094 208.904C217.341 208.714 217.544 208.472 217.689 208.196C217.835 207.919 217.919 207.615 217.936 207.303C217.951 207.113 217.922 206.922 217.852 206.744C217.781 206.567 217.67 206.408 217.528 206.28C217.199 206.081 216.822 205.973 216.437 205.97C216.051 205.967 215.673 206.067 215.34 206.261L214.754 206.529L215.877 198.331L216.578 198.426L215.623 205.4C216.014 205.256 216.435 205.211 216.847 205.27C217.26 205.329 217.651 205.491 217.985 205.74C218.209 205.936 218.386 206.182 218.5 206.457C218.614 206.733 218.663 207.031 218.643 207.328C218.622 207.747 218.51 208.156 218.315 208.527C218.119 208.898 217.845 209.222 217.511 209.475C216.391 210.294 214.935 210.334 213.766 210.367Z" fill="#2F2E41"/>
<path d="M223.853 199.028H220.043V199.735H223.853V199.028Z" fill="#2F2E41"/>
<path d="M211.828 199.028H208.019V199.735H211.828V199.028Z" fill="#2F2E41"/>
<path d="M201.82 232.787C209.577 235.011 217.833 234.779 225.452 232.122C225.601 232.069 225.749 232.016 225.894 231.963C224.099 230.579 222.068 229.53 219.9 228.866C220.053 228.323 220.051 227.747 219.893 227.205C219.678 226.517 219.247 225.917 218.664 225.494C218.081 225.071 217.377 224.848 216.657 224.857H212.045C211.326 224.847 210.623 225.07 210.041 225.493C209.459 225.915 209.029 226.515 208.816 227.201C208.658 227.745 208.655 228.321 208.809 228.866C206.899 229.451 205.094 230.335 203.461 231.486C203.132 231.716 202.814 231.956 202.507 232.207C202.273 232.394 202.043 232.589 201.82 232.787Z" fill="#2F2E41"/>
<path d="M229.562 200.287C229.562 203.476 231.132 206.12 233.173 206.58C233.381 206.626 233.593 206.65 233.806 206.65C236.144 206.65 238.05 203.797 238.05 200.287C238.103 198.477 237.525 196.705 236.416 195.274C236.071 194.856 235.647 194.511 235.167 194.259C234.747 194.04 234.28 193.924 233.806 193.923C233.154 193.931 232.522 194.144 231.998 194.531C230.559 195.549 229.562 197.745 229.562 200.287Z" fill="#3F3D56"/>
<path d="M191.72 200.287C191.72 203.03 192.88 205.37 194.506 206.265C194.952 206.514 195.453 206.647 195.964 206.65C196.077 206.65 196.191 206.643 196.303 206.629C198.482 206.371 200.208 203.628 200.208 200.287C200.208 197.61 199.101 195.316 197.537 194.379C197.065 194.086 196.52 193.928 195.964 193.923C195.489 193.924 195.022 194.04 194.602 194.259C194.122 194.512 193.696 194.859 193.35 195.277C192.244 196.709 191.668 198.479 191.72 200.287Z" fill="#3F3D56"/>
<path d="M194.771 205.655C194.855 205.655 194.938 205.635 195.013 205.596C195.088 205.558 195.153 205.502 195.202 205.434C195.251 205.365 195.283 205.286 195.296 205.203C195.308 205.12 195.301 205.035 195.274 204.955C194.26 201.941 193.955 198.734 194.383 195.583C194.81 192.432 195.959 189.422 197.739 186.787C199.52 184.152 201.884 181.963 204.649 180.39C207.413 178.817 210.503 177.902 213.679 177.717C216.854 177.532 220.03 178.081 222.959 179.322C225.887 180.563 228.49 182.463 230.565 184.873C232.64 187.283 234.131 190.139 234.922 193.219C235.714 196.298 235.784 199.519 235.127 202.63C235.099 202.768 235.126 202.911 235.203 203.029C235.279 203.146 235.4 203.229 235.537 203.258C235.675 203.287 235.818 203.26 235.936 203.184C236.054 203.107 236.136 202.987 236.166 202.849C236.856 199.578 236.783 196.192 235.951 192.954C235.12 189.715 233.552 186.712 231.371 184.178C229.189 181.644 226.452 179.647 223.373 178.342C220.294 177.037 216.955 176.46 213.616 176.655C210.277 176.849 207.028 177.811 204.122 179.465C201.216 181.119 198.73 183.421 196.858 186.192C194.986 188.963 193.779 192.127 193.33 195.44C192.881 198.753 193.202 202.125 194.268 205.294C194.304 205.399 194.372 205.49 194.462 205.555C194.552 205.62 194.66 205.655 194.771 205.655Z" fill="#3F3D56"/>
<path d="M224.242 190.035C224.556 190.548 224.687 191.152 224.612 191.748C224.538 192.344 224.263 192.898 223.833 193.318C222.805 194.465 221.167 194.537 219.744 194.324C218.147 194.085 216.454 193.338 214.837 193.842C213.46 194.271 212.477 195.52 211.046 195.834C209.776 196.112 208.258 195.744 207.813 194.391C207.6 193.742 208.624 193.463 208.837 194.109C209.124 194.984 210.367 194.967 211.079 194.725C212.221 194.336 213.1 193.391 214.222 192.94C215.559 192.526 216.991 192.53 218.325 192.951C219.595 193.237 221.055 193.661 222.319 193.127C223.255 192.732 223.999 191.488 223.326 190.57C222.922 190.019 223.843 189.489 224.242 190.035Z" fill="#2F2E41"/>
<path d="M212.589 235.361C208.847 235.364 205.123 234.84 201.526 233.806C201.104 233.687 200.659 233.552 200.213 233.406C197.707 232.591 195.289 231.529 192.992 230.236C192.562 229.994 192.129 229.74 191.672 229.458C189.402 228.062 187.277 226.443 185.329 224.624C185.008 224.325 184.69 224.017 184.378 223.71C178.252 217.605 174.274 209.677 173.04 201.119C171.807 192.56 173.385 183.832 177.537 176.247C181.689 168.661 188.192 162.627 196.068 159.052C203.944 155.476 212.768 154.551 221.215 156.417C229.661 158.283 237.274 162.838 242.909 169.398C248.545 175.958 251.899 184.169 252.467 192.797C253.036 201.425 250.788 210.005 246.062 217.247C241.335 224.49 234.386 230.003 226.257 232.96C226.111 233.013 225.96 233.067 225.809 233.121C221.561 234.608 217.091 235.365 212.589 235.361ZM212.589 157.584C205.1 157.584 197.779 159.806 191.553 163.968C185.327 168.13 180.477 174.045 177.616 180.964C174.756 187.883 174.013 195.496 175.483 202.837C176.953 210.178 180.569 216.918 185.873 222.204C186.166 222.494 186.47 222.787 186.778 223.074C188.622 224.796 190.635 226.33 192.785 227.652C193.218 227.919 193.625 228.159 194.032 228.387C196.207 229.611 198.498 230.617 200.871 231.389C201.291 231.527 201.706 231.653 202.107 231.766C209.654 233.931 217.687 233.706 225.101 231.121L225.53 230.967C233.891 227.925 240.912 222.035 245.361 214.333C249.81 206.63 251.402 197.608 249.857 188.848C248.312 180.089 243.73 172.154 236.915 166.437C230.099 160.719 221.487 157.585 212.589 157.584Z" fill="#CCCCCC"/>
<path d="M365.676 426.364H156.217C153.58 426.361 151.052 425.312 149.187 423.448C147.322 421.584 146.273 419.057 146.27 416.421V132.179C146.273 129.543 147.322 127.015 149.187 125.151C151.052 123.287 153.58 122.239 156.217 122.236H365.676C368.313 122.239 370.841 123.287 372.706 125.151C374.57 127.015 375.619 129.543 375.622 132.179V416.421C375.619 419.057 374.57 421.584 372.706 423.448C370.841 425.312 368.313 426.361 365.676 426.364ZM156.217 123.406C153.89 123.408 151.659 124.334 150.014 125.978C148.369 127.623 147.443 129.853 147.441 132.179V416.421C147.443 418.747 148.369 420.977 150.014 422.622C151.659 424.266 153.89 425.191 156.217 425.194H365.676C368.003 425.191 370.233 424.266 371.879 422.622C373.524 420.977 374.45 418.747 374.452 416.421V132.179C374.45 129.853 373.524 127.623 371.879 125.978C370.233 124.334 368.003 123.408 365.676 123.406H156.217Z" fill="#3F3D56"/>
<path d="M325.127 196.06H265.857C264.614 196.06 263.421 195.566 262.542 194.687C261.662 193.808 261.168 192.616 261.168 191.372C261.168 190.129 261.662 188.937 262.542 188.058C263.421 187.179 264.614 186.685 265.857 186.685H325.127C326.371 186.685 327.563 187.179 328.443 188.058C329.322 188.937 329.816 190.129 329.816 191.372C329.816 192.616 329.322 193.808 328.443 194.687C327.563 195.566 326.371 196.06 325.127 196.06Z" fill="#EA580C"/>
<path d="M344.469 211.879H265.857C264.614 211.879 263.421 211.385 262.542 210.506C261.662 209.627 261.168 208.435 261.168 207.192C261.168 205.948 261.662 204.756 262.542 203.877C263.421 202.998 264.614 202.504 265.857 202.504H344.469C345.712 202.504 346.905 202.998 347.784 203.877C348.664 204.756 349.158 205.948 349.158 207.192C349.158 208.435 348.664 209.627 347.784 210.506C346.905 211.385 345.712 211.879 344.469 211.879Z" fill="#EA580C"/>
<path d="M325.041 272.551H177.424C176.18 272.551 174.988 272.058 174.108 271.179C173.229 270.3 172.735 269.107 172.735 267.864C172.735 266.621 173.229 265.429 174.108 264.55C174.988 263.671 176.18 263.177 177.424 263.177H325.041C326.284 263.177 327.477 263.671 328.356 264.55C329.236 265.429 329.73 266.621 329.73 267.864C329.73 269.107 329.236 270.3 328.356 271.179C327.477 272.058 326.284 272.551 325.041 272.551Z" fill="#CCCCCC"/>
<path d="M344.383 288.371H177.424C176.18 288.371 174.988 287.877 174.108 286.998C173.229 286.119 172.735 284.927 172.735 283.683C172.735 282.44 173.229 281.248 174.108 280.369C174.988 279.49 176.18 278.996 177.424 278.996H344.383C345.626 278.996 346.819 279.49 347.698 280.369C348.577 281.248 349.071 282.44 349.071 283.683C349.071 284.927 348.577 286.119 347.698 286.998C346.819 287.877 345.626 288.371 344.383 288.371Z" fill="#CCCCCC"/>
<path d="M325.041 324.729H177.424C176.181 324.727 174.99 324.233 174.112 323.354C173.234 322.475 172.741 321.284 172.741 320.042C172.741 318.8 173.234 317.608 174.112 316.73C174.99 315.851 176.181 315.356 177.424 315.355H325.041C326.284 315.355 327.477 315.849 328.356 316.728C329.236 317.607 329.73 318.799 329.73 320.042C329.73 321.285 329.236 322.477 328.356 323.356C327.477 324.235 326.284 324.729 325.041 324.729Z" fill="#CCCCCC"/>
<path d="M344.383 340.548H177.424C176.181 340.547 174.99 340.052 174.112 339.173C173.234 338.294 172.741 337.103 172.741 335.861C172.741 334.619 173.234 333.428 174.112 332.549C174.99 331.67 176.181 331.175 177.424 331.174H344.383C345.626 331.174 346.819 331.668 347.698 332.547C348.577 333.426 349.071 334.618 349.071 335.861C349.071 337.104 348.577 338.296 347.698 339.175C346.819 340.054 345.626 340.548 344.383 340.548Z" fill="#CCCCCC"/>
<path d="M325.041 376.906H177.424C176.18 376.906 174.988 376.413 174.108 375.534C173.229 374.655 172.735 373.462 172.735 372.219C172.735 370.976 173.229 369.784 174.108 368.905C174.988 368.026 176.18 367.532 177.424 367.532H325.041C326.284 367.532 327.477 368.026 328.356 368.905C329.236 369.784 329.73 370.976 329.73 372.219C329.73 373.462 329.236 374.655 328.356 375.534C327.477 376.413 326.284 376.906 325.041 376.906Z" fill="#CCCCCC"/>
<path d="M344.383 392.726H177.424C176.18 392.726 174.988 392.232 174.108 391.353C173.229 390.474 172.735 389.282 172.735 388.038C172.735 386.795 173.229 385.603 174.108 384.724C174.988 383.845 176.18 383.351 177.424 383.351H344.383C345.626 383.351 346.819 383.845 347.698 384.724C348.577 385.603 349.071 386.795 349.071 388.038C349.071 389.282 348.577 390.474 347.698 391.353C346.819 392.232 345.626 392.726 344.383 392.726Z" fill="#CCCCCC"/>
<path d="M363.245 361.639C357.174 361.633 351.161 362.822 345.551 365.14C339.94 367.458 334.841 370.858 330.545 375.147C326.25 379.436 322.843 384.529 320.518 390.135C318.193 395.741 316.996 401.751 316.996 407.82C316.996 413.888 318.193 419.898 320.518 425.504C322.842 431.11 326.25 436.203 330.545 440.492C334.84 444.781 339.939 448.182 345.55 450.499C351.161 452.817 357.174 454.007 363.245 454C375.483 453.978 387.213 449.103 395.859 440.445C404.506 431.787 409.362 420.053 409.362 407.82C409.362 395.586 404.506 383.852 395.859 375.194C387.213 366.536 375.484 361.661 363.245 361.639Z" fill="#EA580C"/>
<path d="M358.862 426.999C357.646 427.001 356.462 426.607 355.489 425.878L355.429 425.833L342.724 416.118C341.537 415.207 340.761 413.862 340.566 412.379C340.37 410.896 340.772 409.396 341.683 408.209C342.593 407.021 343.938 406.244 345.421 406.048C346.905 405.851 348.406 406.251 349.594 407.16L357.823 413.468L377.268 388.109C377.719 387.521 378.282 387.028 378.923 386.657C379.565 386.286 380.273 386.046 381.008 385.949C381.743 385.852 382.489 385.9 383.205 386.092C383.921 386.283 384.592 386.614 385.181 387.064L385.182 387.066L385.062 387.233L385.185 387.066C386.372 387.977 387.148 389.322 387.344 390.805C387.54 392.288 387.139 393.788 386.229 394.976L363.357 424.791C362.828 425.478 362.148 426.034 361.369 426.415C360.59 426.797 359.734 426.994 358.867 426.992L358.862 426.999Z" fill="white"/>
</g>
<defs>
<clipPath id="clip0_4_3284">
<rect width="502" height="454" fill="white"/>
</clipPath>
</defs>
</svg>
