<svg width="634" height="1024" viewBox="0 0 634 1024" fill="none" xmlns="http://www.w3.org/2000/svg">
<circle cx="47" cy="439" r="587" fill="#EA580C"/>
<g clip-path="url(#clip0_79_2241)">
<path d="M-2.64957 689.836C0.0420532 689.836 2.22405 687.654 2.22405 684.963C2.22405 682.271 0.0420532 680.089 -2.64957 680.089C-5.3412 680.089 -7.52319 682.271 -7.52319 684.963C-7.52319 687.654 -5.3412 689.836 -2.64957 689.836Z" fill="#FB923C"/>
<path d="M22.1753 689.836C24.8669 689.836 27.0489 687.654 27.0489 684.963C27.0489 682.271 24.8669 680.089 22.1753 680.089C19.4836 680.089 17.3016 682.271 17.3016 684.963C17.3016 687.654 19.4836 689.836 22.1753 689.836Z" fill="#FB923C"/>
<path d="M47 689.836C49.6916 689.836 51.8736 687.654 51.8736 684.963C51.8736 682.271 49.6916 680.089 47 680.089C44.3083 680.089 42.1263 682.271 42.1263 684.963C42.1263 687.654 44.3083 689.836 47 689.836Z" fill="#FB923C"/>
<path d="M71.8248 689.836C74.5164 689.836 76.6984 687.654 76.6984 684.963C76.6984 682.271 74.5164 680.089 71.8248 680.089C69.1332 680.089 66.9512 682.271 66.9512 684.963C66.9512 687.654 69.1332 689.836 71.8248 689.836Z" fill="#FB923C"/>
<path d="M96.6495 689.836C99.3411 689.836 101.523 687.654 101.523 684.963C101.523 682.271 99.3411 680.089 96.6495 680.089C93.9579 680.089 91.7759 682.271 91.7759 684.963C91.7759 687.654 93.9579 689.836 96.6495 689.836Z" fill="#FB923C"/>
<path d="M121.477 689.836C124.169 689.836 126.351 687.654 126.351 684.963C126.351 682.271 124.169 680.089 121.477 680.089C118.785 680.089 116.603 682.271 116.603 684.963C116.603 687.654 118.785 689.836 121.477 689.836Z" fill="#FB923C"/>
<path d="M146.302 689.836C148.993 689.836 151.175 687.654 151.175 684.963C151.175 682.271 148.993 680.089 146.302 680.089C143.61 680.089 141.428 682.271 141.428 684.963C141.428 687.654 143.61 689.836 146.302 689.836Z" fill="#FB923C"/>
<path d="M171.126 689.836C173.818 689.836 176 687.654 176 684.963C176 682.271 173.818 680.089 171.126 680.089C168.435 680.089 166.253 682.271 166.253 684.963C166.253 687.654 168.435 689.836 171.126 689.836Z" fill="#FB923C"/>
<path d="M-2.64957 713.095C0.0420532 713.095 2.22405 710.913 2.22405 708.221C2.22405 705.53 0.0420532 703.348 -2.64957 703.348C-5.3412 703.348 -7.52319 705.53 -7.52319 708.221C-7.52319 710.913 -5.3412 713.095 -2.64957 713.095Z" fill="#FB923C"/>
<path d="M22.1753 713.095C24.8669 713.095 27.0489 710.913 27.0489 708.221C27.0489 705.53 24.8669 703.348 22.1753 703.348C19.4836 703.348 17.3016 705.53 17.3016 708.221C17.3016 710.913 19.4836 713.095 22.1753 713.095Z" fill="#FB923C"/>
<path d="M47 713.095C49.6916 713.095 51.8736 710.913 51.8736 708.221C51.8736 705.53 49.6916 703.348 47 703.348C44.3083 703.348 42.1263 705.53 42.1263 708.221C42.1263 710.913 44.3083 713.095 47 713.095Z" fill="#FB923C"/>
<path d="M71.8248 713.095C74.5164 713.095 76.6984 710.913 76.6984 708.221C76.6984 705.53 74.5164 703.348 71.8248 703.348C69.1332 703.348 66.9512 705.53 66.9512 708.221C66.9512 710.913 69.1332 713.095 71.8248 713.095Z" fill="#FB923C"/>
<path d="M96.6495 713.095C99.3411 713.095 101.523 710.913 101.523 708.221C101.523 705.53 99.3411 703.348 96.6495 703.348C93.9579 703.348 91.7759 705.53 91.7759 708.221C91.7759 710.913 93.9579 713.095 96.6495 713.095Z" fill="#FB923C"/>
<path d="M121.477 713.095C124.169 713.095 126.351 710.913 126.351 708.221C126.351 705.53 124.169 703.348 121.477 703.348C118.785 703.348 116.603 705.53 116.603 708.221C116.603 710.913 118.785 713.095 121.477 713.095Z" fill="#FB923C"/>
<path d="M146.302 713.095C148.993 713.095 151.175 710.913 151.175 708.221C151.175 705.53 148.993 703.348 146.302 703.348C143.61 703.348 141.428 705.53 141.428 708.221C141.428 710.913 143.61 713.095 146.302 713.095Z" fill="#FB923C"/>
<path d="M171.126 713.095C173.818 713.095 176 710.913 176 708.221C176 705.53 173.818 703.348 171.126 703.348C168.435 703.348 166.253 705.53 166.253 708.221C166.253 710.913 168.435 713.095 171.126 713.095Z" fill="#FB923C"/>
<path d="M-2.64957 736.354C0.0420532 736.354 2.22405 734.172 2.22405 731.48C2.22405 728.788 0.0420532 726.606 -2.64957 726.606C-5.3412 726.606 -7.52319 728.788 -7.52319 731.48C-7.52319 734.172 -5.3412 736.354 -2.64957 736.354Z" fill="#FB923C"/>
<path d="M22.1753 736.354C24.8669 736.354 27.0489 734.172 27.0489 731.48C27.0489 728.788 24.8669 726.606 22.1753 726.606C19.4836 726.606 17.3016 728.788 17.3016 731.48C17.3016 734.172 19.4836 736.354 22.1753 736.354Z" fill="#FB923C"/>
<path d="M47 736.354C49.6916 736.354 51.8736 734.172 51.8736 731.48C51.8736 728.788 49.6916 726.606 47 726.606C44.3083 726.606 42.1263 728.788 42.1263 731.48C42.1263 734.172 44.3083 736.354 47 736.354Z" fill="#FB923C"/>
<path d="M71.8248 736.354C74.5164 736.354 76.6984 734.172 76.6984 731.48C76.6984 728.788 74.5164 726.606 71.8248 726.606C69.1332 726.606 66.9512 728.788 66.9512 731.48C66.9512 734.172 69.1332 736.354 71.8248 736.354Z" fill="#FB923C"/>
<path d="M96.6495 736.354C99.3411 736.354 101.523 734.172 101.523 731.48C101.523 728.788 99.3411 726.606 96.6495 726.606C93.9579 726.606 91.7759 728.788 91.7759 731.48C91.7759 734.172 93.9579 736.354 96.6495 736.354Z" fill="#FB923C"/>
<path d="M121.477 736.354C124.169 736.354 126.351 734.172 126.351 731.48C126.351 728.788 124.169 726.606 121.477 726.606C118.785 726.606 116.603 728.788 116.603 731.48C116.603 734.172 118.785 736.354 121.477 736.354Z" fill="#FB923C"/>
<path d="M146.302 736.354C148.993 736.354 151.175 734.172 151.175 731.48C151.175 728.788 148.993 726.606 146.302 726.606C143.61 726.606 141.428 728.788 141.428 731.48C141.428 734.172 143.61 736.354 146.302 736.354Z" fill="#FB923C"/>
<path d="M171.126 736.354C173.818 736.354 176 734.172 176 731.48C176 728.788 173.818 726.606 171.126 726.606C168.435 726.606 166.253 728.788 166.253 731.48C166.253 734.172 168.435 736.354 171.126 736.354Z" fill="#FB923C"/>
<path d="M-2.64957 759.615C0.0420532 759.615 2.22405 757.433 2.22405 754.741C2.22405 752.05 0.0420532 749.868 -2.64957 749.868C-5.3412 749.868 -7.52319 752.05 -7.52319 754.741C-7.52319 757.433 -5.3412 759.615 -2.64957 759.615Z" fill="#FB923C"/>
<path d="M22.1753 759.615C24.8669 759.615 27.0489 757.433 27.0489 754.741C27.0489 752.05 24.8669 749.868 22.1753 749.868C19.4836 749.868 17.3016 752.05 17.3016 754.741C17.3016 757.433 19.4836 759.615 22.1753 759.615Z" fill="#FB923C"/>
<path d="M47 759.615C49.6916 759.615 51.8736 757.433 51.8736 754.741C51.8736 752.05 49.6916 749.868 47 749.868C44.3083 749.868 42.1263 752.05 42.1263 754.741C42.1263 757.433 44.3083 759.615 47 759.615Z" fill="#FB923C"/>
<path d="M71.8248 759.615C74.5164 759.615 76.6984 757.433 76.6984 754.741C76.6984 752.05 74.5164 749.868 71.8248 749.868C69.1332 749.868 66.9512 752.05 66.9512 754.741C66.9512 757.433 69.1332 759.615 71.8248 759.615Z" fill="#FB923C"/>
<path d="M96.6495 759.615C99.3411 759.615 101.523 757.433 101.523 754.741C101.523 752.05 99.3411 749.868 96.6495 749.868C93.9579 749.868 91.7759 752.05 91.7759 754.741C91.7759 757.433 93.9579 759.615 96.6495 759.615Z" fill="#FB923C"/>
<path d="M121.477 759.615C124.169 759.615 126.351 757.433 126.351 754.741C126.351 752.05 124.169 749.868 121.477 749.868C118.785 749.868 116.603 752.05 116.603 754.741C116.603 757.433 118.785 759.615 121.477 759.615Z" fill="#FB923C"/>
<path d="M146.302 759.615C148.993 759.615 151.175 757.433 151.175 754.741C151.175 752.05 148.993 749.868 146.302 749.868C143.61 749.868 141.428 752.05 141.428 754.741C141.428 757.433 143.61 759.615 146.302 759.615Z" fill="#FB923C"/>
<path d="M171.126 759.615C173.818 759.615 176 757.433 176 754.741C176 752.05 173.818 749.868 171.126 749.868C168.435 749.868 166.253 752.05 166.253 754.741C166.253 757.433 168.435 759.615 171.126 759.615Z" fill="#FB923C"/>
<path d="M-2.64957 782.874C0.0420532 782.874 2.22405 780.692 2.22405 778C2.22405 775.308 0.0420532 773.126 -2.64957 773.126C-5.3412 773.126 -7.52319 775.308 -7.52319 778C-7.52319 780.692 -5.3412 782.874 -2.64957 782.874Z" fill="#FB923C"/>
<path d="M22.1753 782.874C24.8669 782.874 27.0489 780.692 27.0489 778C27.0489 775.308 24.8669 773.126 22.1753 773.126C19.4836 773.126 17.3016 775.308 17.3016 778C17.3016 780.692 19.4836 782.874 22.1753 782.874Z" fill="#FB923C"/>
<path d="M47 782.874C49.6916 782.874 51.8736 780.692 51.8736 778C51.8736 775.308 49.6916 773.126 47 773.126C44.3083 773.126 42.1263 775.308 42.1263 778C42.1263 780.692 44.3083 782.874 47 782.874Z" fill="#FB923C"/>
<path d="M71.8248 782.874C74.5164 782.874 76.6984 780.692 76.6984 778C76.6984 775.308 74.5164 773.126 71.8248 773.126C69.1332 773.126 66.9512 775.308 66.9512 778C66.9512 780.692 69.1332 782.874 71.8248 782.874Z" fill="#FB923C"/>
<path d="M96.6495 782.874C99.3411 782.874 101.523 780.692 101.523 778C101.523 775.308 99.3411 773.126 96.6495 773.126C93.9579 773.126 91.7759 775.308 91.7759 778C91.7759 780.692 93.9579 782.874 96.6495 782.874Z" fill="#FB923C"/>
<path d="M121.477 782.874C124.169 782.874 126.351 780.692 126.351 778C126.351 775.308 124.169 773.126 121.477 773.126C118.785 773.126 116.603 775.308 116.603 778C116.603 780.692 118.785 782.874 121.477 782.874Z" fill="#FB923C"/>
<path d="M146.302 782.874C148.993 782.874 151.175 780.692 151.175 778C151.175 775.308 148.993 773.126 146.302 773.126C143.61 773.126 141.428 775.308 141.428 778C141.428 780.692 143.61 782.874 146.302 782.874Z" fill="#FB923C"/>
<path d="M171.126 782.874C173.818 782.874 176 780.692 176 778C176 775.308 173.818 773.126 171.126 773.126C168.435 773.126 166.253 775.308 166.253 778C166.253 780.692 168.435 782.874 171.126 782.874Z" fill="#FB923C"/>
<path d="M-2.64957 806.132C0.0420532 806.132 2.22405 803.95 2.22405 801.259C2.22405 798.567 0.0420532 796.385 -2.64957 796.385C-5.3412 796.385 -7.52319 798.567 -7.52319 801.259C-7.52319 803.95 -5.3412 806.132 -2.64957 806.132Z" fill="#FB923C"/>
<path d="M22.1753 806.132C24.8669 806.132 27.0489 803.95 27.0489 801.259C27.0489 798.567 24.8669 796.385 22.1753 796.385C19.4836 796.385 17.3016 798.567 17.3016 801.259C17.3016 803.95 19.4836 806.132 22.1753 806.132Z" fill="#FB923C"/>
<path d="M47 806.132C49.6916 806.132 51.8736 803.95 51.8736 801.259C51.8736 798.567 49.6916 796.385 47 796.385C44.3083 796.385 42.1263 798.567 42.1263 801.259C42.1263 803.95 44.3083 806.132 47 806.132Z" fill="#FB923C"/>
<path d="M71.8248 806.132C74.5164 806.132 76.6984 803.95 76.6984 801.259C76.6984 798.567 74.5164 796.385 71.8248 796.385C69.1332 796.385 66.9512 798.567 66.9512 801.259C66.9512 803.95 69.1332 806.132 71.8248 806.132Z" fill="#FB923C"/>
<path d="M96.6495 806.132C99.3411 806.132 101.523 803.95 101.523 801.259C101.523 798.567 99.3411 796.385 96.6495 796.385C93.9579 796.385 91.7759 798.567 91.7759 801.259C91.7759 803.95 93.9579 806.132 96.6495 806.132Z" fill="#FB923C"/>
<path d="M121.477 806.132C124.169 806.132 126.351 803.95 126.351 801.259C126.351 798.567 124.169 796.385 121.477 796.385C118.785 796.385 116.603 798.567 116.603 801.259C116.603 803.95 118.785 806.132 121.477 806.132Z" fill="#FB923C"/>
<path d="M146.302 806.132C148.993 806.132 151.175 803.95 151.175 801.259C151.175 798.567 148.993 796.385 146.302 796.385C143.61 796.385 141.428 798.567 141.428 801.259C141.428 803.95 143.61 806.132 146.302 806.132Z" fill="#FB923C"/>
<path d="M171.126 806.132C173.818 806.132 176 803.95 176 801.259C176 798.567 173.818 796.385 171.126 796.385C168.435 796.385 166.253 798.567 166.253 801.259C166.253 803.95 168.435 806.132 171.126 806.132Z" fill="#FB923C"/>
<path d="M-2.64957 829.394C0.0420532 829.394 2.22405 827.212 2.22405 824.52C2.22405 821.828 0.0420532 819.646 -2.64957 819.646C-5.3412 819.646 -7.52319 821.828 -7.52319 824.52C-7.52319 827.212 -5.3412 829.394 -2.64957 829.394Z" fill="#FB923C"/>
<path d="M22.1753 829.394C24.8669 829.394 27.0489 827.212 27.0489 824.52C27.0489 821.828 24.8669 819.646 22.1753 819.646C19.4836 819.646 17.3016 821.828 17.3016 824.52C17.3016 827.212 19.4836 829.394 22.1753 829.394Z" fill="#FB923C"/>
<path d="M47 829.394C49.6916 829.394 51.8736 827.212 51.8736 824.52C51.8736 821.828 49.6916 819.646 47 819.646C44.3083 819.646 42.1263 821.828 42.1263 824.52C42.1263 827.212 44.3083 829.394 47 829.394Z" fill="#FB923C"/>
<path d="M71.8248 829.394C74.5164 829.394 76.6984 827.212 76.6984 824.52C76.6984 821.828 74.5164 819.646 71.8248 819.646C69.1332 819.646 66.9512 821.828 66.9512 824.52C66.9512 827.212 69.1332 829.394 71.8248 829.394Z" fill="#FB923C"/>
<path d="M96.6495 829.394C99.3411 829.394 101.523 827.212 101.523 824.52C101.523 821.828 99.3411 819.646 96.6495 819.646C93.9579 819.646 91.7759 821.828 91.7759 824.52C91.7759 827.212 93.9579 829.394 96.6495 829.394Z" fill="#FB923C"/>
<path d="M121.477 829.394C124.169 829.394 126.351 827.212 126.351 824.52C126.351 821.828 124.169 819.646 121.477 819.646C118.785 819.646 116.603 821.828 116.603 824.52C116.603 827.212 118.785 829.394 121.477 829.394Z" fill="#FB923C"/>
<path d="M146.302 829.394C148.993 829.394 151.175 827.212 151.175 824.52C151.175 821.828 148.993 819.646 146.302 819.646C143.61 819.646 141.428 821.828 141.428 824.52C141.428 827.212 143.61 829.394 146.302 829.394Z" fill="#FB923C"/>
<path d="M171.126 829.394C173.818 829.394 176 827.212 176 824.52C176 821.828 173.818 819.646 171.126 819.646C168.435 819.646 166.253 821.828 166.253 824.52C166.253 827.212 168.435 829.394 171.126 829.394Z" fill="#FB923C"/>
<path d="M-2.64957 852.652C0.0420532 852.652 2.22405 850.47 2.22405 847.779C2.22405 845.087 0.0420532 842.905 -2.64957 842.905C-5.3412 842.905 -7.52319 845.087 -7.52319 847.779C-7.52319 850.47 -5.3412 852.652 -2.64957 852.652Z" fill="#FB923C"/>
<path d="M22.1753 852.652C24.8669 852.652 27.0489 850.47 27.0489 847.779C27.0489 845.087 24.8669 842.905 22.1753 842.905C19.4836 842.905 17.3016 845.087 17.3016 847.779C17.3016 850.47 19.4836 852.652 22.1753 852.652Z" fill="#FB923C"/>
<path d="M47 852.652C49.6916 852.652 51.8736 850.47 51.8736 847.779C51.8736 845.087 49.6916 842.905 47 842.905C44.3083 842.905 42.1263 845.087 42.1263 847.779C42.1263 850.47 44.3083 852.652 47 852.652Z" fill="#FB923C"/>
<path d="M71.8248 852.652C74.5164 852.652 76.6984 850.47 76.6984 847.779C76.6984 845.087 74.5164 842.905 71.8248 842.905C69.1332 842.905 66.9512 845.087 66.9512 847.779C66.9512 850.47 69.1332 852.652 71.8248 852.652Z" fill="#FB923C"/>
<path d="M96.6495 852.652C99.3411 852.652 101.523 850.47 101.523 847.779C101.523 845.087 99.3411 842.905 96.6495 842.905C93.9579 842.905 91.7759 845.087 91.7759 847.779C91.7759 850.47 93.9579 852.652 96.6495 852.652Z" fill="#FB923C"/>
<path d="M121.477 852.652C124.169 852.652 126.351 850.47 126.351 847.779C126.351 845.087 124.169 842.905 121.477 842.905C118.785 842.905 116.603 845.087 116.603 847.779C116.603 850.47 118.785 852.652 121.477 852.652Z" fill="#FB923C"/>
<path d="M146.302 852.652C148.993 852.652 151.175 850.47 151.175 847.779C151.175 845.087 148.993 842.905 146.302 842.905C143.61 842.905 141.428 845.087 141.428 847.779C141.428 850.47 143.61 852.652 146.302 852.652Z" fill="#FB923C"/>
<path d="M171.126 852.652C173.818 852.652 176 850.47 176 847.779C176 845.087 173.818 842.905 171.126 842.905C168.435 842.905 166.253 845.087 166.253 847.779C166.253 850.47 168.435 852.652 171.126 852.652Z" fill="#FB923C"/>
<path d="M-2.64957 875.911C0.0420532 875.911 2.22405 873.729 2.22405 871.037C2.22405 868.346 0.0420532 866.164 -2.64957 866.164C-5.3412 866.164 -7.52319 868.346 -7.52319 871.037C-7.52319 873.729 -5.3412 875.911 -2.64957 875.911Z" fill="#FB923C"/>
<path d="M22.1753 875.911C24.8669 875.911 27.0489 873.729 27.0489 871.037C27.0489 868.346 24.8669 866.164 22.1753 866.164C19.4836 866.164 17.3016 868.346 17.3016 871.037C17.3016 873.729 19.4836 875.911 22.1753 875.911Z" fill="#FB923C"/>
<path d="M47 875.911C49.6916 875.911 51.8736 873.729 51.8736 871.037C51.8736 868.346 49.6916 866.164 47 866.164C44.3083 866.164 42.1263 868.346 42.1263 871.037C42.1263 873.729 44.3083 875.911 47 875.911Z" fill="#FB923C"/>
<path d="M71.8248 875.911C74.5164 875.911 76.6984 873.729 76.6984 871.037C76.6984 868.346 74.5164 866.164 71.8248 866.164C69.1332 866.164 66.9512 868.346 66.9512 871.037C66.9512 873.729 69.1332 875.911 71.8248 875.911Z" fill="#FB923C"/>
<path d="M96.6495 875.911C99.3411 875.911 101.523 873.729 101.523 871.037C101.523 868.346 99.3411 866.164 96.6495 866.164C93.9579 866.164 91.7759 868.346 91.7759 871.037C91.7759 873.729 93.9579 875.911 96.6495 875.911Z" fill="#FB923C"/>
<path d="M121.477 875.911C124.169 875.911 126.351 873.729 126.351 871.037C126.351 868.346 124.169 866.164 121.477 866.164C118.785 866.164 116.603 868.346 116.603 871.037C116.603 873.729 118.785 875.911 121.477 875.911Z" fill="#FB923C"/>
<path d="M146.302 875.911C148.993 875.911 151.175 873.729 151.175 871.037C151.175 868.346 148.993 866.164 146.302 866.164C143.61 866.164 141.428 868.346 141.428 871.037C141.428 873.729 143.61 875.911 146.302 875.911Z" fill="#FB923C"/>
<path d="M171.126 875.911C173.818 875.911 176 873.729 176 871.037C176 868.346 173.818 866.164 171.126 866.164C168.435 866.164 166.253 868.346 166.253 871.037C166.253 873.729 168.435 875.911 171.126 875.911Z" fill="#FB923C"/>
</g>
<g clip-path="url(#clip1_79_2241)">
<path d="M230.678 269.796L190.936 237.84L174.307 224.436L164.968 154.77L221.296 200.152L230.678 269.796Z" fill="#F97316"/>
<path d="M230.678 269.796L62.7601 478.4L-143.179 311.946L-112.899 274.327L-95.3029 252.461L54.597 373.121L174.307 224.436L190.936 237.84L230.678 269.796Z" fill="#FB923C"/>
<path d="M54.597 373.121L-95.3029 252.461L-107.205 185.985L42.6951 306.645L54.597 373.121Z" fill="#F97316"/>
<path d="M174.307 224.436L54.597 373.121L42.6951 306.645L164.968 154.77L174.307 224.436Z" fill="#111111"/>
</g>
<g clip-path="url(#clip2_79_2241)">
<path d="M585.132 647.956C573.024 610.061 546.357 578.528 510.999 560.295C475.641 542.061 434.488 538.62 396.593 550.729C358.698 562.838 327.166 589.505 308.932 624.863C290.699 660.221 287.258 701.374 299.367 739.268L343.836 725.871C335.476 699.708 337.852 671.295 350.44 646.883C363.029 622.471 384.8 604.06 410.963 595.7C437.127 587.34 465.539 589.716 489.951 602.304C514.363 614.893 532.774 636.664 541.134 662.827L585.132 647.956Z" fill="#F97316"/>
</g>
<path d="M559.1 172.698L536.303 149.9L451 235.202L365.698 149.9L342.9 172.698L428.202 258L342.9 343.303L365.698 366.1L451 280.798L536.303 366.1L559.1 343.303L473.798 258L559.1 172.698Z" stroke="#F97316" stroke-width="6" stroke-linecap="round" stroke-linejoin="round"/>
<defs>
<clipPath id="clip0_79_2241">
<rect width="258" height="258" fill="white" transform="translate(-82 649)"/>
</clipPath>
<clipPath id="clip1_79_2241">
<rect width="316" height="316" fill="white" transform="translate(15.6404 34) rotate(38.9476)"/>
</clipPath>
<clipPath id="clip2_79_2241">
<rect width="300" height="300" fill="white" transform="translate(231 525.313) rotate(-17.7206)"/>
</clipPath>
</defs>
</svg>
