<svg width="393" height="242" viewBox="0 0 393 242" fill="none" xmlns="http://www.w3.org/2000/svg">
<rect y="0.00012207" width="393" height="242" fill="#EA580C"/>
<g clip-path="url(#clip0_1529_1128)">
<path d="M277.766 188.824C277.766 188.083 277.165 187.481 276.423 187.481C275.682 187.481 275.08 188.083 275.08 188.824C275.08 189.566 275.682 190.167 276.423 190.167C277.165 190.167 277.766 189.566 277.766 188.824Z" fill="#FB923C"/>
<path d="M277.766 181.983C277.766 181.242 277.165 180.64 276.423 180.64C275.682 180.64 275.08 181.242 275.08 181.983C275.08 182.725 275.682 183.326 276.423 183.326C277.165 183.326 277.766 182.725 277.766 181.983Z" fill="#FB923C"/>
<path d="M277.766 175.142C277.766 174.4 277.165 173.799 276.423 173.799C275.682 173.799 275.08 174.4 275.08 175.142C275.08 175.884 275.682 176.485 276.423 176.485C277.165 176.485 277.766 175.884 277.766 175.142Z" fill="#FB923C"/>
<path d="M277.766 168.3C277.766 167.559 277.165 166.957 276.423 166.957C275.682 166.957 275.08 167.559 275.08 168.3C275.08 169.042 275.682 169.643 276.423 169.643C277.165 169.643 277.766 169.042 277.766 168.3Z" fill="#FB923C"/>
<path d="M277.766 161.459C277.766 160.718 277.165 160.116 276.423 160.116C275.682 160.116 275.08 160.718 275.08 161.459C275.08 162.201 275.682 162.802 276.423 162.802C277.165 162.802 277.766 162.201 277.766 161.459Z" fill="#FB923C"/>
<path d="M277.766 154.618C277.766 153.877 277.165 153.275 276.423 153.275C275.682 153.275 275.08 153.877 275.08 154.618C275.08 155.36 275.682 155.961 276.423 155.961C277.165 155.961 277.766 155.36 277.766 154.618Z" fill="#FB923C"/>
<path d="M277.766 147.777C277.766 147.036 277.165 146.434 276.423 146.434C275.682 146.434 275.08 147.036 275.08 147.777C275.08 148.519 275.682 149.12 276.423 149.12C277.165 149.12 277.766 148.519 277.766 147.777Z" fill="#FB923C"/>
<path d="M277.766 140.936C277.766 140.195 277.165 139.593 276.423 139.593C275.682 139.593 275.08 140.195 275.08 140.936C275.08 141.678 275.682 142.279 276.423 142.279C277.165 142.279 277.766 141.678 277.766 140.936Z" fill="#FB923C"/>
<path d="M277.766 134.095C277.766 133.353 277.165 132.752 276.423 132.752C275.682 132.752 275.08 133.353 275.08 134.095C275.08 134.836 275.682 135.438 276.423 135.438C277.165 135.438 277.766 134.836 277.766 134.095Z" fill="#FB923C"/>
<path d="M277.766 127.254C277.766 126.512 277.165 125.91 276.423 125.91C275.682 125.91 275.08 126.512 275.08 127.254C275.08 127.995 275.682 128.597 276.423 128.597C277.165 128.597 277.766 127.995 277.766 127.254Z" fill="#FB923C"/>
<path d="M277.766 120.412C277.766 119.671 277.165 119.069 276.423 119.069C275.682 119.069 275.08 119.671 275.08 120.412C275.08 121.154 275.682 121.755 276.423 121.755C277.165 121.755 277.766 121.154 277.766 120.412Z" fill="#FB923C"/>
<path d="M284.176 188.824C284.176 188.083 283.575 187.481 282.833 187.481C282.091 187.481 281.49 188.083 281.49 188.824C281.49 189.566 282.091 190.167 282.833 190.167C283.575 190.167 284.176 189.566 284.176 188.824Z" fill="#FB923C"/>
<path d="M284.176 181.983C284.176 181.242 283.575 180.64 282.833 180.64C282.091 180.64 281.49 181.242 281.49 181.983C281.49 182.725 282.091 183.326 282.833 183.326C283.575 183.326 284.176 182.725 284.176 181.983Z" fill="#FB923C"/>
<path d="M284.176 175.142C284.176 174.4 283.575 173.799 282.833 173.799C282.091 173.799 281.49 174.4 281.49 175.142C281.49 175.884 282.091 176.485 282.833 176.485C283.575 176.485 284.176 175.884 284.176 175.142Z" fill="#FB923C"/>
<path d="M284.176 168.3C284.176 167.559 283.575 166.957 282.833 166.957C282.091 166.957 281.49 167.559 281.49 168.3C281.49 169.042 282.091 169.643 282.833 169.643C283.575 169.643 284.176 169.042 284.176 168.3Z" fill="#FB923C"/>
<path d="M284.176 161.459C284.176 160.718 283.575 160.116 282.833 160.116C282.091 160.116 281.49 160.718 281.49 161.459C281.49 162.201 282.091 162.802 282.833 162.802C283.575 162.802 284.176 162.201 284.176 161.459Z" fill="#FB923C"/>
<path d="M284.176 154.618C284.176 153.877 283.575 153.275 282.833 153.275C282.091 153.275 281.49 153.877 281.49 154.618C281.49 155.36 282.091 155.961 282.833 155.961C283.575 155.961 284.176 155.36 284.176 154.618Z" fill="#FB923C"/>
<path d="M284.176 147.777C284.176 147.036 283.575 146.434 282.833 146.434C282.091 146.434 281.49 147.036 281.49 147.777C281.49 148.519 282.091 149.12 282.833 149.12C283.575 149.12 284.176 148.519 284.176 147.777Z" fill="#FB923C"/>
<path d="M284.176 140.936C284.176 140.195 283.575 139.593 282.833 139.593C282.091 139.593 281.49 140.195 281.49 140.936C281.49 141.678 282.091 142.279 282.833 142.279C283.575 142.279 284.176 141.678 284.176 140.936Z" fill="#FB923C"/>
<path d="M284.176 134.095C284.176 133.353 283.575 132.752 282.833 132.752C282.091 132.752 281.49 133.353 281.49 134.095C281.49 134.836 282.091 135.438 282.833 135.438C283.575 135.438 284.176 134.836 284.176 134.095Z" fill="#FB923C"/>
<path d="M284.176 127.254C284.176 126.512 283.575 125.91 282.833 125.91C282.091 125.91 281.49 126.512 281.49 127.254C281.49 127.995 282.091 128.597 282.833 128.597C283.575 128.597 284.176 127.995 284.176 127.254Z" fill="#FB923C"/>
<path d="M284.176 120.412C284.176 119.671 283.575 119.069 282.833 119.069C282.091 119.069 281.49 119.671 281.49 120.412C281.49 121.154 282.091 121.755 282.833 121.755C283.575 121.755 284.176 121.154 284.176 120.412Z" fill="#FB923C"/>
<path d="M290.585 188.824C290.585 188.083 289.984 187.481 289.242 187.481C288.501 187.481 287.899 188.083 287.899 188.824C287.899 189.566 288.501 190.167 289.242 190.167C289.984 190.167 290.585 189.566 290.585 188.824Z" fill="#FB923C"/>
<path d="M290.585 181.983C290.585 181.242 289.984 180.64 289.242 180.64C288.501 180.64 287.899 181.242 287.899 181.983C287.899 182.725 288.501 183.326 289.242 183.326C289.984 183.326 290.585 182.725 290.585 181.983Z" fill="#FB923C"/>
<path d="M290.585 175.142C290.585 174.4 289.984 173.799 289.242 173.799C288.501 173.799 287.899 174.4 287.899 175.142C287.899 175.884 288.501 176.485 289.242 176.485C289.984 176.485 290.585 175.884 290.585 175.142Z" fill="#FB923C"/>
<path d="M290.585 168.3C290.585 167.559 289.984 166.957 289.242 166.957C288.501 166.957 287.899 167.559 287.899 168.3C287.899 169.042 288.501 169.643 289.242 169.643C289.984 169.643 290.585 169.042 290.585 168.3Z" fill="#FB923C"/>
<path d="M290.585 161.459C290.585 160.718 289.984 160.116 289.242 160.116C288.501 160.116 287.899 160.718 287.899 161.459C287.899 162.201 288.501 162.802 289.242 162.802C289.984 162.802 290.585 162.201 290.585 161.459Z" fill="#FB923C"/>
<path d="M290.585 154.618C290.585 153.877 289.984 153.275 289.242 153.275C288.501 153.275 287.899 153.877 287.899 154.618C287.899 155.36 288.501 155.961 289.242 155.961C289.984 155.961 290.585 155.36 290.585 154.618Z" fill="#FB923C"/>
<path d="M290.585 147.777C290.585 147.036 289.984 146.434 289.242 146.434C288.501 146.434 287.899 147.036 287.899 147.777C287.899 148.519 288.501 149.12 289.242 149.12C289.984 149.12 290.585 148.519 290.585 147.777Z" fill="#FB923C"/>
<path d="M290.585 140.936C290.585 140.195 289.984 139.593 289.242 139.593C288.501 139.593 287.899 140.195 287.899 140.936C287.899 141.678 288.501 142.279 289.242 142.279C289.984 142.279 290.585 141.678 290.585 140.936Z" fill="#FB923C"/>
<path d="M290.585 134.095C290.585 133.353 289.984 132.752 289.242 132.752C288.501 132.752 287.899 133.353 287.899 134.095C287.899 134.836 288.501 135.438 289.242 135.438C289.984 135.438 290.585 134.836 290.585 134.095Z" fill="#FB923C"/>
<path d="M290.585 127.254C290.585 126.512 289.984 125.91 289.242 125.91C288.501 125.91 287.899 126.512 287.899 127.254C287.899 127.995 288.501 128.597 289.242 128.597C289.984 128.597 290.585 127.995 290.585 127.254Z" fill="#FB923C"/>
<path d="M290.585 120.412C290.585 119.671 289.984 119.069 289.242 119.069C288.501 119.069 287.899 119.671 287.899 120.412C287.899 121.154 288.501 121.755 289.242 121.755C289.984 121.755 290.585 121.154 290.585 120.412Z" fill="#FB923C"/>
<path d="M296.996 188.824C296.996 188.083 296.394 187.481 295.653 187.481C294.911 187.481 294.31 188.083 294.31 188.824C294.31 189.566 294.911 190.167 295.653 190.167C296.394 190.167 296.996 189.566 296.996 188.824Z" fill="#FB923C"/>
<path d="M296.996 181.983C296.996 181.242 296.394 180.64 295.653 180.64C294.911 180.64 294.31 181.242 294.31 181.983C294.31 182.725 294.911 183.326 295.653 183.326C296.394 183.326 296.996 182.725 296.996 181.983Z" fill="#FB923C"/>
<path d="M296.996 175.142C296.996 174.4 296.394 173.799 295.653 173.799C294.911 173.799 294.31 174.4 294.31 175.142C294.31 175.884 294.911 176.485 295.653 176.485C296.394 176.485 296.996 175.884 296.996 175.142Z" fill="#FB923C"/>
<path d="M296.996 168.3C296.996 167.559 296.394 166.957 295.653 166.957C294.911 166.957 294.31 167.559 294.31 168.3C294.31 169.042 294.911 169.643 295.653 169.643C296.394 169.643 296.996 169.042 296.996 168.3Z" fill="#FB923C"/>
<path d="M296.996 161.459C296.996 160.718 296.394 160.116 295.653 160.116C294.911 160.116 294.31 160.718 294.31 161.459C294.31 162.201 294.911 162.802 295.653 162.802C296.394 162.802 296.996 162.201 296.996 161.459Z" fill="#FB923C"/>
<path d="M296.996 154.618C296.996 153.877 296.394 153.275 295.653 153.275C294.911 153.275 294.31 153.877 294.31 154.618C294.31 155.36 294.911 155.961 295.653 155.961C296.394 155.961 296.996 155.36 296.996 154.618Z" fill="#FB923C"/>
<path d="M296.996 147.777C296.996 147.036 296.394 146.434 295.653 146.434C294.911 146.434 294.31 147.036 294.31 147.777C294.31 148.519 294.911 149.12 295.653 149.12C296.394 149.12 296.996 148.519 296.996 147.777Z" fill="#FB923C"/>
<path d="M296.996 140.936C296.996 140.195 296.394 139.593 295.653 139.593C294.911 139.593 294.31 140.195 294.31 140.936C294.31 141.678 294.911 142.279 295.653 142.279C296.394 142.279 296.996 141.678 296.996 140.936Z" fill="#FB923C"/>
<path d="M296.996 134.095C296.996 133.353 296.394 132.752 295.653 132.752C294.911 132.752 294.31 133.353 294.31 134.095C294.31 134.836 294.911 135.438 295.653 135.438C296.394 135.438 296.996 134.836 296.996 134.095Z" fill="#FB923C"/>
<path d="M296.996 127.254C296.996 126.512 296.394 125.91 295.653 125.91C294.911 125.91 294.31 126.512 294.31 127.254C294.31 127.995 294.911 128.597 295.653 128.597C296.394 128.597 296.996 127.995 296.996 127.254Z" fill="#FB923C"/>
<path d="M296.996 120.412C296.996 119.671 296.394 119.069 295.653 119.069C294.911 119.069 294.31 119.671 294.31 120.412C294.31 121.154 294.911 121.755 295.653 121.755C296.394 121.755 296.996 121.154 296.996 120.412Z" fill="#FB923C"/>
<path d="M303.405 188.824C303.405 188.083 302.804 187.481 302.062 187.481C301.32 187.481 300.719 188.083 300.719 188.824C300.719 189.566 301.32 190.167 302.062 190.167C302.804 190.167 303.405 189.566 303.405 188.824Z" fill="#FB923C"/>
<path d="M303.405 181.983C303.405 181.242 302.804 180.64 302.062 180.64C301.32 180.64 300.719 181.242 300.719 181.983C300.719 182.725 301.32 183.326 302.062 183.326C302.804 183.326 303.405 182.725 303.405 181.983Z" fill="#FB923C"/>
<path d="M303.405 175.142C303.405 174.4 302.804 173.799 302.062 173.799C301.32 173.799 300.719 174.4 300.719 175.142C300.719 175.884 301.32 176.485 302.062 176.485C302.804 176.485 303.405 175.884 303.405 175.142Z" fill="#FB923C"/>
<path d="M303.405 168.3C303.405 167.559 302.804 166.957 302.062 166.957C301.32 166.957 300.719 167.559 300.719 168.3C300.719 169.042 301.32 169.643 302.062 169.643C302.804 169.643 303.405 169.042 303.405 168.3Z" fill="#FB923C"/>
<path d="M303.405 161.459C303.405 160.718 302.804 160.116 302.062 160.116C301.32 160.116 300.719 160.718 300.719 161.459C300.719 162.201 301.32 162.802 302.062 162.802C302.804 162.802 303.405 162.201 303.405 161.459Z" fill="#FB923C"/>
<path d="M303.405 154.618C303.405 153.877 302.804 153.275 302.062 153.275C301.32 153.275 300.719 153.877 300.719 154.618C300.719 155.36 301.32 155.961 302.062 155.961C302.804 155.961 303.405 155.36 303.405 154.618Z" fill="#FB923C"/>
<path d="M303.405 147.777C303.405 147.036 302.804 146.434 302.062 146.434C301.32 146.434 300.719 147.036 300.719 147.777C300.719 148.519 301.32 149.12 302.062 149.12C302.804 149.12 303.405 148.519 303.405 147.777Z" fill="#FB923C"/>
<path d="M303.405 140.936C303.405 140.195 302.804 139.593 302.062 139.593C301.32 139.593 300.719 140.195 300.719 140.936C300.719 141.678 301.32 142.279 302.062 142.279C302.804 142.279 303.405 141.678 303.405 140.936Z" fill="#FB923C"/>
<path d="M303.405 134.095C303.405 133.353 302.804 132.752 302.062 132.752C301.32 132.752 300.719 133.353 300.719 134.095C300.719 134.836 301.32 135.438 302.062 135.438C302.804 135.438 303.405 134.836 303.405 134.095Z" fill="#FB923C"/>
<path d="M303.405 127.254C303.405 126.512 302.804 125.91 302.062 125.91C301.32 125.91 300.719 126.512 300.719 127.254C300.719 127.995 301.32 128.597 302.062 128.597C302.804 128.597 303.405 127.995 303.405 127.254Z" fill="#FB923C"/>
<path d="M303.405 120.412C303.405 119.671 302.804 119.069 302.062 119.069C301.32 119.069 300.719 119.671 300.719 120.412C300.719 121.154 301.32 121.755 302.062 121.755C302.804 121.755 303.405 121.154 303.405 120.412Z" fill="#FB923C"/>
<path d="M309.815 188.824C309.815 188.083 309.213 187.481 308.472 187.481C307.73 187.481 307.128 188.083 307.128 188.824C307.128 189.566 307.73 190.167 308.472 190.167C309.213 190.167 309.815 189.566 309.815 188.824Z" fill="#FB923C"/>
<path d="M309.815 181.983C309.815 181.242 309.213 180.64 308.472 180.64C307.73 180.64 307.128 181.242 307.128 181.983C307.128 182.725 307.73 183.326 308.472 183.326C309.213 183.326 309.815 182.725 309.815 181.983Z" fill="#FB923C"/>
<path d="M309.815 175.142C309.815 174.4 309.213 173.799 308.472 173.799C307.73 173.799 307.128 174.4 307.128 175.142C307.128 175.884 307.73 176.485 308.472 176.485C309.213 176.485 309.815 175.884 309.815 175.142Z" fill="#FB923C"/>
<path d="M309.815 168.3C309.815 167.559 309.213 166.957 308.472 166.957C307.73 166.957 307.128 167.559 307.128 168.3C307.128 169.042 307.73 169.643 308.472 169.643C309.213 169.643 309.815 169.042 309.815 168.3Z" fill="#FB923C"/>
<path d="M309.815 161.459C309.815 160.718 309.213 160.116 308.472 160.116C307.73 160.116 307.128 160.718 307.128 161.459C307.128 162.201 307.73 162.802 308.472 162.802C309.213 162.802 309.815 162.201 309.815 161.459Z" fill="#FB923C"/>
<path d="M309.815 154.618C309.815 153.877 309.213 153.275 308.472 153.275C307.73 153.275 307.128 153.877 307.128 154.618C307.128 155.36 307.73 155.961 308.472 155.961C309.213 155.961 309.815 155.36 309.815 154.618Z" fill="#FB923C"/>
<path d="M309.815 147.777C309.815 147.036 309.213 146.434 308.472 146.434C307.73 146.434 307.128 147.036 307.128 147.777C307.128 148.519 307.73 149.12 308.472 149.12C309.213 149.12 309.815 148.519 309.815 147.777Z" fill="#FB923C"/>
<path d="M309.815 140.936C309.815 140.195 309.213 139.593 308.472 139.593C307.73 139.593 307.128 140.195 307.128 140.936C307.128 141.678 307.73 142.279 308.472 142.279C309.213 142.279 309.815 141.678 309.815 140.936Z" fill="#FB923C"/>
<path d="M309.815 134.095C309.815 133.353 309.213 132.752 308.472 132.752C307.73 132.752 307.128 133.353 307.128 134.095C307.128 134.836 307.73 135.438 308.472 135.438C309.213 135.438 309.815 134.836 309.815 134.095Z" fill="#FB923C"/>
<path d="M309.815 127.254C309.815 126.512 309.213 125.91 308.472 125.91C307.73 125.91 307.128 126.512 307.128 127.254C307.128 127.995 307.73 128.597 308.472 128.597C309.213 128.597 309.815 127.995 309.815 127.254Z" fill="#FB923C"/>
<path d="M309.815 120.412C309.815 119.671 309.213 119.069 308.472 119.069C307.73 119.069 307.128 119.671 307.128 120.412C307.128 121.154 307.73 121.755 308.472 121.755C309.213 121.755 309.815 121.154 309.815 120.412Z" fill="#FB923C"/>
<path d="M316.225 188.824C316.225 188.083 315.623 187.481 314.882 187.481C314.14 187.481 313.539 188.083 313.539 188.824C313.539 189.566 314.14 190.167 314.882 190.167C315.623 190.167 316.225 189.566 316.225 188.824Z" fill="#FB923C"/>
<path d="M316.225 181.983C316.225 181.242 315.623 180.64 314.882 180.64C314.14 180.64 313.539 181.242 313.539 181.983C313.539 182.725 314.14 183.326 314.882 183.326C315.623 183.326 316.225 182.725 316.225 181.983Z" fill="#FB923C"/>
<path d="M316.225 175.142C316.225 174.4 315.623 173.799 314.882 173.799C314.14 173.799 313.539 174.4 313.539 175.142C313.539 175.884 314.14 176.485 314.882 176.485C315.623 176.485 316.225 175.884 316.225 175.142Z" fill="#FB923C"/>
<path d="M316.225 168.3C316.225 167.559 315.623 166.957 314.882 166.957C314.14 166.957 313.539 167.559 313.539 168.3C313.539 169.042 314.14 169.643 314.882 169.643C315.623 169.643 316.225 169.042 316.225 168.3Z" fill="#FB923C"/>
<path d="M316.225 161.459C316.225 160.718 315.623 160.116 314.882 160.116C314.14 160.116 313.539 160.718 313.539 161.459C313.539 162.201 314.14 162.802 314.882 162.802C315.623 162.802 316.225 162.201 316.225 161.459Z" fill="#FB923C"/>
<path d="M316.225 154.618C316.225 153.877 315.623 153.275 314.882 153.275C314.14 153.275 313.539 153.877 313.539 154.618C313.539 155.36 314.14 155.961 314.882 155.961C315.623 155.961 316.225 155.36 316.225 154.618Z" fill="#FB923C"/>
<path d="M316.225 147.777C316.225 147.036 315.623 146.434 314.882 146.434C314.14 146.434 313.539 147.036 313.539 147.777C313.539 148.519 314.14 149.12 314.882 149.12C315.623 149.12 316.225 148.519 316.225 147.777Z" fill="#FB923C"/>
<path d="M316.225 140.936C316.225 140.195 315.623 139.593 314.882 139.593C314.14 139.593 313.539 140.195 313.539 140.936C313.539 141.678 314.14 142.279 314.882 142.279C315.623 142.279 316.225 141.678 316.225 140.936Z" fill="#FB923C"/>
<path d="M316.225 134.095C316.225 133.353 315.623 132.752 314.882 132.752C314.14 132.752 313.539 133.353 313.539 134.095C313.539 134.836 314.14 135.438 314.882 135.438C315.623 135.438 316.225 134.836 316.225 134.095Z" fill="#FB923C"/>
<path d="M316.225 127.254C316.225 126.512 315.623 125.91 314.882 125.91C314.14 125.91 313.539 126.512 313.539 127.254C313.539 127.995 314.14 128.597 314.882 128.597C315.623 128.597 316.225 127.995 316.225 127.254Z" fill="#FB923C"/>
<path d="M316.225 120.412C316.225 119.671 315.623 119.069 314.882 119.069C314.14 119.069 313.539 119.671 313.539 120.412C313.539 121.154 314.14 121.755 314.882 121.755C315.623 121.755 316.225 121.154 316.225 120.412Z" fill="#FB923C"/>
<path d="M322.634 188.824C322.634 188.083 322.033 187.481 321.291 187.481C320.549 187.481 319.948 188.083 319.948 188.824C319.948 189.566 320.549 190.167 321.291 190.167C322.033 190.167 322.634 189.566 322.634 188.824Z" fill="#FB923C"/>
<path d="M322.634 181.983C322.634 181.242 322.033 180.64 321.291 180.64C320.549 180.64 319.948 181.242 319.948 181.983C319.948 182.725 320.549 183.326 321.291 183.326C322.033 183.326 322.634 182.725 322.634 181.983Z" fill="#FB923C"/>
<path d="M322.634 175.142C322.634 174.4 322.033 173.799 321.291 173.799C320.549 173.799 319.948 174.4 319.948 175.142C319.948 175.884 320.549 176.485 321.291 176.485C322.033 176.485 322.634 175.884 322.634 175.142Z" fill="#FB923C"/>
<path d="M322.634 168.3C322.634 167.559 322.033 166.957 321.291 166.957C320.549 166.957 319.948 167.559 319.948 168.3C319.948 169.042 320.549 169.643 321.291 169.643C322.033 169.643 322.634 169.042 322.634 168.3Z" fill="#FB923C"/>
<path d="M322.634 161.459C322.634 160.718 322.033 160.116 321.291 160.116C320.549 160.116 319.948 160.718 319.948 161.459C319.948 162.201 320.549 162.802 321.291 162.802C322.033 162.802 322.634 162.201 322.634 161.459Z" fill="#FB923C"/>
<path d="M322.634 154.618C322.634 153.877 322.033 153.275 321.291 153.275C320.549 153.275 319.948 153.877 319.948 154.618C319.948 155.36 320.549 155.961 321.291 155.961C322.033 155.961 322.634 155.36 322.634 154.618Z" fill="#FB923C"/>
<path d="M322.634 147.777C322.634 147.036 322.033 146.434 321.291 146.434C320.549 146.434 319.948 147.036 319.948 147.777C319.948 148.519 320.549 149.12 321.291 149.12C322.033 149.12 322.634 148.519 322.634 147.777Z" fill="#FB923C"/>
<path d="M322.634 140.936C322.634 140.195 322.033 139.593 321.291 139.593C320.549 139.593 319.948 140.195 319.948 140.936C319.948 141.678 320.549 142.279 321.291 142.279C322.033 142.279 322.634 141.678 322.634 140.936Z" fill="#FB923C"/>
<path d="M322.634 134.095C322.634 133.353 322.033 132.752 321.291 132.752C320.549 132.752 319.948 133.353 319.948 134.095C319.948 134.836 320.549 135.438 321.291 135.438C322.033 135.438 322.634 134.836 322.634 134.095Z" fill="#FB923C"/>
<path d="M322.634 127.254C322.634 126.512 322.033 125.91 321.291 125.91C320.549 125.91 319.948 126.512 319.948 127.254C319.948 127.995 320.549 128.597 321.291 128.597C322.033 128.597 322.634 127.995 322.634 127.254Z" fill="#FB923C"/>
<path d="M322.634 120.412C322.634 119.671 322.033 119.069 321.291 119.069C320.549 119.069 319.948 119.671 319.948 120.412C319.948 121.154 320.549 121.755 321.291 121.755C322.033 121.755 322.634 121.154 322.634 120.412Z" fill="#FB923C"/>
<path d="M329.044 188.824C329.044 188.083 328.442 187.481 327.701 187.481C326.959 187.481 326.358 188.083 326.358 188.824C326.358 189.566 326.959 190.167 327.701 190.167C328.442 190.167 329.044 189.566 329.044 188.824Z" fill="#FB923C"/>
<path d="M329.044 181.983C329.044 181.242 328.442 180.64 327.701 180.64C326.959 180.64 326.358 181.242 326.358 181.983C326.358 182.725 326.959 183.326 327.701 183.326C328.442 183.326 329.044 182.725 329.044 181.983Z" fill="#FB923C"/>
<path d="M329.044 175.142C329.044 174.4 328.442 173.799 327.701 173.799C326.959 173.799 326.358 174.4 326.358 175.142C326.358 175.884 326.959 176.485 327.701 176.485C328.442 176.485 329.044 175.884 329.044 175.142Z" fill="#FB923C"/>
<path d="M329.044 168.3C329.044 167.559 328.442 166.957 327.701 166.957C326.959 166.957 326.358 167.559 326.358 168.3C326.358 169.042 326.959 169.643 327.701 169.643C328.442 169.643 329.044 169.042 329.044 168.3Z" fill="#FB923C"/>
<path d="M329.044 161.459C329.044 160.718 328.442 160.116 327.701 160.116C326.959 160.116 326.358 160.718 326.358 161.459C326.358 162.201 326.959 162.802 327.701 162.802C328.442 162.802 329.044 162.201 329.044 161.459Z" fill="#FB923C"/>
<path d="M329.044 154.618C329.044 153.877 328.442 153.275 327.701 153.275C326.959 153.275 326.358 153.877 326.358 154.618C326.358 155.36 326.959 155.961 327.701 155.961C328.442 155.961 329.044 155.36 329.044 154.618Z" fill="#FB923C"/>
<path d="M329.044 147.777C329.044 147.036 328.442 146.434 327.701 146.434C326.959 146.434 326.358 147.036 326.358 147.777C326.358 148.519 326.959 149.12 327.701 149.12C328.442 149.12 329.044 148.519 329.044 147.777Z" fill="#FB923C"/>
<path d="M329.044 140.936C329.044 140.195 328.442 139.593 327.701 139.593C326.959 139.593 326.358 140.195 326.358 140.936C326.358 141.678 326.959 142.279 327.701 142.279C328.442 142.279 329.044 141.678 329.044 140.936Z" fill="#FB923C"/>
<path d="M329.044 134.095C329.044 133.353 328.442 132.752 327.701 132.752C326.959 132.752 326.358 133.353 326.358 134.095C326.358 134.836 326.959 135.438 327.701 135.438C328.442 135.438 329.044 134.836 329.044 134.095Z" fill="#FB923C"/>
<path d="M329.044 127.254C329.044 126.512 328.442 125.91 327.701 125.91C326.959 125.91 326.358 126.512 326.358 127.254C326.358 127.995 326.959 128.597 327.701 128.597C328.442 128.597 329.044 127.995 329.044 127.254Z" fill="#FB923C"/>
<path d="M329.044 120.412C329.044 119.671 328.442 119.069 327.701 119.069C326.959 119.069 326.358 119.671 326.358 120.412C326.358 121.154 326.959 121.755 327.701 121.755C328.442 121.755 329.044 121.154 329.044 120.412Z" fill="#FB923C"/>
</g>
<g clip-path="url(#clip1_1529_1128)">
<path d="M162.015 104.001L153.208 114.953L149.515 119.536L130.317 122.109L142.823 106.587L162.015 104.001Z" fill="#F97316"/>
<path d="M162.015 104.002L219.5 150.275L173.63 207.027L163.263 198.682L157.238 193.833L190.488 152.525L149.515 119.536L153.208 114.953L162.015 104.002Z" fill="#FB923C"/>
<path d="M190.488 152.525L157.238 193.833L138.919 197.113L172.169 155.805L190.488 152.525Z" fill="#F97316"/>
<path d="M149.515 119.536L190.488 152.525L172.169 155.805L130.317 122.109L149.515 119.536Z" fill="#111111"/>
<path d="M157.238 193.833L163.263 198.682L173.63 207.027L154.45 209.622L138.919 197.113L157.238 193.833Z" fill="#111111"/>
</g>
<g clip-path="url(#clip2_1529_1128)">
<path d="M266.225 6.3233C255.783 9.66017 247.093 17.0088 242.068 26.7525C237.044 36.4962 236.096 47.8369 239.432 58.2797C242.769 68.7225 250.118 77.4121 259.862 82.4367C269.605 87.4614 280.946 88.4096 291.389 85.0727L287.697 72.8182C280.487 75.122 272.657 74.4674 265.93 70.9982C259.203 67.5291 254.129 61.5297 251.825 54.3197C249.521 47.1098 250.176 39.28 253.645 32.5527C257.114 25.8255 263.114 20.7518 270.324 18.448L266.225 6.3233Z" fill="#F97316"/>
</g>
<g clip-path="url(#clip3_1529_1128)">
<path d="M135.257 13.4971L128.974 19.7796L152.482 43.2867L128.974 66.7938L135.257 73.0762L158.764 49.5691L182.271 73.0762L188.553 66.7938L165.046 43.2867L188.553 19.7796L182.271 13.4971L158.764 37.0042L135.257 13.4971Z" stroke="#F97316" stroke-width="6" stroke-linecap="round" stroke-linejoin="round"/>
</g>
<defs>
<clipPath id="clip0_1529_1128">
<rect width="71.098" height="71.0979" fill="white" transform="matrix(0 -1 1 0 266.513 190.167)"/>
</clipPath>
<clipPath id="clip1_1529_1128">
<rect width="87.0812" height="87.0812" fill="white" transform="translate(97.0356 163.26) rotate(-51.0525)"/>
</clipPath>
<clipPath id="clip2_1529_1128">
<rect width="82.672" height="82.672" fill="white" transform="translate(232.428 103.913) rotate(-107.721)"/>
</clipPath>
<clipPath id="clip3_1529_1128">
<rect width="63.3819" height="63.3819" fill="white" transform="matrix(0 -1 1 0 127.073 74.9777)"/>
</clipPath>
</defs>
</svg>
