<svg width="200" height="193" viewBox="0 0 200 193" fill="none" xmlns="http://www.w3.org/2000/svg">
<g clip-path="url(#clip0_4_3445)">
<path d="M180.109 186.494C180.866 186.541 181.285 185.6 180.712 185.051L180.655 184.824C180.662 184.806 180.67 184.788 180.678 184.77C181.444 182.943 184.039 182.955 184.799 184.785C185.473 186.409 186.331 188.036 186.542 189.753C186.637 190.511 186.594 191.284 186.426 192.028C188.005 188.576 188.836 184.807 188.836 181.017C188.836 180.065 188.784 179.112 188.678 178.163C188.59 177.386 188.469 176.613 188.313 175.848C187.468 171.712 185.638 167.773 182.998 164.482C181.728 163.788 180.67 162.703 180.031 161.403C179.801 160.934 179.621 160.429 179.536 159.915C179.68 159.934 180.08 157.733 179.971 157.598C180.173 157.293 180.533 157.141 180.753 156.843C181.846 155.36 183.352 155.619 184.139 157.634C185.819 158.482 185.835 159.889 184.804 161.242C184.148 162.102 184.058 163.267 183.483 164.189C183.542 164.264 183.604 164.338 183.663 164.414C184.748 165.807 185.687 167.304 186.479 168.877C186.255 167.129 186.585 165.023 187.148 163.665C187.789 162.118 188.99 160.816 190.048 159.478C191.319 157.872 193.924 158.573 194.148 160.609C194.15 160.629 194.152 160.649 194.155 160.668C193.997 160.757 193.843 160.851 193.693 160.951C192.835 161.518 193.132 162.848 194.148 163.005L194.171 163.009C194.114 163.575 194.017 164.136 193.875 164.688C195.232 169.939 192.302 171.851 188.119 171.937C188.027 171.985 187.937 172.032 187.844 172.077C188.268 173.271 188.607 174.496 188.858 175.737C189.083 176.834 189.239 177.942 189.327 179.056C189.436 180.46 189.426 181.872 189.308 183.275L189.315 183.225C189.615 181.68 190.454 180.238 191.671 179.238C193.484 177.748 196.045 177.199 198.001 176.002C198.943 175.425 200.149 176.17 199.985 177.262L199.977 177.314C199.686 177.433 199.402 177.57 199.127 177.724C198.97 177.813 198.816 177.907 198.665 178.007C197.808 178.574 198.104 179.904 199.12 180.061L199.143 180.065C199.16 180.067 199.174 180.069 199.191 180.072C198.691 181.259 197.995 182.36 197.124 183.31C196.275 187.894 192.631 188.328 188.732 186.994H188.73C188.304 188.851 187.681 190.665 186.881 192.395H180.275C180.251 192.321 180.23 192.245 180.208 192.172C180.819 192.21 181.435 192.174 182.036 192.063C181.546 191.461 181.056 190.855 180.566 190.253C180.554 190.241 180.544 190.23 180.535 190.218C180.286 189.91 180.035 189.604 179.787 189.296L179.787 189.296C179.771 188.35 179.885 187.408 180.109 186.494Z" fill="#F2F2F2"/>
<path d="M58.5645 192.048C58.5645 192.29 58.7588 192.484 59.0007 192.484H199.512C199.754 192.484 199.949 192.29 199.949 192.048C199.949 191.805 199.754 191.611 199.512 191.611H59.0007C58.7588 191.611 58.5645 191.805 58.5645 192.048Z" fill="#CCCCCC"/>
<path d="M79.8858 192.298H15.2096C7.32344 192.298 0.907532 185.879 0.907532 177.989V38.932C0.907532 31.0422 7.32344 24.6234 15.2096 24.6234H79.8858C87.7718 24.6234 94.1877 31.0422 94.1877 38.932V177.989C94.1877 185.879 87.7718 192.298 79.8858 192.298Z" fill="#3F3D56"/>
<path d="M94.1877 75.7732C93.854 75.7732 93.5826 76.0447 93.5826 76.3785V95.7489C93.5826 96.0827 93.854 96.3542 94.1877 96.3542C94.5214 96.3542 94.7927 96.0827 94.7927 95.7489V76.3785C94.7927 76.0447 94.5214 75.7732 94.1877 75.7732Z" fill="#3F3D56"/>
<path d="M92.8264 38.9321V177.987C92.8264 184.854 87.4839 190.472 80.7285 190.908H80.7255C80.6256 190.914 80.5258 190.92 80.423 190.923C80.2445 190.932 80.066 190.935 79.8845 190.935C79.8845 190.935 79.2189 190.886 78.0028 190.796C76.7745 190.705 74.9866 190.569 72.757 190.39C72.0885 190.339 71.3836 190.281 70.6394 190.221C69.157 190.1 67.5294 189.966 65.7839 189.815C65.0881 189.757 64.3681 189.694 63.6329 189.63C59.8756 189.307 55.6675 188.928 51.2295 188.498C50.4792 188.429 49.7229 188.356 48.9606 188.281C48.7609 188.259 48.5582 188.241 48.3555 188.22C45.1911 187.908 2.26898 179.609 2.26898 177.987V38.9321C2.26898 31.7802 8.0623 25.9842 15.2109 25.9842H22.9374C24.1717 25.9842 25.1639 26.9467 25.2698 28.1785C25.2789 28.2602 25.288 28.3419 25.3031 28.4236C25.5269 29.6615 26.6614 30.5241 27.9199 30.5241H67.1755C68.434 30.5241 69.5684 29.6615 69.7923 28.4236C69.8074 28.3419 69.8165 28.2602 69.8256 28.1785C69.9315 26.9467 70.9237 25.9842 72.158 25.9842H79.8845C87.0331 25.9842 92.8264 31.7802 92.8264 38.9321Z" fill="white"/>
<path d="M0.605044 61.2455C0.271353 61.2455 0 61.517 0 61.8508V66.6934C0 67.0272 0.271356 67.2987 0.605044 67.2987C0.938733 67.2987 1.21009 67.0272 1.21009 66.6934V61.8508C1.21009 61.517 0.938733 61.2455 0.605044 61.2455Z" fill="#3F3D56"/>
<path d="M0.605044 75.7732C0.271353 75.7732 0 76.0447 0 76.3785V85.761C0 86.0949 0.271356 86.3664 0.605044 86.3664C0.938733 86.3664 1.21009 86.0949 1.21009 85.761V76.3785C1.21009 76.0447 0.938733 75.7732 0.605044 75.7732Z" fill="#3F3D56"/>
<path d="M0.605044 89.0903C0.271353 89.0903 0 89.3618 0 89.6957V99.0782C0 99.412 0.271356 99.6835 0.605044 99.6835C0.938733 99.6835 1.21009 99.412 1.21009 99.0782V89.6957C1.21009 89.3618 0.938733 89.0903 0.605044 89.0903Z" fill="#3F3D56"/>
<path d="M22.7268 28.104H11.1558C11.093 28.104 11.0421 28.1549 11.0421 28.2178V29.5035C11.0421 29.5664 11.093 29.6173 11.1558 29.6173H22.7268C22.7896 29.6173 22.8405 29.5664 22.8405 29.5035V28.2178C22.8405 28.1549 22.7896 28.104 22.7268 28.104Z" fill="#E6E6E6"/>
<path d="M74.07 29.6173C74.7383 29.6173 75.28 29.0753 75.28 28.4067C75.28 27.7381 74.7383 27.196 74.07 27.196C73.4016 27.196 72.8599 27.7381 72.8599 28.4067C72.8599 29.0753 73.4016 29.6173 74.07 29.6173Z" fill="#E6E6E6"/>
<path d="M77.3977 29.6173C78.066 29.6173 78.6077 29.0753 78.6077 28.4067C78.6077 27.7381 78.066 27.196 77.3977 27.196C76.7293 27.196 76.1876 27.7381 76.1876 28.4067C76.1876 29.0753 76.7293 29.6173 77.3977 29.6173Z" fill="#E6E6E6"/>
<path d="M80.7254 29.6173C81.3937 29.6173 81.9355 29.0753 81.9355 28.4067C81.9355 27.7381 81.3937 27.196 80.7254 27.196C80.0571 27.196 79.5153 27.7381 79.5153 28.4067C79.5153 29.0753 80.0571 29.6173 80.7254 29.6173Z" fill="#E6E6E6"/>
<path d="M73.0579 109.968H21.7348C20.9263 109.968 20.2684 109.31 20.2684 108.501C20.2684 107.692 20.9263 107.034 21.7348 107.034H73.0579C73.8665 107.034 74.5243 107.692 74.5243 108.501C74.5243 109.31 73.8665 109.968 73.0579 109.968Z" fill="#E6E6E6"/>
<path d="M47.5804 166.816C59.3233 166.816 68.8429 157.292 68.8429 145.544C68.8429 133.796 59.3233 124.272 47.5804 124.272C35.8375 124.272 26.318 133.796 26.318 145.544C26.318 157.292 35.8375 166.816 47.5804 166.816Z" fill="#EA580C"/>
<path d="M50.9596 138.598C49.1652 138.672 47.1366 138.795 45.8103 140.173C44.658 141.37 44.4055 143.146 45.574 144.423C46.7455 145.704 48.5671 145.878 49.9175 146.877C51.5032 148.051 51.271 150.372 49.7365 151.484C47.927 152.796 45.5906 152.184 43.9363 150.936C43.5124 150.617 43.1009 151.333 43.52 151.649C45.0022 152.767 46.9362 153.389 48.7687 152.854C50.4226 152.372 51.7046 151.022 51.835 149.268C51.8973 148.43 51.6592 147.58 51.1387 146.919C50.5891 146.221 49.7976 145.791 48.9975 145.442C47.6201 144.84 45.2484 144.061 45.6489 142.103C46.1343 139.728 49.023 139.503 50.9597 139.424C51.4886 139.402 51.4913 138.577 50.9596 138.598Z" fill="white"/>
<path d="M47.6308 137.475L47.5517 155.591C47.5494 156.122 48.3742 156.123 48.3765 155.591L48.4556 137.475C48.4579 136.944 47.6331 136.944 47.6308 137.475Z" fill="white"/>
<path d="M160.233 0.484009H55.4017C51.5561 0.484009 48.4291 3.61248 48.4291 7.4598V79.3304C48.4291 83.1778 51.5561 86.3063 55.4017 86.3063H160.233C164.078 86.3063 167.205 83.1778 167.205 79.3304V7.4598C167.205 3.61248 164.078 0.484009 160.233 0.484009Z" fill="white"/>
<path d="M107.335 43.2175C113.814 43.2175 119.066 37.9629 119.066 31.4811C119.066 24.9993 113.814 19.7448 107.335 19.7448C100.856 19.7448 95.6042 24.9993 95.6042 31.4811C95.6042 37.9629 100.856 43.2175 107.335 43.2175Z" fill="#EA580C"/>
<path d="M109.561 26.2438C108.108 26.3037 106.474 26.3958 105.375 27.4769C104.465 28.3725 104.147 29.7666 104.983 30.8211C105.864 31.9313 107.328 32.1419 108.477 32.8514C109.191 33.2923 109.664 33.9603 109.68 34.8188C109.694 35.6225 109.323 36.3734 108.704 36.8771C107.183 38.113 105.109 37.6014 103.67 36.5206C103.387 36.3079 103.113 36.7853 103.393 36.9956C104.584 37.8908 106.118 38.4107 107.601 38.0255C108.966 37.671 110.065 36.597 110.213 35.1618C110.369 33.6492 109.376 32.6192 108.089 32.0284C106.912 31.4883 104.848 30.9128 105.043 29.2349C105.29 27.1016 107.901 26.8624 109.561 26.794C109.913 26.7794 109.915 26.2292 109.561 26.2438Z" fill="white"/>
<path d="M107.037 25.2462L106.971 40.3414C106.97 40.6955 107.519 40.6959 107.521 40.3414L107.587 25.2462C107.588 24.8921 107.039 24.8917 107.037 25.2462Z" fill="white"/>
<path d="M160.233 0.484009H55.4017C51.5561 0.484009 48.4291 3.61248 48.4291 7.4598V79.3304C48.4291 83.1778 51.5561 86.3063 55.4017 86.3063H160.233C164.078 86.3063 167.205 83.1778 167.205 79.3304V7.4598C167.205 3.61248 164.078 0.484009 160.233 0.484009ZM166.472 79.3304C166.472 82.7743 163.675 85.5727 160.233 85.5727H55.4017C51.9594 85.5727 49.1623 82.7743 49.1623 79.3304V7.4598C49.1623 4.01593 51.9594 1.21753 55.4017 1.21753H160.233C163.675 1.21753 166.472 4.01592 166.472 7.4598V79.3304Z" fill="#3F3D56"/>
<path d="M95.7307 7.58087H85.444C84.9271 7.58087 84.5056 8.00266 84.5056 8.51978C84.5056 9.04058 84.9271 9.46236 85.444 9.46236H95.7307C96.2476 9.46236 96.6692 9.04058 96.6692 8.51978C96.6692 8.00266 96.2476 7.58087 95.7307 7.58087Z" fill="#E6E6E6"/>
<path d="M112.961 7.58087H102.674C102.157 7.58087 101.735 8.00266 101.735 8.51978C101.735 9.04058 102.157 9.46236 102.674 9.46236H112.961C113.477 9.46236 113.899 9.04058 113.899 8.51978C113.899 8.00266 113.477 7.58087 112.961 7.58087Z" fill="#E6E6E6"/>
<path d="M130.19 7.58087H119.904C119.387 7.58087 118.965 8.00266 118.965 8.51978C118.965 9.04058 119.387 9.46236 119.904 9.46236H130.19C130.707 9.46236 131.129 9.04058 131.129 8.51978C131.129 8.00266 130.707 7.58087 130.19 7.58087Z" fill="#E6E6E6"/>
<path d="M147.156 49.8192H68.4781C65.2044 49.8192 62.543 52.4819 62.543 55.7571V61.1191C62.543 64.3943 65.2044 67.057 68.4781 67.057H147.156C150.43 67.057 153.092 64.3943 153.092 61.1191V55.7571C153.092 52.4819 150.43 49.8192 147.156 49.8192Z" fill="#EA580C"/>
<path d="M26.827 78.0512L23.81 76.6213C25.0475 78.3491 26.1137 81.0474 26.6846 83.1946C27.6511 81.1945 29.2092 78.7472 30.7515 77.2854L27.5628 78.1061C29.5277 68.472 36.918 61.5557 45.3809 61.5557V60.8221C36.5411 60.8221 28.8332 68.0281 26.827 78.0512Z" fill="#3F3D56"/>
<path d="M40.7133 92.7304H21.6505C20.8419 92.7304 20.1841 92.0722 20.1841 91.2633C20.1841 90.4544 20.8419 89.7963 21.6505 89.7963H40.7133C41.5219 89.7963 42.1797 90.4544 42.1797 91.2633C42.1797 92.0722 41.5219 92.7304 40.7133 92.7304Z" fill="#E6E6E6"/>
<path d="M167.525 87.9523L167.333 102.93L163.608 116.283L160.63 115.171L161.952 102.933L161.779 86.3707L167.525 87.9523Z" fill="#FFB6B6"/>
<path d="M163.595 118.436C163.945 116.516 163.304 114.791 162.165 114.583C161.025 114.376 159.818 115.764 159.469 117.684C159.12 119.604 159.76 121.329 160.899 121.536C162.039 121.744 163.246 120.355 163.595 118.436Z" fill="#FFB6B6"/>
<path d="M163.005 70.1179C163.005 70.1179 169.386 70.2058 169.381 73.5972C169.378 75.512 168.967 92.8974 167.823 103.459C166.941 111.603 165.257 113.728 165.257 113.728L161.224 104.559L163.005 70.1179Z" fill="#E6E6E6"/>
<path d="M162.841 100.719H141.29C143.096 96.6868 144.207 92.8462 142.471 89.7913L162.841 88.6099C161.823 92.7339 161.699 96.7811 162.841 100.719Z" fill="#FFB6B6"/>
<path d="M160.184 64.9813L151.623 64.3906L148.08 68.821L146.284 69.1477C143.592 69.6374 141.675 72.041 141.795 74.7759L142.494 90.6614L162.957 92.1542L167.86 71.468L161.955 69.1163L160.184 64.9813Z" fill="#E6E6E6"/>
<path d="M107.973 69.7733C108.58 70.32 109.014 70.9586 109.243 71.578L115.358 76.4202L112.97 79.2641L107.024 74.0459C106.384 73.8833 105.704 73.5192 105.096 72.9725C103.709 71.7236 103.228 69.995 104.022 69.1116C104.817 68.2281 106.585 68.5244 107.973 69.7733Z" fill="#FFB6B6"/>
<path d="M151.208 73.8498L127.777 89.679L110.981 77.9852L113.502 73.4153L126.722 81.1014L138.913 71.7364C143.254 67.6568 148.695 68.4476 151.208 73.8498Z" fill="#E6E6E6"/>
<path d="M155.396 63.064C158.903 63.064 161.747 60.219 161.747 56.7095C161.747 53.2 158.903 50.355 155.396 50.355C151.888 50.355 149.044 53.2 149.044 56.7095C149.044 60.219 151.888 63.064 155.396 63.064Z" fill="#FFB6B6"/>
<path d="M164.029 55.1483V56.3806L156.866 54.3634L151.495 55.4894C151.433 54.6715 151.191 53.8683 150.788 53.1568C151.068 54.298 151.1 55.1809 150.802 55.6361L150.08 55.7865C149.963 55.4674 149.735 55.1887 149.438 55.0199C149.409 55.0016 149.372 54.9869 149.339 54.9979C149.288 55.0163 149.284 55.0823 149.284 55.1336C149.292 55.405 149.299 55.6764 149.31 55.9478L147.235 56.3806V55.1483C145.245 50.6672 150.491 46.7897 155.634 46.7495C157.954 46.7313 160.051 47.6884 161.573 49.2067C163.09 50.7288 164.029 52.8267 164.029 55.1483Z" fill="#2F2E41"/>
<path d="M168.059 69.5981L167.518 69.5533C167.556 69.3763 167.595 69.2016 167.63 69.0246C167.93 67.5394 167.27 65.6487 167.221 64.2217C166.967 65.7293 167.402 67.5842 166.952 69.0156C166.901 69.1747 164.944 70.2011 164.89 70.3579C162.724 69.5653 160.468 67.0329 157.914 68.512C156.403 69.3868 154.679 69.0034 152.963 68.6028C152.539 68.5037 152.48 66.406 152.06 66.3235C151.307 66.1759 150.202 68.0828 149.493 68.1573L152.426 56.7877C152.426 50.6026 151.854 44.1134 159.685 46.3004C161.654 46.8505 163.604 47.2816 165.057 48.908C166.511 50.5366 167.546 52.8126 167.913 55.4044C168.134 56.9681 169.514 62.2772 168.059 69.5981Z" fill="#2F2E41"/>
<path d="M163.002 183.931L159.505 184.014L157.557 168.3L162.716 168.178L163.002 183.931Z" fill="#FFB7B7"/>
<path d="M151.007 191.228C151.007 191.819 151.426 192.298 151.943 192.298H158.883C158.883 192.298 159.565 189.552 162.35 188.37L162.542 192.298H166.122L165.688 185.982C165.688 185.982 166.645 182.603 164.657 180.875C162.668 179.148 164.279 179.388 164.279 179.388L163.496 175.479L158.087 176.115L158.047 182.252L155.422 188.343L151.572 190.246C151.229 190.416 151.007 190.802 151.007 191.228Z" fill="#2F2E41"/>
<path d="M152.365 181.37L149.005 182.338L143.134 167.633L148.093 166.205L152.365 181.37Z" fill="#FFB7B7"/>
<path d="M142.614 191.474C142.764 192.045 143.291 192.402 143.791 192.271L150.503 190.509C150.503 190.509 150.467 187.679 152.861 185.829L154.043 189.58L157.505 188.671L155.484 182.672C155.484 182.672 155.553 179.16 153.191 177.994C150.829 176.828 152.448 176.652 152.448 176.652L150.7 173.069L145.629 175.058L147.147 181.004L146.153 187.562L142.911 190.38C142.623 190.631 142.506 191.061 142.614 191.474Z" fill="#2F2E41"/>
<path d="M160.858 99.7913L163.057 100.525C166.496 106.879 167.954 115.318 167.761 125.493L163.854 171.196H157.462L152.784 120.281L144.536 139.391L150.571 171.196L144.536 171.812L132.38 138.74L140.846 100.303L160.858 99.7913Z" fill="#2F2E41"/>
</g>
<defs>
<clipPath id="clip0_4_3445">
<rect width="200" height="192" fill="white" transform="translate(0 0.484009)"/>
</clipPath>
</defs>
</svg>
